<mxfile host="Electron" agent="Mozilla/5.0 (Macintosh; Intel Mac OS X 10_15_7) AppleWebKit/537.36 (KHTML, like Gecko) draw.io/25.0.2 Chrome/128.0.6613.186 Electron/32.2.5 Safari/537.36" version="25.0.2">
  <diagram name="Page-1" id="eTAl3Dprbh8ghzWE168-">
    <mxGraphModel dx="866" dy="648" grid="1" gridSize="10" guides="1" tooltips="1" connect="1" arrows="1" fold="1" page="1" pageScale="1" pageWidth="850" pageHeight="1100" math="0" shadow="0">
      <root>
        <mxCell id="0" />
        <mxCell id="1" parent="0" />
        <mxCell id="8MI-fdnTwuqkwcKfI6M6-1" value="" style="shape=image;verticalLabelPosition=bottom;labelBackgroundColor=default;verticalAlign=top;aspect=fixed;imageAspect=0;image=data:image/jpeg,/9j/4AAQSkZJRgABAQAAAQABAAD/2wCEAAkGBxAPDQ0NDQ8RDQ8OEA4PDw4PDw8NEA8PFhYXFhcSFhckHTQhGBolHRUVIjEhJiorLjAuFx8zODcsNyktLysBCgoKDg0OGBAQGi0lHSYtKzMrLSstLi0tLS0tKy0tKysvLS0tLS0tLy0tLS0rLS0tLS0tLS0tLS0tLS0tLS0tLf/AABEIAOEA4QMBEQACEQEDEQH/xAAbAAEBAAIDAQAAAAAAAAAAAAAAAQUGAwQHAv/EAEgQAAEDAgMFAwcHCQYHAAAAAAEAAgMEEQUSIQYTMUFRB2GBFCIycaGxsiNCcnN0kcEVJCU1Q1KCktEzNDZi0vAWU4Oio8Lh/8QAGQEBAQADAQAAAAAAAAAAAAAAAAECAwQF/8QALhEBAAICAQIFAwIGAwAAAAAAAAECAxEEEiExM0FRgRMycSJhFCM0QlKRocHR/9oADAMBAAIRAxEAPwDGr3XiqgqAiCCqAgqAgKggICAgICAgICAoCCICCKggIqIIgIKgqAiCCqCoCAqCAgqAoCAgICAgKggiAgKAgiCICoIqICAgqIIKoKgICoIKgKAgWQWyqFkCyBZAsoJZFEBAVEQFAQRBEBUEVEFQERVBUBAVFQFAQWyqKgICAgICAgIIgllFEBURAQFBEEVBARREVQVAQFRUBQAER9KggICAoCAgICAqCAghCCKKKiICAoIgioICCqCoCoqAoKAiKqCAoCAgWQWyBZBLIFkBAQFQQQoIooqIgKAgiCKiqCoCoIKoAQfSqCAoCCoM3g2y1VVgPYzdxH9rLdrSP8o4u93etOTPSnj4t2PBe/4bbRdnkDQDPNJKeYZlib+J9q5bcy0+EOqvDrHjLKR7GYeB/d83e6WY/wDstU8nJ7tscbHHo45tiKB3CJ0Z6slk9xJCscrJHqk8XHPowmI9nehNLPryZMBr/EP6LdTmf5R/ppvw/wDGWn4nhU9K/JURmMn0XcWO+i7gV10yVvG6y5L47UnVodJZsEIQEBUEEKCKKKiICgiAgIKgKioCgqqKgKAEH0BewAuToANST0Qei7J7GNjDaitaHyGxZCdWx97v3nd3ALz8/Jmf008HoYONEfqt4t1XG7BAQEBBw1dLHNG6KZjZGO0LXC4/+HvVraazuEtWLRqXmO1uyjqMmaG8lMTxOroSeAd1HQ+B7/TwciMnafF5ufjzTvHg1hdDmQhAQFQQfJUUQRUFAQRAQVAVFUFCqKEBAUFQb52d4AD+fzNvqRTtPdoZPeB4nouHlZv7I+XdxcP98/DfZHhrS46BoJJ6ALhdzQqPtFOf5an8wnjG7zwPUdD94Xdbh9u0uGvM794bdR47Syxb5k8YZwJe4Rlp6OB4FctsV6zqYdVctLRuJcL9p6Fuhqoj9F2b3K/Qyf4p9fH/AJOSDaGjebNqob9DI1p9qk4bx6SsZsc+sOrje1VNSeaXb6W1xFEQ4/xHg339yzx4L3/DDJyKU/LF7O7Zuq6xtO+FsTXtfks4vdmAzWJ4cA7ktmXjdFOqJa8XJm9+mYbdLE17XMeA5rgWuaRcEHiCuWJ13h1TG+0vINqsENFUmMXMUl3wuOvm82nvHD7jzXrYMv1K79XlZ8X07a9GGW1pQoCAqIUEUUVEQFBEFQFRUBQVVFQFACDs4dSGeeKBuhle1l+gJ1PgLnwUtbprMsqV6rRD2+mgbHGyJgysja1jR0aBYBeLMzM7l7MRERqHHXszQTNuG5o5G3JsBdpFyVazqYS3hLw0cF7TxVsgICAgzuw7L4nTagZd47U2v8m4WHXj71o5M/y5b+NH8yHri8p6rXdu8NE9DI4Dz6f5Zh52Hpj+W/iAujjX6bx+7n5NOqk/s8mXqvLFB8oKqCD5KiioiAoCAgKioAUH0qggKCoNo7OaYPxDOf2MUjx9I2Z7nFc3LtrHp08SN5Hqa8x6bUu0fETFSsgYbGocQ76tti4eJLR6rrq4lN237OXl31XUerzNek80QEBAQfcUrmOa9hLXsIc1w4hw1BUmImNSsTMTuHteE1m/poJ7W3sbHkdCRqPA3XjXr02mHs0t1ViXZewOBaRcOBBHUFYsnhVRDu5JIzxje9h9bSR+C9ys7iJeJManTjREKAqCCFQRFQqgoCAgKiqAER9BUCoAQVBuvZfbyip67plvVm1/BcfN+2HZw/ul6MvPeg0HtSYb0TuVpx4+YV3cOfu+HDzf7floi7nCqAiCAgiK9g2PYW4bSA8483g4kj3ryc/mWetg8urMrS3PE8et5bWW4eUT/G5ezi+yv4eNk++35l0FsYBUEQFRCgiioqCgICAFRVBQiKFQKgBBVRtXZxUZK8sP7WKRo+kCHe5rly8uu6bdXEnV9PUV5j0mt7e4aZ6IuYLvgcJQBxLQCHD7jf8AhXRxr9N+/q5+TTqp29HlS9R5aoioCCIOajpXzyxwxi75HBrfHme4C58Fja0ViZllWs2mIh7bSwCKOOJvoxsaxvqaLD3Lxpnc7e1WNRpyOcACToACSegUV4VVTbySSX/mPe/+Yk/ivbrGoiHiWnczLiWSBUEQFRCgiioqCAoCAFRUAKI+gqBUAIKqO1hlYaeeGdupie11uo5jxFx4rC9eqswypbptFntsMzXsbIw5mvaHtI+c0i4XjTGp1L2YncbhhcO2rgmnNM9ktNNfKGTtazM7924J19/K63WwWrXqjvH7NNeRW1ume0/uxWP7Cslc6WjcIXm5MTr7on/KRq31aj1LZi5U1jVu7Vl4sW717NPr9nKuAOdLA4MaLl7S17QOtwdPFdlc9Ldolx2wXr4wxa2tT6ijc9zWMBc5xDWtGpJPABSZ1G5WI32hnqDYytlIzRiBvN0rgP8AtFz7lotycceu2+vFyW9NN72d2ZhohmbeWZws6VwsbdGj5o9q4cue2T8O7Fgrj/LOLS3tf24xIU9DIAbPn+RYOfnekfBt/Gy38enVeP2aOTfppP7vJV6rykVAqCICohQRRUVBAUBACoqAFB9BVBACgqAqN/7PMfFvIJjYi5p3HmOJj9fEjxHILg5WL++Pl3cXN/ZPwyO3+Db6n8qjHy1PqS30nRX1Hh6Xgeq18XJ026Z8JbOVj6q9UeMOngW3ke6aytzNkaAN61udsg6kDUH2e5Z5OJO908GGLlxrV2O2z2piqoWU9Nny5w+Rzm5A4AGzeN+OvDkFnx8FqW6rNfIz1vXpq09djjPYg9rwSpM1JTSu9KSGNzvpFov7brxslem8w9rHbqpEu6sGb5keGtc5xDWtBLnE2AA1JJSI2TOnkW1mNmtqS9txDHdkIOmnN57z7gF62DF9Ov7vJz5fqW/ZhCtzSioFQRAVEKCKKioKAgICoqAFB9KoICgqAqPpriCCCQQQQQbEEcCDyKkwPSNk9sWzBtPVuDJtA2Q2DJfX+672Hl0XnZ+NNf1V8Ho4OTFv028XertiqKV5flfCXG5ETsrSfokEDwWFeTkrGmduNjtO2p7a7PwUTKcwZyZHSBxe7NwDbcu8rq4+a2SZ25eRhrjiNNVXU5RB7Lst+r6L6iL4QvIzeZb8vXw+XX8MhUVDImOklcI2NF3OcQAAtcRMzqGyZiI3LzPa7aw1V4Ke7KcHUnR0xHUcm9339F6ODj9He3i87PyOv9NfBqq6nKioKCFACAqIVBEVCqCgICAqKgKChVFQFACCqggqgz+C7XVVKAzMJ4hoI5bkgdGu4j2juWjJx6X7+Et+PkXp28Yfe1e0orhAGxGIRZybuDrudbQacNFMGD6e+658/wBTXZry6HOINxoNuTBRw07IA6SJjYw9z/MsBYG1rn1aLktxeq82mezrryumkViO7XcWxmerdmqJC4DVrB5sbfU38eK30x1p9sOe+S1/ulj1sYCCKgoPlBVQQfJUUVEQFAQQIKgrGkkNaCSTYAC5J6AKjv8A5Eq7ZvJKi31Ev9Fr+rT3hn9O/tLpPYWkte0tcOLXAtI9YWcTvwYTGvEBVQQAoKgtkEVFUAIKgIABOgBPcBdB9GN3Nrh/CVNwupcd1UFQUEKAEBUQoIooqIgKCICCoPVNjMJio6IVcwAkkj30krhrHERmDR0FrE9/gvN5GS179MeD0sGOKU6pdKbtHiDiGU0jmX0c57WEjrlsfes44Vtd5YTzK+kNaxfG4avEoamVjhTt3LXMcATuwbuuBxFyfWFvpitTHNY8XPfJW+SLT4Mht5XUMrKcUZifK0nM6EAARW9FxHO9rDlY8LrDi1yRM9Xgz5NscxHT4uSo2SgbhYrhJLvPJo5spdHkzOaCR6N7a9UjkWnL0a9Vnj1+n179HD2ZH8/k+zSfHGrzPsj8seJ9/wAOLtH/AFj/ANGL3uV4nl/KcvzPht+x/wCpovoVPxyLkz+dPw68Hkx8vJw4WGvIL1Xlvom3cg2vs0P5+/7NJ8ca5eZ5fy6uJ5nwvaIwuxEBrS4+TxaNBcfSfyU4sxGPv7nKiZydvZqhFiQRYjiDoQupytk7Pj+kB9VN7gufleX8uji+Z8Ou3bLEND5T/wCKD/Ssv4bF7J/E5Pd3cQc2uw6SudGyOqpZGMldG3KJmOIAJHXzvYeumFd48kU32lnbWTHN9d4aoXDqulyl0EJ66IGYdQqBKCZr8FBCUVMw5FUVQRAQEEdwPqKJL13bLzcHmDOGSBun7udg9y8vB5sbern8qdNZ2N2dpKumL6hzt7vXsDWyhl2gNI08SunkZr0tqvg5sGGl67t4ufF8Agoq7CfJw75WoGbO7P6Lo7W/mKwpmtkpffsyvirS9Ne7M7bVccD8Pnmj3scc0pcwBrs143AaHTQkHwWrj1m3VET6f9tvItFZrM+//TMyYqxlCK3I7d7lkwYMubKQCG8bX1WqKTN+j1bZvEU62r7NYqysxmaeNrmNNIW5X2vcPj6FdObHNMMRPu5sWSL5pmPZmsaGGb7893G+yt/tTZ2TW3hxWnH9XX6N6bsn0t/r1t3aXceRHyTJuMkuTd+h869vG6wt1df6vFnXp6P0+DF9nwH5Kh0+dN8blt5Xmy1cXyo+Wrdl4/PJPszvjjXTzPsj8ubh/fP4bJT/AOIZvsQ+Ji55/p4/Loj+o+HJj+10dFUiB0Dn3axz5A5rbNJPAW861j0Uxcecld7XLyIx21MOt2jYfG+kFWAN5E6PzwNXRvOWx66kH7+qy4l5i/T6MeXSJp1NZ7Ph+kG/VTe4Lp5Xl/Lm4vmfDiGyEwGtTRDqfKT/AKU/ia+0/wCj+Ht7x/ty4lUwUtA7D4Jm1Ms8jZKiWPWNobYhjTz1aPbw4KUi179do1EeC3mtKdFZ3M+LjwnHK5sTIqKEFsYyl0VMZXOPV5sdVb4sczu0/wDKUy5NarH/AA7m0kL5cNirKmn8nqmzmJ53ZhMsZBIcW+A17isMMxGSaVncaZ5omccWtGpfWK4k/DNxS0bY43biOWacxtfJJI699Ty09qtKRl3a3uXv9LVa+znGPzTYVUz2iZPBLGx0giYc7H2HAiwOvHuWP0a1yxX0ll9W1sUz6w6UdSMNoKSWJkbqqt3j97I0P3cTbWDel8zfb3LOYnLkmJntDCJjFSJjxl901ecTpK5lS2N09NCaiGdjAx9m3Lmm3I2H39wWM0+les18J7LF/q0tFvGHzhrnUuFxVdJC2WeWaRssxj3zoGNuA0D5t7A37/UrfV8s1tPYpumOLVjuxOKbSVFTGYagRP1ac+6DJGkHkRwW2mGtJ3VqvmtaNSw62tSICCKiqD1zZ6pixHDBC83O6EE7QfOa4Cwf42Dgf6Ly8tZxZNx8PUxWjLj1Pyw2DbCzU9bDOZonxxPzcHteRYjhawOvVbsnKrekxru04+Lat4nbv7Zf37BftDviiWvB9l/w2Z/vp+XV7U/7Cl+tf8Ky4f3Sw5n2wy1PTmqwSKGIjNJRxsaSbDOGAWJ5aghapnozbn3bYjrw6j2a7sNhstLiksM4AeKVzrNdmFi+O2vgujkXi+KJj3c/HpNMsxPsx/aP+sT9TF73LZxPL+Wvl+Z8Nu2P/U0X0Kn45FyZ/On4deDyY+U7Ong4ZG0HVr5mu7iXF3ucPvV5UfzZTi+VDo7EbMVFHUSSz5Mu6MTcri4uOZpva2g81ZcjPXJWIhhx8FsdpmXbg/xDN9iHxMUn+nj8so/qJ/DobY7K1NXWCaHd5HRsYS55aWkE3JFuGvJZ4M9aU1LDPx7XvuHf7QZmx4bur6yPhjaOZykOJ+5vtWvixvJts5U6x6al2en9ID6mb3BdfK8v5cnF8z4aw3gF0OdTwQbltjVz07qaGkfJBSCCMxGEuja8m9yXDieGnffmuTj1rbc27zv1dmebV1FfDXo4qwTfkK9RvMzqwEGXOXFmTQ6624q16fr/AKfZjbq+h+r3dmdkE+H0VVXxTukLXQtlowHExxkgGS+gPH/egxibVyWrSY+WcxW1K2vE7/ZhMUxeDybyKiifFEXiWV8zgZZXjhcDQAWH3Dhz3Ux26uu89/2ab5K9PRWOzOzYrUswrD5qKxZG18NQN0yUsc2waTcaDQ/zBaIx0nLaLfDfN7RirNflhpNp8QkilaTeNzHNkLadgAY7Q3IbpxW6MGKJj/1pnPkmJ/8AGNw+vqqYZ6d8sLX82g7t5GnAjKTyWy9KW7Wa62vXvVsbqmWrwqsmr2hzoTF5NUOjbG9zibFoIAuOA8e7Tn6YplrFPmHRub4rTf4lpi63IIIqCCqDno6ySF4khkdE8aZmEtNuh6juKlqxaNTC1tNZ3DNDbTELW8o8d1Df4Vp/hsfs3fxOT3YufFaiSZk8kz3ysIcx7jfIQbjKOA15WW2MdYjUR2a5yWmdzPd94jjNTUhraiZ0oYSWghosTpfQKUxUp9sFslr/AHS5cL2gqqVpZTzFjCb5CGvbfqAQbeCl8NL97QtMt6dok/4gq/KHVW+Imczdl4bGPMuDlta1tByT6VOnp12Pq36urfd1q6ulqH72d5kfYNzEAGw4DQd6zrSKxqrC1ptO5dqlx+qiiEEU7mRAOAYAwgBxJPK/ElYWw0tO5juyrlvWNRPZx4Xi9RSkmmlMea2YWa5rrdWkWv3rK+Ot/uhKZLU+2XcqNqq6QtLqlwykEBjWMF+8Aed6jdYRx8cejOeRkn1dYY5VCc1IndvizdmSzLlmhy2tbkFfo06enXZj9W/V1b7uxTbVV0ZcW1LjmJcQ9rJBc8bXGnqGixnj459GUcjJHq6OJYnPVPD6iQyuAs29gGjuA0C2Ux1pGqwwve153aXxQVstPJvYHmN9i3MA06HiNQlqRaNSlbTWdw69lmxEGWw/aSsp4xFDO5rBwaWskDfVcGw7lqtgx2ncw21zXrGolxSYnUVLhFPO9zJZYs2YghpvlDgPm2DjoLBPp1pG6x4J12vOpnxZraHGZ6Gd1DRnySGDLlAa0ulJaCZHOI1uSfuWnFjrkr127zLflyWx26K9oh2NmsWnr5X09aGVNPupDJI6JjTDYaODgBY/75LHNjrjjdO0rhyWyTq3eGr4Xi9RSkmmmdHm9IaOa7vLSLXXTfHW/wB0OemS1Ptl2MR2lrKhhimnLmO4sDY2A89bDVSuClZ3EMrZr2jUy+cN2iq6ZgjgnLGAkhhbG9oJ1NrjRL4aXncwlM16xqJcWKY1U1VvKZnSBpuG+a1oPXKABfvVpjrT7YS+S1/ulj1mwRUEBFERVBUBAVFQFAQW6IKioCAgICAgIJdBCorOwbW1TWNjfuqgNFm+URNlcB6+J8Vpnj0mdx2/DdHIvEa8fy4cR2lqp4zC57Y4jxihY2JrvXzI7r2VpgpWd+v7pbNe0a9GHW5qEBQRBFQQEVEFRBBVBUBAVBBUBQEC6C3RC6BdULqCXRRAQEEVBAUBBEEVBARUQS6C3QVELqBdBboCAgt0C6BdAQEBAQEBAQLoF0EQEC6BdBLoCol0Uugl0HzmUUzIi5kFugXQLoLmUC6ot0QugXQLoGZAzIGZAzIGZAugXQLoF0EzIpdQS6oXQTMgZkEzIJmRdOPMptVzJs0Zk2aXMmzS5k2mjMmzRmQMyC51Ni50DMgZlQzIGZAzIGZAzIGZAzqCZ02GZBMyoZk2aMybNJmTa6MybNJmTZpMybNGZNjgzrDbLRnV2LvE2aXeJs0bxNmjeJs0u8TZo3ibTRnQ0bxDS7xTZo3ibNG8TZo3ibNG8TZo3ibNG8TZo3ibNJvENG8VNG8TZo3ibNG8Ta6TeJs0bxNmk3ibNJnTYZ02aM6mzTiUUQEBUVAQUICAoCIIKEBQEBAQFREBARRUEEQEBBFAQEBB/9k=;" parent="1" vertex="1">
          <mxGeometry x="610" y="334.5" width="72.5" height="72.5" as="geometry" />
        </mxCell>
        <mxCell id="8MI-fdnTwuqkwcKfI6M6-2" value="" style="shape=image;verticalLabelPosition=bottom;labelBackgroundColor=default;verticalAlign=top;aspect=fixed;imageAspect=0;image=https://user-images.githubusercontent.com/17984781/231239788-419ee9b0-0211-40f9-9d0a-d192db6718bd.png;" parent="1" vertex="1">
          <mxGeometry x="469" y="320" width="115" height="115" as="geometry" />
        </mxCell>
        <mxCell id="QvtD-cSKNG_eyLVK3MQW-1" value="Local Laptop" style="rounded=0;whiteSpace=wrap;html=1;strokeWidth=2;dashed=1;verticalAlign=bottom;" vertex="1" parent="1">
          <mxGeometry x="140" y="152.5" width="150" height="270" as="geometry" />
        </mxCell>
        <mxCell id="QvtD-cSKNG_eyLVK3MQW-16" style="rounded=0;orthogonalLoop=1;jettySize=auto;html=1;entryX=0.5;entryY=0;entryDx=0;entryDy=0;edgeStyle=orthogonalEdgeStyle;elbow=vertical;" edge="1" parent="1" source="QvtD-cSKNG_eyLVK3MQW-5" target="8MI-fdnTwuqkwcKfI6M6-1">
          <mxGeometry relative="1" as="geometry">
            <mxPoint x="560" y="300" as="targetPoint" />
          </mxGeometry>
        </mxCell>
        <mxCell id="QvtD-cSKNG_eyLVK3MQW-17" value="&amp;lt;yourusername&amp;gt;&amp;gt;.github.io.&amp;lt;&amp;lt;sitename&amp;gt;&amp;gt;" style="edgeLabel;html=1;align=center;verticalAlign=middle;resizable=0;points=[];" vertex="1" connectable="0" parent="QvtD-cSKNG_eyLVK3MQW-16">
          <mxGeometry x="-0.1771" y="2" relative="1" as="geometry">
            <mxPoint x="-4" y="17" as="offset" />
          </mxGeometry>
        </mxCell>
        <mxCell id="QvtD-cSKNG_eyLVK3MQW-5" value="localhost:1313" style="sketch=0;pointerEvents=1;shadow=0;dashed=0;html=1;strokeColor=none;fillColor=#005F4B;labelPosition=center;verticalLabelPosition=bottom;verticalAlign=top;align=center;outlineConnect=0;shape=mxgraph.veeam2.file_browser;" vertex="1" parent="1">
          <mxGeometry x="160" y="180" width="100" height="90" as="geometry" />
        </mxCell>
        <mxCell id="QvtD-cSKNG_eyLVK3MQW-7" style="edgeStyle=orthogonalEdgeStyle;rounded=0;orthogonalLoop=1;jettySize=auto;html=1;" edge="1" parent="1" source="QvtD-cSKNG_eyLVK3MQW-6" target="QvtD-cSKNG_eyLVK3MQW-5">
          <mxGeometry relative="1" as="geometry" />
        </mxCell>
        <mxCell id="QvtD-cSKNG_eyLVK3MQW-8" value="test" style="edgeLabel;html=1;align=center;verticalAlign=middle;resizable=0;points=[];" vertex="1" connectable="0" parent="QvtD-cSKNG_eyLVK3MQW-7">
          <mxGeometry x="0.0286" y="2" relative="1" as="geometry">
            <mxPoint as="offset" />
          </mxGeometry>
        </mxCell>
        <mxCell id="QvtD-cSKNG_eyLVK3MQW-10" style="edgeStyle=orthogonalEdgeStyle;rounded=0;orthogonalLoop=1;jettySize=auto;html=1;entryX=0;entryY=0.5;entryDx=0;entryDy=0;" edge="1" parent="1" source="QvtD-cSKNG_eyLVK3MQW-6" target="QvtD-cSKNG_eyLVK3MQW-9">
          <mxGeometry relative="1" as="geometry" />
        </mxCell>
        <mxCell id="QvtD-cSKNG_eyLVK3MQW-11" value="git push" style="edgeLabel;html=1;align=center;verticalAlign=middle;resizable=0;points=[];" vertex="1" connectable="0" parent="QvtD-cSKNG_eyLVK3MQW-10">
          <mxGeometry x="-0.0685" relative="1" as="geometry">
            <mxPoint as="offset" />
          </mxGeometry>
        </mxCell>
        <mxCell id="QvtD-cSKNG_eyLVK3MQW-6" value="&lt;div&gt;Content Development&amp;nbsp;&lt;/div&gt;" style="rounded=0;whiteSpace=wrap;html=1;" vertex="1" parent="1">
          <mxGeometry x="155" y="340" width="110" height="60" as="geometry" />
        </mxCell>
        <mxCell id="QvtD-cSKNG_eyLVK3MQW-9" value="" style="shape=image;verticalLabelPosition=bottom;labelBackgroundColor=default;verticalAlign=top;aspect=fixed;imageAspect=0;image=data:image/png,iVBORw0KGgoAAAANSUhEUgAAAuwAAAJiCAYAAACcmpdUAAAMT2lDQ1BJQ0MgUHJvZmlsZQAASImVVwdYU1cbPndkkhAgEIaMsJcgIiOAjBBWANlDEJWQBAgjxoSg4kaLFaxbRHBUtAqiuCogxYVatVIUt3UUBwqVWqzFrfwnBNDSfzz/eZ5zz3vf8533fN93z7n3HgAYnQKZLA/VAiBfWiCPCw1kT05JZZO6AQ3oAn2AA32BUCHjxsREAliG27+XVzcAomqvOqm0/tn/X4u2SKwQAoDEQJwhUgjzIf4eALxFKJMXAECUQd5yVoFMhddDrCuHDkJco8JZatyiwhlqfHnQJiGOB/FjAMg0gUCeBYBmH+TZhcIsqMOA0QIXqUgihTgAYr/8/BkiiBdBbAdt4JwMlT4n4wudrL9pZoxoCgRZI1gdy2AhB0kUsjzBnP8zHf+75Ocph+ewhZWWLQ+LU8UM8/Y4d0aECtMgfiPNiIqGWAcAFJeIBu1VmJWtDEtU26N2QgUP5gywIJ6oyIvnD/FxIkFQBMTGEGdK86Iih2yKMyUhKhuYP7RCUsBPgNgA4hqxIjh+yOakfEbc8Lw3MuU87hDfLZAP+qDS/6TMTeSq9TGdbDF/SB9zLspOSIaYCnFQoSQpCmJNiKMUufERQzZpRdm8qGEbuTJOFYsVxHKxNDRQrY+VZ8pD4obs9+QrhmPHTmZL+FFD+EpBdkKYOlfYY6Fg0H8YC9YnlnITh3XEismRw7GIxEHB6thxsliaGK/mcQNZQWCceizuIMuLGbLHA8V5oSreAuIERWH88NjCArg41fp4iawgJkHtJ16ZIwiPUfuDHwCRgAeCABsoYc0AM0AOkLT3NvbCO3VPCBAAOcgCYuA0xAyPSB7skcJrPCgCv0MkBoqRcYGDvWJQCPmPo1gVJxnh1FcnkDnUp1LJBU8gzgcRIA/eKweVpCMeJIHHkJH8wyMBrEIYQx6sqv5/zw+znxkuZCKHGOXwjGzGsCUxmBhEDCOGEO1xI9wP98Ej4TUAVlecg3sNx/HZnvCE0EF4SLhO6CTcni4plo/ychLohPohQ/nJ+DI/uA3UdMcDcV+oDpVxFm4EnHA3OA8X94czu0OWN+S3KivsUdp/i+CLJzRkR3GhoBR9SgDFbvRITQdN9xEVVa6/zI/a14yRfPNGekbPz/si+yLYRoy2xL7GDmPnsFPYBawFawRs7ATWhLVhx1R4ZMU9Hlxxw7PFDfqTC3VGr5nPT1aVSYVLnUuPywd1X4F4doFqM/JmyObIJVnZBWwu/GKI2Xyp0Hks29XF1Q0A1fdH/Xp7GTv4XUFYbZ+5Jb8C4HtiYGDgh89c+AkADnrCV8LRz5wdB35aNAA4f1SolBeqOVx1IcA3BwPuPkNgCiyBHYzHFXgAHxAAgkE4iAYJIAVMg95nw3UuB7PAPLAYlIAysBpsAJVgG9gBasA+cAg0ghZwCvwILoLL4Dq4A1dPF3gG+sAr8B5BEBJCR5iIIWKGWCOOiCvCQfyQYCQSiUNSkHQkC5EiSmQesgQpQ9Yilch2pBY5iBxFTiEXkA7kNvIA6UH+RN6hGEpDdVET1AYdh3JQLhqBJqBT0Sx0JlqELkVXohVoNboXbUBPoRfR62gn+gztxwCmgbEwc8wJ42A8LBpLxTIxObYAK8XKsWqsHmuGz/kq1on1Ym9xIs7E2bgTXMFheCIuxGfiC/AVeCVegzfgZ/Cr+AO8D/9EoBOMCY4EbwKfMJmQRZhFKCGUE3YRjhDOwr3URXhFJBJZRFuiJ9yLKcQc4lziCuIW4n7iSWIH8RGxn0QiGZIcSb6kaJKAVEAqIW0i7SWdIF0hdZHekDXIZmRXcgg5lSwlF5PLyXvIx8lXyE/J7ylaFGuKNyWaIqLMoayi7KQ0Uy5RuijvqdpUW6ovNYGaQ11MraDWU89S71JfamhoWGh4acRqSDQWaVRoHNA4r/FA4y1Nh+ZA49HSaEraStpu2knabdpLOp1uQw+gp9IL6CvptfTT9Pv0N5pMTWdNvqZIc6FmlWaD5hXN5wwKw5rBZUxjFDHKGYcZlxi9WhQtGy2elkBrgVaV1lGtm1r92kzt8drR2vnaK7T3aF/Q7tYh6djoBOuIdJbq7NA5rfOIiTEtmTymkLmEuZN5ltmlS9S11eXr5uiW6e7Tbdft09PRc9NL0putV6V3TK+ThbFsWHxWHmsV6xDrBuudvok+V1+sv1y/Xv+K/muDMQYBBmKDUoP9BtcN3hmyDYMNcw3XGDYa3jPCjRyMYo1mGW01OmvUO0Z3jM8Y4ZjSMYfG/GKMGjsYxxnPNd5h3Gbcb2JqEmoiM9lkctqk15RlGmCaY7re9LhpjxnTzM9MYrbe7ITZb2w9Npedx65gn2H3mRubh5krzbebt5u/t7C1SLQotthvcc+SasmxzLRcb9lq2WdlZjXJap5VndUv1hRrjnW29Ubrc9avbWxtkm2W2TTadNsa2PJti2zrbO/a0e387WbaVdtdsyfac+xz7bfYX3ZAHdwdsh2qHC45oo4ejhLHLY4dYwljvcZKx1aPvelEc+I6FTrVOT1wZjlHOhc7Nzo/H2c1LnXcmnHnxn1ycXfJc9npcme8zvjw8cXjm8f/6ergKnStcr02gT4hZMLCCU0TXrg5uondtrrdcme6T3Jf5t7q/tHD00PuUe/R42nlme652fMmR5cTw1nBOe9F8Ar0WujV4vXW28O7wPuQ9x8+Tj65Pnt8uifaThRP3Dnxka+Fr8B3u2+nH9sv3e9bv05/c3+Bf7X/wwDLAFHAroCnXHtuDncv93mgS6A88Ejga543bz7vZBAWFBpUGtQerBOcGFwZfD/EIiQrpC6kL9Q9dG7oyTBCWETYmrCbfBO+kF/L7wv3DJ8ffiaCFhEfURnxMNIhUh7ZPAmdFD5p3aS7UdZR0qjGaBDNj14XfS/GNmZmzA+xxNiY2KrYJ3Hj4+bFnYtnxk+P3xP/KiEwYVXCnUS7RGViaxIjKS2pNul1clDy2uTOyeMmz598McUoRZLSlEpKTUrdldo/JXjKhildae5pJWk3ptpOnT31wjSjaXnTjk1nTBdMP5xOSE9O35P+QRAtqBb0Z/AzNmf0CXnCjcJnogDRelGP2Fe8Vvw00zdzbWZ3lm/WuqyebP/s8uxeCU9SKXmRE5azLed1bnTu7tyBvOS8/fnk/PT8o1Idaa70zAzTGbNndMgcZSWyzpneMzfM7JNHyHcpEMVURVOBLvzRb1PaKb9SPij0K6wqfDMradbh2dqzpbPb5jjMWT7naVFI0Xdz8bnCua3zzOctnvdgPnf+9gXIgowFrQstFy5d2LUodFHNYuri3MU/F7sUry3+a0nykualJksXLX30VehXdSWaJfKSm8t8lm37Gv9a8nX78gnLNy3/VCoq/anMpay87MMK4Yqfvhn/TcU3AyszV7av8li1dTVxtXT1jTX+a2rWaq8tWvto3aR1DevZ60vX/7Vh+oYL5W7l2zZSNyo3dlZEVjRtstq0etOHyuzK61WBVfs3G29evvn1FtGWK1sDttZvM9lWtu3dt5Jvb20P3d5QbVNdvoO4o3DHk51JO899x/mudpfRrrJdH3dLd3fWxNWcqfWsrd1jvGdVHVqnrOvZm7b38r6gfU31TvXb97P2lx0AB5QHfjuYfvDGoYhDrYc5h+u/t/5+8xHmkdIGpGFOQ19jdmNnU0pTx9Hwo63NPs1HfnD+YXeLeUvVMb1jq45Tjy89PnCi6ET/SdnJ3lNZpx61Tm+9c3ry6WtnYs+0n404e/7HkB9Pn+OeO3He93zLBe8LR3/i/NR40eNiQ5t725Gf3X8+0u7R3nDJ81LTZa/LzR0TO45f8b9y6mrQ1R+v8a9dvB51veNG4o1bN9Nudt4S3eq+nXf7xS+Fv7y/s+gu4W7pPa175feN71f/av/r/k6PzmMPgh60PYx/eOeR8NGzx4rHH7qWPqE/KX9q9rS227W7pSek5/JvU37reiZ79r635Hft3zc/t3v+/R8Bf7T1Te7reiF/MfDnipeGL3f/5fZXa39M//1X+a/evy59Y/im5i3n7bl3ye+evp/1gfSh4qP9x+ZPEZ/uDuQPDMgEcsHgrwAGVEebTAD+3A0APQUAJjw3Uqeoz4eDBVGfaQcR+E9YfYYcLB4A1MN/+the+HdzE4ADOwGwgfqMNABi6AAkeAF0woSROnyWGzx3qgoRng2+jfqYkZ8B/k1Rn0m/8Ht0C1SqbmB0+y+dUoMC1y9QHQAAAIplWElmTU0AKgAAAAgABAEaAAUAAAABAAAAPgEbAAUAAAABAAAARgEoAAMAAAABAAIAAIdpAAQAAAABAAAATgAAAAAAAACQAAAAAQAAAJAAAAABAAOShgAHAAAAEgAAAHigAgAEAAAAAQAAAuygAwAEAAAAAQAAAmIAAAAAQVNDSUkAAABTY3JlZW5zaG90NI44UAAAAAlwSFlzAAAWJQAAFiUBSVIk8AAAAdZpVFh0WE1MOmNvbS5hZG9iZS54bXAAAAAAADx4OnhtcG1ldGEgeG1sbnM6eD0iYWRvYmU6bnM6bWV0YS8iIHg6eG1wdGs9IlhNUCBDb3JlIDYuMC4wIj4KICAgPHJkZjpSREYgeG1sbnM6cmRmPSJodHRwOi8vd3d3LnczLm9yZy8xOTk5LzAyLzIyLXJkZi1zeW50YXgtbnMjIj4KICAgICAgPHJkZjpEZXNjcmlwdGlvbiByZGY6YWJvdXQ9IiIKICAgICAgICAgICAgeG1sbnM6ZXhpZj0iaHR0cDovL25zLmFkb2JlLmNvbS9leGlmLzEuMC8iPgogICAgICAgICA8ZXhpZjpQaXhlbFlEaW1lbnNpb24+NjEwPC9leGlmOlBpeGVsWURpbWVuc2lvbj4KICAgICAgICAgPGV4aWY6UGl4ZWxYRGltZW5zaW9uPjc0ODwvZXhpZjpQaXhlbFhEaW1lbnNpb24+CiAgICAgICAgIDxleGlmOlVzZXJDb21tZW50PlNjcmVlbnNob3Q8L2V4aWY6VXNlckNvbW1lbnQ+CiAgICAgIDwvcmRmOkRlc2NyaXB0aW9uPgogICA8L3JkZjpSREY+CjwveDp4bXBtZXRhPgpQGYrfAAAAHGlET1QAAAACAAAAAAAAATEAAAAoAAABMQAAATEAAIgEH6lKVgAAQABJREFUeAHsvfdi3EbS9Q2LQcwUlbPj2puf92b2up67ev7/NnntdZJk5UAxR8nf+VWhZ0CakhmG4szgQGo2gAEwwGlM46D6VNVHf/vf//ul8mQEjIARMAJGwAgYASNgBIxAXyLwkQl7X7aLT8oIGAEjYASMgBEwAkbACAQCJuy+EYyAETACRsAIGAEjYASMQB8jYMLex43jUzMCRsAIGAEjYASMgBEwAibsvgeMgBEwAkbACBgBI2AEjEAfI2DC3seN41MzAkbACBgBI2AEjIARMAIm7L4HjIARMAJGwAgYASNgBIxAHyNgwt7HjeNTMwJGwAgYASNgBIyAETACJuy+B4yAETACRsAIGAEjYASMQB8jYMLex43jUzMCRsAIGAEjYASMgBEwAibsvgeMgBEwAkbACBgBI2AEjEAfI2DC3seN41MzAkbACBgBI2AEjIARMAIm7L4HjIARMAJGwAgYASNgBIxAHyNgwt7HjeNTMwJGwAgYASNgBIyAETACJuy+B4yAETACRsAIGAEjYASMQB8jYMLex43jUzMCRsAIGAEjYASMgBEwAibsvgeMgBEwAkbACBgBI2AEjEAfI2DC3seN41MzAkbACBgBI2AEjIARMAIm7L4HjIARMAJGwAgYASNgBIxAHyNgwt7HjeNTMwJGwAgYASNgBIyAETACJuy+B4yAETACRsAIGAEjYASMQB8jYMLex43jUzMCRsAIGAEjYASMgBEwAibsvgeMgBEwAkbACBgBI2AEjEAfI2DC3seN41MzAkbACBgBI2AEjIARMAIm7L4HjIARMAJGwAgYASNgBIxAHyNgwt7HjeNTMwJGwAgYASNgBIyAETACJuy+B4yAETACRsAIGAEjYASMQB8jYMLex43jUzMCRsAIGAEjYASMgBEwAibsvgeMgBEwAkbACBgBI2AEjEAfI2DC3seN41MzAkbACBgBI2AEjIARMAIm7L4HjIARMAJGwAgYASNgBIxAHyNgwt7HjeNTMwJGwAgYASNgBIyAETACJuy+B4yAETACRsAIGAEjYASMQB8jYMLex43jUzMCRsAIGAEjYASMgBEwAibsvgeMgBEwAkbACBgBI2AEjEAfI2DC3seN41MzAkbACBgBI2AEjIARMAIm7L4HjIARMAJGwAgYASNgBIxAHyNgwt7HjeNTMwJGwAgYASNgBIyAETACJuy+B4yAETACRsAIGAEjYASMQB8jYMLex43jUzMCRsAIGAEjYASMgBEwAibsvgeMgBEwAkbACBgBI2AEjEAfI2DC3seN41MzAkbACBgBI2AEjIARMAIm7L4HjIARMAJGwAgYASNgBIxAHyNgwt7HjeNTMwJGwAgYASNgBIyAETACJuy+B4yAETACRsAIGAEjYASMQB8jYMLex43jUzMCRsAIGAEjYASMgBEwAibsvgeMgBEwAkbACBgBI2AEjEAfI2DC3seN41MzAkbACBgBI2AEjIARMAIm7L4HjIARMAJGwAgYASNgBIxAHyNgwt7HjeNTMwJGwAgYASNgBIyAETACJuy+B4yAETACRsAIGAEjYASMQB8jYMLex43jUzMCRsAIGAEjYASMgBEwAibsvgeMgBEwAkbACBgBI2AEjEAfI2DC3seN41MzAkbACBgBI2AEjIARMAIm7L4HjIARMAJGwAgYASNgBIxAHyNgwt7HjeNTMwJGwAgYASNgBIyAETACJuy+B4yAETACRsAIGAEjYASMQB8jYMLex43jUzMCRsAIGAEjYASMgBEwAibsvgeMgBEwAkbACBgBI2AEjEAfI2DC3seN41MzAkbACBgBI2AEjIARMAIm7L4HjIARMAJGwAgYASNgBIxAHyNgwt7HjeNTMwJGwAgYASNgBIyAETACJuy+B4yAETACRsAIGAEjYASMQB8jYMLex43jUzMCRsAIGAEjYASMgBEwAibsvgeMgBEwAkbACBgBI2AEjEAfI2DC3seN41MzAkbACBgBI2AEjIARMAIm7L4HjIARMAJGwAgYASNgBIxAHyNgwt7HjeNTMwJGwAgYASNgBIyAETACJuy+B4yAETACRsAIGAEjYASMQB8jYMLex43jUzMCRsAIGAEjYASMgBEwAibsvgeMgBEwAkbACBgBI2AEjEAfI2DC3seN41MzAkbACBgBI2AEjIARMAIm7L4HjIARMAJGwAgYASNgBIxAHyNgwt7HjeNTMwJGwAgYASNgBIyAETACJuy+B4yAETACRsAIGAEjYASMQB8jYMLex43jUzMCRqD/Efjlt07xNzf4rQM0Pv+oO9+YjZV7vmbPQnefE83t+8J9iyc6tHc2AkbACBiB9yNgwv5+fPypETACRiAQCA6sP10u3JjrzjY+fwdwe47xjm20OgjxAayYVR/t+bD75b/Us901+45/2O9+x/eWo+X3d5ZippzSAbuWDV0bASNgBIzAMREwYT8mcN7NCBiB9iAQBLgmu7/UrLhJinPVL0HWC2l+FzrNY7FN8zgsQ3gL6d1LjJOof6RPY5uyUeMY5bs5x/3H5didzxv7sJ6pHG7/sfPT8t25ZfO8OvtpZczrT1lX9nVtBIyAETACJ0PAhP1k+HlvI2AEWoAARBcCHES4nueygxaXz+LzXMvfMrFfkz3nccrxylbdGjIM4S1155NYL1Ks+lx8zlbdiXOJ8yznU9h5d5P8XMvlHBof7SHbe767/pp4UYhzqAl5zOeH/I199KfMN4/teSNgBIyAETgZAibsJ8PPexsBIzAACOwnzZxyrItz7851LyWJ8R7yWW9GBTmtaWuH6Hb3rcmrPsntmp/kfOcb42Ddz/eQYn3HR/UBytfl+XxUneOz+FeuIy3qSdh/qd7qkAfw9c4LR/fzzpl0TiK+q16KT+tN8huaH9Tf3fm8HCJXxLloVZ5HvVHZJOr8pub3ldW/WrdnPy8YASNgBNqHgAl7+9rcV2wEWoNAIa3QxaaUpawHiCCi+/gkRHlErBhinHXOn4t1jfUydZ/rbKv1Wi7bl5rPYfWQ0OTf9cuAFnJdLnMufM721HwadXO+3qZ8xj5M5fS5xrdaKHV+2v1bRgiSsNcWefYHkPwf87FYH+tt1Dqudnqrg79hmVqFz7Kuoma+WbQYy3H87mkEGFxDmfJ6cwnsyyes92QEjIARMALqNv/2v/+nLtWTETACRmC4EKBjE5/kb9TM7yeq8WluxGxngpiPUkY+qsbEwqlZHqMe0XL5rCyzndbn5zk/Wu8HcQ8SCvEWA9VikPIO+Y/Pu0S9Q9jrbQuBLes5yeCxNbFtvnBwuZDouNYDrgsCXcj8L0G4G8vaPsh5rO8S710tv3nzS7WrsvPmbZZdaq0Ti8/1v1TbWheFbXa1bf0Z+0Pw909cFxN/mQ1sOvP5Saxn1pMRMAJGoOUImLC3/Abw5RuBYUUAvgpN7BBULaS1mPU1ia8/308nIeTjIuDjoyoi41Fr/nxdcrmxfqz+bGwktinbj2l7iDuWdwg3JH1E9YiOOaKVkPmwxKvW/842ENVC0GM/rSjr3tde5VrzOvdfFddf46E3l9wWYl7jAjFX2dWKUkPKIemQ8i0R8q2dNypvq03VkHPWRa3lDdZvq96uP9c+hcBD2ptTkvS0pHNdzJXrz+tMAp/bNff0vBEwAkagnQiYsLez3X3VRmCgEAi61+B8OdtYoauB9AX5K2SXdVqRhDAW4ppZZiqW6842EEe212dhWYew15bz8dGanBcSzzIWdQh9XSDzbEcd1va6xiIPGeXYQdi1UIg6pL1D5uPz7jkXwh77sb/+cZz3TUHI9TIS9bss7PqQj8rLy6+s6iLab7COazuIerGsdwh6Tdq3ReSDkEPaNb9ZE/XNIPRpid/W/oXw01q8JMSLlBZivl7HNXVOl23q5bIN59jZLz5ljzJlm5UlGvA3YOps6hkjYASMwKAgYMI+KC3l8zQCLUQA4gY/i1p/g7TVODDfnCCzEGGs41HXZLuQ77IOizcW7qa0pWntLtuVYxX5S9ZdOUx3fUpmOnIZjh3nkOvTQr6XiL9LDgPR3PMCAU2HgNYvEsy/byr4FGK8f1uocIf4aia3rwm+CDpEv2jUi049NOnasBD3XRH0phwmiT2kPS3qIYfBKg/hV0lrfdZxrFiXVvuyb0huagkN2xSSX+o4Rn0sVXumgklix0c1gQe3PVt6wQgYASMwuAiYsA9u2/nMjcDQI5CEsmmNhbwXollffk3gINhjxfIt0jyBPEVSlYko9fwodc6Ph4xlpKLGSp4a9LSacyz9V8k6l+t18Vl3Xl8VlnO23bNffYxCtmGPUEkIZoeUl2VdShLP/Jwry2X2yYWomf+NKeCAjL9jOzBlKtZrNmRVIfkFX4gx60oNacbSLS4emvS00NfLsX4vKWe/3CYdT3eC6NeWd6zyssRv7UpaQx3lTbWp5SK5wVJf5nlBwIrPywDnEVMNCFVgugfLJO0Fw9zBf42AETACg4uACfvgtp3P3AgMPQKQy5BD6Eo786yrSXsHAK3Dkg45D5256unzoyoj1UxdszxVz1NPjo9oeUR1zhcCD8mHeDMl7YuZJM6xtpDoeiE/7mzUJNbN+T0HaB7noA/KoRsHaMyWTw+sazp74GfvZPGx9QEkXwfbfzzaIafG9o3t4uN6m7IFJDtIeU3QN0Lrvlutb6F5f6N6t1rTfNY5v1qvW1Od+6KNT8t8EzJI+TmtiFp/qMGqSIrK2bo2AkbACAwyAibsg9x6PncjMKAI7CV1XISoXU3yyiUVAgZ5LiUs3g0HzlzW52Jo6MmbTqFByEXKJ8fPVVOqJ5iXdX2iJuhpfWeZ/UY6enQs7YWwl3NxfTIEIOzIW9C8Y2nHsl4075BxSPvm9q4cV6lF3IPQv63rroMrTq7sL4N718qvY4clv3ae5btKiZe9A+6rxqtYsHsIvicjYASMQD8jYMLez63jczMCQ4gAxLxwqCLLaK4rlwyJCou5LN4TIWVJQl4kLCFjEUnf4/zZcQotzqDdSC6dqC/IX2oJTJHCjEpKE2EYeTkQ++dFwFPvEIA4p04dXbus5IR9LAQ+pC5J5ktUmY4zq7brzqOT75L+lMg09kNCw8uA6q60hrGYvRMtW6zwSJOYyrpY8B8jYASMQB8iYMLeh43iUzICw4oA5Cks6frDvIyhscwS880JVQpyltkJyVomRqNMh4wlpS6TtawFyzklorUQuSVKEu+wzIuUFQt9sy4hFkvkFr4PAmcpRbMVejNPm6e1O9sZC/j+JEzFKt6pIflYyyPSTE3wa8KOFT5DSEpS05TTaP3q5m6UlU3N67OD7iukTnD1aHMuUQss678nI2AEjEBfImDC3pfN4pMyAsOJAJwc8lYcHCFTIWeo1zWvGiK9MDVWLUzXRfPzlMmxam5qtJpTPS0in2UsHExLsiIiwJh8NdEc3HnuGWLDR4hJWeexoK9t7qhI666yvLFTLa/vVkuql9Z3qkXKWl00vz9pU76UpcY9X9LyRc2EfXDvEZ+5EWgDAibsbWhlX6MROGUEIFVFexDzWoCYMyURKhbNtHbjINq0dnfn65CLYlJsMysrOtb1YmUvjqTpQJqW9bSwj0aW0TxOatBN2BP/Qf/LbZRW90zoRMQY9O7Fyo7jKo6pOK1SY2EP6zq1lpPop6We+PIdCz7W+7qwDfNF886IT7mnuX+xvXfuJ8105gcdXJ+/ETACA4OACfvANJVP1Aj0JwKF2FAfpEnHipmWTJINZbjFEmoRst1x/pRWfVxa9dSoa7105t3t0LFLw16HZEznUhxFCeWYevVIQsR36cusQe/Pe+W4ZxWjMEGoIe9dHTthHnFgLdp1MrFuSsdeHFojNKSWt+voNNSZ2KkOH4m0hn3Qvasmlnw3lGWebZBz/aGOcJysrpdzC/81AkbACJw+Aibsp4+xv8EIDDUCIXHRFXZkLvW8+FWQHMg6lm9INBFZZsNijtU8redhQZ9kfiyiuRRtOlFeIgGR5C2ZiKgkJOpa54Oc69h6D0gyFUQqrflDDXrLLi7vsRy14T4Tr84oMbWFvGMpr5cjYRMyGi1nCMnUuhN9ZlVympWNtMSnNR6LfBaIfkq08juAWbdU3LvUMVqkP2Wezz0ZASNgBD4EAibsHwJlf4cRGEIEimWdS0vres5155PgdMi2WPW0QirOS39+QVp0Cpr0C9KohzZ9ajwdSyWDQZdOrHRPRuCkCERsdxHyIpdZWt8Orftr6dzRvL+uy5J08GuS2nSys4rsd2Rd9UkkUedvEnlb2mtgXBkBI3DqCJiwnzrE/gIjMPgI7CXntaVTlwWh6ejPxWOQpUS20UbYRCQvRHAh1jmJikoyoxlFf+lo0kXQmceqTobSlMqMDD5wvoIzRyBkMrX0BWt76N2DwBfNe0aTKYmbOvKaIqWpQ0USXjKlOV1H6bC46wqzTiJvEn/mTe4TMAJDiYAJ+1A2qy/KCPQWgZQk7JW9FAe9IOOynkctsj0DKUfuEpbyzCTazSiaOnT06BljPbXqJcsoxxjTsdClE+nFkxE4KQJEmCHZEs6qkG4079udmO21fj1IOVlXlawpHFgzCythIVcln0Eyg5QGMl+cWDkeRB2pF3dqkHb9gbYz78kIGAEj0EsETNh7iaaPZQSGEIEicSkOpfL5k4Y4I2pINZC6c1nRySYKSV+YGasuTo9XF1XPS+YyW+vTZxSGEZKORR6ZDFFgIDvFQl+cRYMA1dlMhxBOX9IHRmCvVbyO/15r3fmsEHB08DifEiZyRTIZ6sW17erlisoqZUtkvk7OFMT/re7fJOwjuo81uFST9fShMGf/wA3trzMCQ46ACfuQN7AvzwgcBYGQvrBDZ0bzYh6QjxIho3xU6rCoY02XZR1H0suz49WlGZXZ8xFDfVZEvRQs6FgfsUPaCgnQns4agRw9SpkXFvRlyLoKWvdXIurPV7aqFyLtz5e3IhETjqkbiiizIXLPVIg5NS+1TPG3/EDqDcp2sYH/GAEjYASOiIAJ+xEB8+ZGYBgRSNLClXUd7QrfwBoecheR7ZCs1DXzFJxDsa5TIO0kNMKqPodlXZ+VqC9sh1U96LoqE5hhvJMG75q4z5Nnk031l5DEIIshvvsKyZgkicE5lcRMrCP8Y0SeEWHfJhSkSD4F2c12yG8kvVGNxb7c47zsMsVf/SnrY6X/GAEjYAQOgYAJ+yFA8iZGYNgRgLCEJl0XmuRdK/J/OIGmo6gkL2jTOyUzjeIoOintejiMKmwj8+E4KvkLcdNLnHRqpAOFrZi0DPtdNRjXB2GPSTOQ7IjZXpPwiM8uR9WwqFPX8yRtQu+Orj1CQ4rMUxM2ElJPjbW+jCSV276MUnl0qYDu2ggYgcMiYMJ+WKS8nREYUgQgLAzli6s06uDrsUz0losKvbhAURjGi5K8XJTk5eKMJC+qIecl+REJjdCip6Y39emQk9Cla8ZEZUhvoiG5rPLimrr3brz3EuediDOduO4i5UhmXknbjs6dOqzxtUUe0s59X+5/al5SIe1o3z0ZASNgBI6CgAn7UdDytkZgwBEIa2L8yQthNklEnRxGC+n0maQC8o0uPcg6jqQi7UnWk7QviLQXaUzIZRzZZcDvEJ/++xCIKDMi7SUzahB2adyDtIu8E8sd6cxrYrpLVvNWb8G8CEP4978U5ysxNnhNNYGvq/edgj8zAkagpQiYsLe04X3Z7UKgEHXRBhGHvPayDlKOZTyt5IRbzDjopUYCM6eCLr2TpbREftF6wi8SipGaiC+ejMCwIkBEmR3p04tmPTOlkjm1zp5KGEhJYlhPXPcNtPCytG/U2veI8V7LbSDyzXCQYMavB0u8JyNgBIzAfgRM2Pcj4mUjMIQIFF06JKHMF406TqVNMo7TKJlH5+pMpCWhEU6l6NQh9mjTk+SP1BIYkQ8dB+u8JyMwrAhgMS/yGOog4GFxl2ZdTqho3UPfrnks7Iuyur9WaEjCQy7L6h5x3WtCH4RdP5cikUmynhZ3/4yG9Q7ydRmB4yNgwn587LynERgYBMKhVGQdklDmNRvD9EhZIgwjoRhVCMt4Ze68ykR1ef58RH8pcpcxWdGTmHclNEnRrU8fmJvBJ3psBPjN5ItujlQVzXuRu3Ss77LCQ9ifvN6sniyqvN6oXigs5KJI+6Iiziyu7VS7+jESNImXXEamIOkMUEHZTdiP3UTe0QgMLQIm7EPbtL6wNiJQCAXXHvO1BKZJspnPxEVkE/0oJDChTa+THUXSIxxLFUcdAo81ne1HRNapPRkBI3AwApDwNyLr1IR/fLa0GfHbny/JMVVOqWjbX4uwU5NxFSv9W8lsohb712K8UGPJT9IOfa+nIPNlwbURMAJtQ8CEvW0t7usdWgRS6pKXVyx+kHbmi0adGm36tLTnSF2oD9aoj2X4RmnVxztW9bQEDi2AvjAjcEIEOsRbhJtY7MRvL4mYlhU9ZkXa9tS9p1MqISCxxBP3HUlNU+NeQkCG1b02uUPebX0/YSN5dyMwoAiYsA9ow/m0jUATgWJZL06lHUtdbbEjgdHMRGYixXEUyzkWdCK+oFePWOp1PHUI/Tg6dZH7cc3HcL2+rEkcmt/teSNgBBKB5ovym7ci4IrVjqW9RJXB+TScUOWICpknukyGhtzu6NvXcFitQ0Lym4uoTVjXw8Ief7pWdwNvBIxAaxAwYW9NU/tChxmBYl0vhAGdugx81RvVDK8TljFlLxmW8ebCZHVD5ebFySDtaNORx1CX5EYxGJ/8YJih87UZgVNBIF+ieYVmlKskZSLCjLKjypr+Ug6pjxY3ojxW/Uq69iKXgcwjXeO3qJ9kg7SnRMZW9lNpMh/UCPQ1Aibsfd08Pjkj8G4EmiS9DJ+HFU5/Cvkmuygk/MLUqMpYp1wOp9LzcjA9H9FgsKKX4kgv78bcnxiB4yLAS/SO9Oq7aNxruQyOqM8Vx52apEvLCg+Z9W69XYaRJJxkxnRH554Or/Fbt4PqcZvD+xmBgUPAhH3gmswnbATSobRY0yHuPLw7jqQi3+jSCdVIiEZKJ2wj6+Kzep0+I1xjOqVmWEaO5ckIGIHeIsDvFY17KUhjiN8e2nbVaNu7MdxrvbtI/OrmTrW2qbCRxG8X0ScGPMcoUhlq/2Z721Y+mhHoRwRM2PuxVXxORuA3EICkh+yFWg9vrOOEXgzduWpCM16dn6iuKSwj9fT5ERFzHE1Vq4yPZhx1tOokPIKj89Avlvrf+Hp/bASMwBER0E81HMDLbxdr+7b07ZE9VSR8gwRLdYHMY3UvFvhXssKvSw+Ptp3PCB8ZI2L60fKibsJ+xMbw5kZgABEwYR/ARvMpGwEe+kWfrud+ZBoNx1E5iU6On6vQqN+9PFXdvaSiekJW9Mhcqs9JfOTJCBiB/kIgiLsIfEnG9PDVRkX5+eV6xHNflgUeazw1EWUg7BFuVbX+ezICRmDIETBhH/IG9uUNNgJY5eqA6qWKFcWijqUcyzpkHet5hGpUjTb9KtZ1JT+iZptS0LR7MgJGoL8QQNeO1X2nlr6EhR19u8qrFWVKDcKeEpo1RZsp21EjkSl9Rc6lcypDZ+by/dXOPhsjcFwETNiPi5z3MwKnjABWdCYq9K9lYg7pC9p0QjLO1Vr10KmjWZdGfS7Wdz8bUQSY0XMZCQay78kIGIH+QqBo26l3FRJytY7bjs6d+O0rxHSvHVPDOVXJl5bQwGv9pkg7HQVkvXQVIXGzU2p/NbLPxgicAAET9hOA512NwGkiwIMXcg5ZL/P5fb9Ihz5aXVOkl2u1Tr3EU78wpbjqCuEYsdQbVnUe3sVJDZ26JyNgBPoLAX7jJQIMv3kcTIsVHQkMxDycVFW/Wtuunih76tPXm6o3w1mVfcT165f7lMnwW/f7eX+1s8/GCBwXARP24yLn/YzAKSAAQY+pM1NWaGi71qrCt+cmxqpbFydUJqvb0qsTphGyfkFk/cL0eOhbu3t6zggYgUFGAKv7Kpb2uhDD/cFL6dvRuKsQvz0t8xmFJkfkalkMF16/o/tVfZDvAp972xEwYW/7HeDr7xsEOhY2nRHzY8hYpDenLjp1QjBOyro+LxkMOnWiwVypY6kTynFahaymhGn0ZASMwHAggOWdLKkb27vVumqI+3Pp2tG3U5NoaX1LGVJV+DxCQEomQzSZ7d1fMgKUoHAIyOG4H3wV7UTAhL2d7e6r7kMEIkyjpKhlWDyivijiy6Qiu0DGF2Q5X5gZj8ykaNdn0arXMdYh8ueJACMZDFFgLHvpwwb2KRmBYyLAC3xkSIWEq2wqmkzo2qVtJ347hH1RVnekMtR8hmPqKiReMdyLJA5/c0i7JyNgBAYPARP2wWszn/GQItAc0kaLGs6kIuU4ky5I6kKoxht1gbxjdS9x18lsyoMYh1Ks634kD+lN4stqLQLkW+iEctU82U93on4bhP3J4kaEf3z8eqNCMrO4JhKv8kqFAbdmGMjWgugLNwIDjIAJ+wA3nk99sBEImXr8aVyHHqysgnxfkBUdon5harS6JMv6rYtT1U1p1m+JtM9Lr66gL7Gdh7kb+HnWCLQQASQyj0XYH8sJlfo5SZdE2iHuL1Z2YtQudHbC5oAup4WI+ZKNwOAhYMI+eG3mMx5gBApJz4dmI/qLVpDcKDTq1IqlDmHHiXQh6vHqkvTql2bOVxelWSfmeokAQW2L+gDfFD51I3BCBMiQ+mp1K2UxYV1HHoOFPS3tRduOvp1Mqfun6D/0x/3IfmS8bAT6BwET9v5pC59JCxBAiwpZj1CNUee8pOvVRclcsKRfmhkLnTrRXgppR6seSZEkkaFGDoMUFapO7ckIGIH2IoCuPUi5yDjOp8RrR9deykuR+RfL23JQVRImEfr9U3npd1+yHxkvG4H+QcCEvX/awmcy5AgkUa/JuhYg6SV2Mo6mty5MVLcvTVZ3iuwl5DDEVR8Pp1M0qKWE45gtYkN+x/jyjMDhEKD/CI07OncVrOjIZDL50k71s0JA3n+5Xt17sVE9VBjI/VO8/OtP1Ps/9LIRMAJ9gYAJe180g09iWBGApGNSj1qzHWO4ZsIJTGEbRkXECd94c0GEnSLCflPkfZYIMESDUU3EGE9GwAgYgcMgsKUoMiF/IcyjQkE+fLUZ8dofiLQ/XNzsJGTCMo/z6p4RP31B9FM2CBwGam9jBD4YAibsHwxqf1EbEZCxKx+GqrFeFQs5NdIWIsBAyIkI04yrjjQmwzpm3HUkMJ6MgBEwAodBgPjrZEeFuBMO8iUx28MBFSfU7ciauiwLPJKZNYWAZPsdEffdt29lqc++qvjIHOb7vI0RMAKnj4AJ++lj7G9oKQLo1WOouq6RsUC8SyIkSPk1WdKvzVPOZ0z1OowjyY/GYltZ4FVjhfdkBIyAETgMAshiIkysiDgW9DVZ2YnHTlx24rY/VTSZp0sqqiHzGyL2myL4xHff1b70VXQ5jkB1GLS9jRH4MAiYsH8YnP0tLUQAwk7c5PLwHFEcxkklNZpQMqQJJTkiPOMnV6eqT69OV59cmY51EPok9XIqFWZY5fljut7CG8iXbAROgAD9j8Quocfr9kNVWNN/er5W/fRMRfWjV+si8ZD5JPTbksl0RgLpe9z5nKAVvKsR6B0CJuy9w9JHMgKSv+RDkpoHXVqqMpnRhMg6GUvJUEp9Xdb1W9Kro1m/dWkqLO+jIvXlYWk4jYARMAK9QEDdUfRN9E4YEHA8zbIeVvaldUWVkUTmtSQyhIgMI4M6MRxZS1+G2cDkvRet4WMYgeMhYMJ+PNy8lxE4EIGOBIZhZY0pT8qSjkWdGq06iZAuSgpDplJqCvHVqSHrMQytPxB9T0bACBiBXiAAYa+N7eFTQ2hH4rZnzXy3QNyJMlNitkPa6cuib3K/1Ivm8DGMwLEQMGE/FmzeyQj8GgEeikX+IumoIr98pIyko9UFEfV5FYj51bnz1VVp1ilY2XEsJUkSddGL2pL1a2y9xggYgZMhEKRdhyAiDFb0Ugj9+Hx5M7KjEqf9pcqiki5F4iVZ3Hd2f9GoX9dh3qaEk7WD9zYCx0XAhP24yHk/I7APAYaOcdiKIkcvtOhX5kTSa6JeJDC3Lk5VNyWDOT+qUI16+vkBuA9ILxoBI3DqCBSrO1Fknsj59MnrjZDHMP9YDqmPX29VT5a2ItoMxocIPyszu43sp940/gIjcCACJuwHwuKVRuBwCEDSceyiZiqRXcZkkpqeGIlQjVdE2CkRtlEW9lKzjScjYASMwFkiQEjHxYZE5oUs7M9E1J8uq1Z2VKLKsA3OqMRtZ4K0eyTwLFvN391GBEzY29jqvuaeIVA060hhkLTMSQIzV0tgLkivTuhGCDo1y7MTJELK2Os4l3oyAkbACJwlAvRdxGKHmK9uZmx2YrVD3KkX17bDITUcUyWRoc+j77Km/Sxbzd/dRgRM2NvY6r7mniHAww4JDJp1DObEVL+umOrIX66IqBfHUmo0652wjZLL2LG0Z83gAxkBI3BMBNC0b0unHsmTZEFfU6z2sLiLqOOM+kyW9pDJIJVRKX0dEhkbHY4JunczAsdAwIT9GKB5FyNQEAgnU8lhsDqNirF/rPCMH1+eVJmqboi0X1A0GCLCYF0/r0gxnoyAETAC/YwA0pclrOqypi+tb1ePFzerH1+sK2a7imqI/YhGE7Gwm7D3c0v63IYNARP2YWtRX8+pIoBUPfXqqVsnusuECjUWdEg65bos7UhhWFcK+nZPRsAIGIF+RgBCjkRmXZZ2amQxj2RZf7S4ETXSmU1FmSErKpFmUs2euvZ+vi6fmxEYdARM2Ae9BX3+HxQByHrRreNsGg6kIuaX5VR6qdaqo1enzE2NRfbS82Q3lXXd1qgP2lT+MiNgBI6BAKOGWyLjWNqp0a6/VMx2iPtLSWTQtr+M+az5CjuhHgNo72IEjoiACfsRAfPm7UagkHUealjbkb6UQtbSjlNpHWMdkp7lnMOhtfvW8dUbgYFAAKNESP3Ux719+zas6Muyqq8oXvuKnFLJkHr/pYrkMZQk65nVmXlPRsAInA4CJuyng6uPOsQIfKSnEg8msv99fm26+uLaTJS70q+T1RRrOjIZh20c4pvAl2YEWoIAEpkigdncfiuyvl798HSt+v7ZavW9ajKhpiGjG962JdD4Mo3AB0XAhP2Dwu0vGwQEsJxjPo963wlPKytp0aRTY1W/taCimggxzSgwRFHwZASMgBEYZASIgkX8dSQylGdKqvQQPbucUdG1Y3lH1471fX0LTXvx88k+NHpB/XFvOMh3gc+9HxAwYe+HVvA59BUCDAlD1gl3tn9Cs35NTqXXFLoRgo5WnZCN1PNT44oUkxIYaodt3I+el42AERg0BLCe7ypzMzIZ6qWNDPdIyEfKU5IsicRD5NG5l/6TGXrQGJGMetCu3OdrBPoLARP2/moPn80ZI5BEPcl60PV9nP2ONOufXZ0OKQz11PnRakryF2qkMKHnDGuSU3ifcVP6642AEegBAknAU+7CPNFhiCCzrggx1D8q3OOPz9ZUVqsH0rbH9vqTOVHTsl5khLay96BBfIjWImDC3tqm94XvR6AQ9MLRefDgMDo2qqIY62Oymn98Ocn659Kto1+P9QrXSI1V3ZMRMAJGYJgRwMpekixRQ9a/V/nh6Wro21M6QzKmt2GRL46o0TuGMWOY0fG1GYHTQ8CE/fSw9ZEHBIH9RJ0HS3nIYDmfV3jGUoivfnOBMhk1hJ6ESSUazIBcsk/TCBgBI3AsBEoEmV2RdebJfvpYWnZqMqK+joRLO9XrtZ3ImsqXhNW9/jYT92PB7p2MQGXC7pug9QiUhwmadYZu8RVFf069IG36dZIhiaTfuDAZevUFEXgymJK9NLbThmWf1oNpAIyAERhqBEpo2xIdhoyoi8qMCkGnxhn18WsReNWL0riL03dzV9R9bNMoMtRg+eKMQA8RMGHvIZg+1GAiwAMFso6lXcpzWcuriggvI5K4QNaRv3wm+Qv1dGjVz1XnR0cqEiKFtYi9cmYwAfBZGwEjYASOgABGDvWa0Wdu7SjB0u4bJVlShlRp2r+XNIZwj9RY3N9IQkOkGRnkY48k62nkOMJXelMj0HoETNhbfwu0F4D6mRMPHVCAtKNFn1LoxuJMimX9kytKjnRlOuqSsXT0XMpg2ouer9wIGAEjkEmWdpVgCXkMDqk/yQn13vO1qLGyF+dUQj6ieWcUkyn+6k8uGUkjYAR+CwET9t9CyJ8PHQL7iToXWB4akHVCN16eHY/6CuEb5yaqqxHG8bwcUM+FDAbNusM2Dt2t4QsyAkbgiAggkYGsUxOvnTCPzwj1uLxZPVf9YoWyHXUnTnvjO0zcG2B41gi8BwET9veA44+GEwGGcyHtJc56CTmGDh3nUjKW3lX4xjuqL4m8zypB0uwkZSycS3nAQNYtgxnO+8NXZQSMwOERoD+FrNOnQtxXNnYimdKKkim9FFl/oMyo91+oqEbvrk3SCZUdNUX/G3Us+o8RMALvQMCE/R3AePXwItB8wHCV6TiqEI5i4Jfnxqvf35yrvro5G/UFEfiMBKNoMJLBYIoPi9DwwuMrMwJGwAgcGYGg3/qDPKYkWiJizH8eLVffPFqJ+sXydvVGHbA2CZLPl9gAcmSovUNLETBhb2nDt+2yy8OE6067TlrYCcmIDGY6dOsj1VXJXz6RXv1TJUX6VPWMrOuF0FsC07a7xtdrBIzAURGIKDI1IV+Vlf0n6dl/RNOuWO3Pl7fkmPomnFOpCQ25R9POl9koclTIvX1LEDBhb0lDt/kyC1kvRB0swkquP+elSb88l5r1K5K/XNH8NUWGuaZ468RcL9lLLYFp8x3kazcCRuCwCHRGMNXh4oT6bGlTenZ07dK0U6tQU7akeceCclDfHH30Yb/U2xmBFiBgwt6CRm77JfIA4YFwkGadMI13pFdP3fpkWNjRq89Jr45mneym/LPVp+13ka/fCBiBwyAQ5Dv6XIVzVEhHtOxY2inP5YgaUWRerCmSzHpY2q1pPwyq3sYIiIb87X//L35fBsMIDCsCHYuPLpD5zEoq7bq8TOdFytGrR7kxGxb2UZF0pDJj+rwM1w4rNr4uI2AEjMBpIVD6XpIsoV3Hqv71w2WV1LSjcY/PZGjHYRVHfizrHtE8rRbxcQcZARP2QW49n/uhEOChwVspFnYIOFFfZoj6ovqiMpkSEaZEhiF7aRB6bTciJ1MeIJ6MgBEwAkbg6AhEvysijhUdbTsEnRjt92oL+0tlQg0L/MZu1KWPptt133t0vL3HcCNgwj7c7eurEwI8NPhDDRm/ppjqGVd9Iizq6NbRr6NlRyJDeMd0NA0xDHt7MgJGwAgYgWMgAAmHsNP/roUsBh17V8/+VNr2iNuumO1hZec71AfbVnIMsL3LUCNgwj7UzeuLKwjwsOCJMTb6UScKDBlMby5MBkknGgxkfVxOqFh2QrnuJ0aBz7URMAJG4FgIlL6XSO3bcjJFy762lZr2R4sboWn/URFkiCazs6utTdaPhbN3Gn4ETNiHv41bfYU8LIivTgh1rOZEffny5kz1lfTqX6rcujgpvXrGWKdmG09GwAgYASPQewSQxeCIWmK1P3y1UX37eKX6RuXbR6sRVaaEhUTz7t64923gIw4uAibsg9t2PvN3IABJV18fmnXmM1PpWDUnK/q8NOro1YkMc+fSZEhiupp1O5m+A1KvNgJGwAicGAHkMcheIOPUOKE+eLlRPSiZUNd2qmVZ4MmWiiU+re30y5bInBh8H2DgETBhH/gm9AXsRwCyHlaauiae+nXFVo8i/XrGXc+Y64RvRLOOM6ojE+xH0stGwAgYgd4hUPrmomtfFjGHtL9YUVH9RDr2J683VSt2uwrSxOJT5MHP3rWDjzSYCJiwD2a7+azfgwBkXQn0grRjxfns6kz1+bXpKGQxRas+M0F209FqYnwkjmTN+nsA9UdGwAgYgR4hAGlHz860uZ1ZT1c3syaCzPfSs3//dK364dlqGFEYAS2kvUen4MMYgYFEwIR9IJvNJ70fgej+40GAtTyHT7GaM//ldenVa936Z1en5XiqGOvEWVc9ypPAkxEwAkbACHxwBHZlUNmRI+qOLCzUP4isp6Z9tfrvk5WQNmKACZKv/j1667p//+An6y80AmeMgAn7GTeAv/7kCBSLjfr+6Ngnxs9VM7KeY0GfliX948vTKlNRcDLFYkNiJMg6yZM8GQEjYASMwIdHgKRJkPZdEXZGQ3FCvSc9O+W+YrWvbb3JLKmKKrO5/TYMMHTZHhH98G3lbzx7BEzYz74NfAYnRACinjKYjPd7YWqsuqqY6sRapybu+jXp2Cno10uMdQWFCe36Cb/euxsBI2AEjMAxEAgnVPpvdeL04ejY0a5nIV57t7yWQypkPSUyKZM5xld6FyMwsAiYsA9s0/nECwJ09GGlIb21QoZdv3C++lRadeKsfyLLOtlL56fGo56dGItxVVtoCnqujYARMAJnh0AZIUXWvrK5U0HMl9a3qyXVP8rS/tPz9epHadufvN6qRiIEb5Wjo/ZCPbtG8zefCQIm7GcCu7/0pAjQyTOl81Jq1UPcok78tmQvn12dUpGjqcqUpDGlTNZOprm3/xoBI2AEjEC/ILAhJ9R1yV9KwQEVXfsPz9ZDLkO3j1Uecs989vl13S8X4fMwAqeEgAn7KQHrw54eAqXTLlIYHEinRMQh49Q3lL30rmKs35V1nZjr58fOqYxEIZOpJyNgBIyAEeg/BMiEurXzpi5vq/sv0bKrKFb7Y2VF3dBnkPoN6dlxUsXIXoILBHnvv0vyGRmBniFgwt4zKH2gD4UABpaSeEMKmCDpl2bGqovT49XFmfGKuOs3FiiT1Q3FX4fQRzZT1egfPRkBI2AEjED/IYDjKQ6oZEMlcsxjxWSHqD9eTF37q9Xt6pWkMotr29W6iHv4I6lLdw6N/mtLn1HvETBh7z2mPuIpI4BlHc16du6/SJ8+Wt0SOb8lkk65OpfOpVfkYHpZ8xFVAJ4uc4zp+ik3jg9vBIyAETgmAoyeEuoLowz9/IvlzUysFM6nm9UjEfdHIvGUpfWdMMBghBmhb3fnfkzUvdugIGDCPigt1fLzzI4c3WLMCY1u74xV/Q4SGGnXqS/NnK/m5Wh6QRZ3iicjYASMgBEYPARey5JOwQH15epW9bPCPj6QPOaB6kWtQ8/OEwGCz9MhTDJ6NHSfDoN3zT5jI/AuBEzY34WM1/cVAlhbSueMJWVc8hYSH40rasDl2fMdvTra9TmFdSQG+9RExmLvqwvxyRgBI2AEjMChEFjDAXVzV/HYd6tlWdTRsj+Qrh3S/mJlq0Lzvi3pDDXPCIg6mnYrHw8FrzcaMARM2Aeswdp6umjW3ypsIyEc0aNPj0PGR6IQXz0cTGsnU4h6h9DbybStt4yv2wgYgQFHACKOcymknMgx4YAqJ9QHKk8ll4nESkquBKFH9545NhSr3fqYAW95n/5BCJiwH4SK1/UVAox2olcnuQbEHcv6gqzoFJIk4WBKNtO7FMVePz86EufvPruvmtEnYwSMgBE4MgIpd6mqrd031X3FZCcD6j0VHFFfy+q+WBeIPUSd7NXo2i2LOTLU3qHPETBh7/MGavPp1bLEWqPY1SoSvjGzlyqDaWQyVRZTRYOJbKZ1VJg24+ZrNwJGwAgMGwJEjXkqZ9PIglrqyIxKdtStCPeIkabIYoKw18vDhoWvp50ImLC3s937/qqbZB1nouJGRIc8K8kL8dXvXCbe+lR1RRp2nEzJZjovi7tDN/Z98/oEjYARMAJHQoBRViLDlCyoz6VhJ077gxcbUa9I616s8eWZYdJ+JIi9cZ8jYMLe5w3U1tOj44WmR1Y71alNTGeiBUV++eL6TJTfXZupLs6OSwZTkiOdi23bipuv2wgYASMwjAjgv7S1UydWkvzl1cp29d+nq9V3T7IQmx3HU6STbMsUSZWijkX/MQIDjYAJ+0A33/CePP0tnW70uzKTlORHY3I4xaL+h1tznXJB1vU2TmCDUCgwEgCdOl519iISlqamqlMrcl1uF/P1iqzqv/W6vUfzkhEwAr+FQFDG5I3xO43t4zfb3bO5TVmb4r+y1K2LKrv45qT8o73xx18rrOPXD5c7BYv7jhxPS9IlukEwclKl7j3kucFGwIR9sNtvaM8esk5UGJxMkbjMTSJ5GY0a/fonV6Y7ZUYSmbZNPJQ2laY7ijL+RTSFOjsg80z5YM/H/Llz9SiFVhLyLJKN1M5Z++cjK6x2GNHL0ahq9q3pe33MtqHt6zUCh0OAEUGsvBDxcJLXQmTujDrnS8I36ox+lftEn6cd01DRfREv3zyuUUQMFxgtmJ+QL8/EWBZ+s22bViWB+en5msp6dU/1M+nZUzIj2czGTgQqSCfU7Pvaho+vd/gQMGEfvjYdiivKh1lGh+FhdEPOpNdVbiiEI/VVkfZwMtUyTqhtm7ZE1nk4ESVhSUPBPLxI1Z1FhF3EIYaDw8KUBH00CPq5CIuZYS/zwc88BICCtGh8LOVFkIHzmh8RY09LFS8B7SMGbbu3fL3HR4B+K40NIuea53eaMo6UcvCCvaUXatZv7/4ii/Db2iKcmZuDzEPkVWL8rCb//O6mxs+pjETBSDFPYjj57OC3c16/1bZNG+rvIOnPljZVtqonqokc8/j1RmRCxagRxgh1WdSejMCgI2DCPugtOKTnz8OOwoMLIvnZ1enqc5XPrk1XNy9MVrOyuM9NpsWdMI9tm4g7zIOKqAnUr0Talzd2ReKVYET1W9n4QvdfE/ZMMpUWOpJNpXXuXDWJhU4kgJceyEDUim8/pcRTJfkUVr0S35jakxEwAgcjEH0WJFz9FmR8jRdpxQknhji/WeKGs475Qt63d0TsReLZPiUdWZdEcXr3jt8f/V2OMo5WF0XWr8pYQXQsan6rbZvAa1V9Hc6mK5s7Qda/k6b9+6drFTUjjRB1DBUUT0Zg0BEwYR/0Fhyy88euxHhyWKk0q+dekMjf35ytfn9zRmU2CHtYgRVvHTLfRuvJsoZ8SR5Cuf9yrXouS9NrkXV0nVjdwS/iEUPY9bDqWNFra3oSdBF2yDlkHYJealnvsODN6KWIiDyQ/fLgo8baV14GihUfHo/4xnx+yH6Qvpw9CECeQ/aitUGo676K9fzmmqQbyzojX6sik1lrXgSzrGM0jG02KRB2FRIE7dSW9/gudYb0gUg7sKbjr3NB0sArCmd799K0ImURLWsqpIJ7TrQFC4E3mIGdcHsk6/rXD1eqrx+ha1+J0UZ4OuacMDREH9UCYHyJQ4uACfvQNu1gXVh5OGVdpTRDRBFJBtb0Yl3//OpMPKzCCVWfo+dsk9VXz+54oXm9vl39UFuTvlf9Ug5XEAAseFj02I6HFQQafEIOI6zQpBcNbETWEYb58lNkMFlD6CeVTRbrO23QIfyjyGjQzWq7et/U1SK1SbnNYN15PlsjcHgE0KNDEJslJS65juQ+LPN5EHH9JoufyabmNySFoabEMSTboC6W9aYkpvSFvBjwG56qMzvzgn1JjvefK0LW5xpx/Ez1BYW0xdFE/1szQdjfCL8YjVW7II+hL8yyppHGnXghAl/aBGzoD21YaM0tMnQXasI+dE06mBeEFYkOOB5Smi9Dv+gzGf4NS9KlyeqO4q4vzIyHxQltdVp8B/Oaj3rWhawTReLl6nb1zaOV6j8q3yhSApKYeOjXD3+OHQ+n+iHetIpjcY9h4iDwmhfRDgs6y5qH0AcJjxciObeFY5us8SIKEHWs71jeKcyHvKYm+Ix4eDICw4oA5LtIXJC5rG6+SYs5chdZ0yHkG7KYo68OmYt+j5D8QsjRVefy2w7ZLCSdvq/0gVEDotbxu4ds8rscjd/kR9EnfqVIWYw4fqVySX0iRLT+z55DPxW8wA+8XqlPjFFHYrOr0Efi51OkgqU/5OUHY4YnIzBoCJiwD1qLDen50uHquRaadR5Qkck0spiOV9fn6kym0mtek36diDH0t9kBt6fn5QEFWacmhNk/HyxX/7i/VP3jwZKkMNtd61GNTblVQAhMm1NIWbSiPMR40pd5HvxpnVetmSDpoWkfkVZ2JMjCRQ3NXxRJ4OVpZmKsI6GB1HsyAsOKAKScCCTLOHurEPt7UcRwESma5tdE1KNolAu5S/m9FvlMwYVlJgwVez7Tj3V/jxZbsp22L8e7ICPGX+7MV3+5O1/9+c5chLqN32/9O46Dt+BPs09cUbs8IQOqnE7x7XmyTFbU7eqpLO9kQgVXDBOyScSIRQvg8SUOGQIm7EPWoIN4OfEgUs+bVva8gjsXZU2/OCGL+qQ06xPVgoaAL85QxkNvPYjXeZJzBqMSJo5QcERFgKz/nSLCDnkozlVE1fnVQ7888LVvPuTybCAA9f96faxJdlCfMBEo0LfP1EPyJK6iHbKgcxdhR+8upzi08PlQ1INRDIL50NJTaxlS4ckI9CsCGA46vzN1SBgR0piQDvDoz/mtRbZNCLvIOqNbi6v4jmx3ZWnbtQxD9zu3fCHT+hnEfPwW9oEQ2/AbqbdvfszvP6zzOickIPP6vf1VZJ0CaSdqVvP3xjHaNjHigZX91epWtSiDxiOR9gevNqqfX6l+uRFwgHHph9qIUdvuiWG7XhP2YWvRAboeiCMTVfMhhdTlkytT1SeXJ6uPVd9ayKgwWHIhhW0MYQZpCM0rkheVp4oM8285Vv1bcph//7wcw75F5gJJ3v8w6pL0JOwF96g77aCZ/M/qzoQ8Br166NaRxIiUF1kM9aSW0ddOSfNOnfp31do2ZTTSwYecZiQIfOfAnjECfYBAffvHvb+r5A/IWUJvXupwDEWLrqgvtfSl1Kshi0EOI2mM5re1TWjaa2laEvW8yCYhh7jvn/icnrDZF5ZtOMeOXluEnX7wT5LE/PG2yq3ZCHEbkaD0O0WWBilt20SozJVw6t1RvRNOqPfklF8KLzr0g/Sl1AWhFkLVtltjaK7XhH1omnKwLiQekvpDzZBwscpCOnnwhENVHcbxtqztkPQSFxydddsmdJoQiQ2RAmoI+7dKyf3N49Xq28crEdoM7AqO5WHUxImHFFNW9QLL3dn6s9gs/+iz/Zp3CEEpOKSelxNq1GojCPq8yEREtJD/wZwiWuA0jBWemrb1ZAT6CQFu//wNEDf9bcpdNhQmVTKXkL+IBKKDpqBR78RWl4NpvERrn/IyDSnktxpFBy6/w6j1p7N8AEvsfvZrdDhHjlmOz4vyV9dnqy9vzFRfqZCTIl6U9fJMTT/QtgnfgIy6k230cHGj+vHZWvWDCjWfhS8BOGrbIgukUdqHVtvujuG4XhP24WjHgbsKHpD5oExrR8c6JDkHD5zf3dDD6PpM1MhisBhBHMtw5sBd8AlPmOFwwsNhOVpVQZP5vR5CFB5IWPfKkPhBFvb9Xw/2v5oOXLlvq/rJFnbA+kGXmVHTYRWr+lX5HlydU5xo1ZeRMoWcSRIa1bx0eTIC/YRA9kXZD/Ey/Fza5xfSPUe9sl29UMGBkRrreYeQi/jFv/p303zxLdd3IBHs/IbKVr9d8xXN7yXuOhFiiJ5FwecnZWn4k4xFcrTfPupwbQH+RdJE/VBymO9k1CiFKFoRsUdtyEgI70yFtB/w/jRc4PhqhgIBE/ahaMbBu4hO5xqdbBX6aIZ5iTyCU+mnWNdVPlUYxxsLE4N3gT0+Y+IMvw7ntu2osbDfky7zvqIhUG/IyU1Kog5p7+XXQxZor3COq+fjwRjrcORKXSg10pnLs+MRtSLr8+GYinMqPgi8jEVITr18QfRzRCDDQbbRKtjLdvKxDocA1tWOHlzzTasrYVEJkUqBtKOHfiVLexT9/tiW34Gk7VEXwlcMCXDxWAcZPNzpHGorfoMdbb0WCO34MZJBxWD/WJGzIOw4ol7Q7wTbYh4AAEAASURBVIya31jbJxxQf3q+Vt1ToSZHRUSMkcFjRRImBiGyyPzQy8ZqO/C+/lNDwIT91KD1gd+HgIxT+QDi4ad5wpLx0AnrrOobigZzQ86mN6Rfx7mx7RND7lj8nsuyTg1hf/w6HatIGILlKEYh9OA5DeIbhF2N0CTtkAiWy/dSQ8JLuMcI/Vi/hHWsf7IMEmkmY0rn8H2EjRQBITykn5ttv9NP9/q5Z3FOzJIZSLG8RhFZX1VhFIsoMMTxZlQLEk/4RnTrSFIYGox7X3+Lt0hYa3XsQuBPgwBiYefrcTonQ/EtGTJKQRJzWSNalxRRi1Eth1etwgE1osWor4zoMaoZmXyimtESyDqjkjlye7r3nY9uBHqBgAl7L1D0MY6MABZacdDOMC86dRxNw2Ikq1FYiyKzH2ED25d2ez+g6GYfS5P5SIWaBw+hHZ8vb6vOofqmxWj//iddhqAES6kriHpZBckuVkXOgSRLHYmTLO5Y1SHl1JD4BUJCygpIPYfOHY17XU6D6MSJ+o8REALctoRfJBwjdRRlCEarToZgiHkn0RF6dXVSOHljkWeUC8LMD6G+/QPTvGcLddcq/Qb4TfR6KqNa8osNn5ES+hb52XURdkLeXq9D3+JT0vapRPShjYnsg/PpT8/Xqx9lbf9Zcpkc3ZORoR4hbDtevv7+R8CEvf/baCjPsDhQYbGifKFsfX9QtIM/3pwLR6riYIqzqa1FVUStuK8HzoOXaxU1liMIxqLKaxEOSAXEAeIMaf5QE/xl/9dBagq54LOuxl3p1UXMr4lUXNcoCiQD2Uxo3GUVvCTJjAn7h2q5dn4PL5qMTvH7eaaawgtvFElgVhS2Udw8DAlIUJi4J/lNFet5Qe6ge798dho1pxMjXKrpEy/OjMXIJDkR+E3dvqiIWhT5/NhXpApH4OIgzEvYt3LQ//qRomoputZ3yojaCYOrxj2NUcnTuAd8zHYjYMLe7vb/oFePVYqHHH8Lscz6o3Cg+kqOpmTtg7xD8rDSosV0Z1pFZJgfn61GtAPqp5LDrGiIHoKBVbAZ9eAsSS/tG1pbzRTCA9mhDZHMzEworbqIedG5Y2WP0RT0typYBksEGiz1xQo2ovuB/ft9ivtbf3BGZCr3fCFauZwW2rIutsut4weSe8aKPEocLw/W/Cy32Ps3EBJOWe99mSrrWFuQBNIgotT8i+V6nQ5dII89Ypu939ePS8U5E6v4G5mjI4ILFnK91GIxfyli/qLWqb8kZnckPcqXX7KYFn06bcX1dyRfuoe1eGZT816iXyQbNPHY5yQ7w7J+Fz37lWnV0zGadWYn2idfzH3AqEgZIYGkkx36G0XV+v7pWhgV+A2WF6H8BXTv+T65DJ+GEeggYMLegcIzp4kARKMQFDpISNnkeMol0GMSb/0zOZjiaPqJHjodogbRg/G1fEJzW6IdfPd0RZrMrQzzKP0toeb0XOqQiUKyzgqyYl0vBIPmo0AMJ9TuSJyiSMuOtr2zXDscQ0BCJqPl8TpsJHU/O9IFkdafqPW3kICCBS8vUbRBaJFZFkDM87tgKnj9ern72+FFILbu/tGegJvt3yXdNfnmU33GFMQ86liM5fIixW8s59VWmi+6XshqvlTHEfIeq78rj9J/fyHoTVkL0gjic/NyS402vRT06pB0NOxo1dkXaOsmiYvLezeJ+1lebTknzg/rML4gvAATMQYN+2eKGkMf+qkMHjiltn0Kw4F+X+UFDsdTImr9IIPHPUlj6DcjVK6SXNHupZ3L76Tt+Pn6+w8BE/b+a5OhPCMeNh3yogUeNiVWN/VtRTqg3FG5JT17dp5pVS2EYyiBOeRF4fAW1iEsRCo4TmE5SuuhtLWYBfuESNHWSXr4m4SxEElIYYyeyEJIHQ6nIuNRi2Rgec+wkBkSksyp6aTa3wmz8nq52iTrca/XJB0nwbT21rXerkIKpppkOGybmNW1DhZJ7VWzPj+H8Od8fgsfMqcp2j1ZeViDpclNkl2Tdn10ThvxO4pSz7MtIxfkNYgY/nWblDbqOOSpzYqVmS/LY+RX9+NfSFiGQGX0aTes6TgZplV9O4haJEZCo67wfrRFJiXK31HCmm3BtcY18zchPtNLjnPTH9qIRGZZRiSJOV/9TnHZCYf7O4XD5XfT9mnPb0eYEebxgaJq/VwXJIWl8LJW7nHqfmjrtrefr//XCJiw/xoTrzkFBPRM7FgUsXhA0nGaQst8TdENruMwpagH1FdlLfK0FwGIBxlNS2ZToh5A5MJaq5qH0yBMe+4DnTQPx9CSQhxFQnA+visNLi9utxUhCKfU2doxtZ9JCPirFWqCjRW9G6+b7Jk7u5D1rMswfdaSYNREnGMU8s77VxmuL5bCtNDzHXxTbJBNDsHQXCHpHWt5EO16fXyeVmLISJATEfsxJb1i5KLIz8ZGk8BHrTihEMMsZM9M0sq39TOh4beyWIdAxbkUR23IGinqcdjmBYoRqfjtCMmSv6AQtgS1v//SFrxojcUL10fhD/J7ZT79vXyAfi9Z4bRGpzztRQB/hSevN6oniqpF/VTSqCdy3seBH+Je7vVBug/2XqGXhh0BE/Zhb+E+ub5CRoJkim1gSb0jcka5LYKGrvkiDoiqF6Rl9lQbUGsiyFD+v0TY//XzUvWvB8thYYe1FZI4KHjtvw8gHvGgFAOk5r4gLN0VRb64rHuhRJFBIjMjqUzHIi9rPIRFu9dEkrmjTeVlpxDmQohzvciz3i64X/PFKJche7k+yXV5AeleV72dPuA4hbh3rbhaV1vYqeO7tB0EnGMUkr5/OYl8nku2e27LFXeG8AUBZKND3LUcn1FruyTcSbZjWSsCeyzrzHfqfHlKAtMl7XtlMjXp14EKwYkXBX1/vjCU9V15DceLbTt1bsP6o0yJDVgkBow0bchSHlZzWddXFIqRqCCEZqR+iXVdWnWs7K9E5LNNk7BzLHHe+hr6+0WkiREvTF0sq9Cw/1GE/Y+351XmQmbG9kdDtvkNwzdPtBjan9j63BMPXmFtl9VdL3M4HQ/ifTB8reQreh8CJuzvQ8ef9QyB8pBNYsMD5nzo1dGsU4KQKUMfpAxNpqckcEnUqiAh/xBR/+eDpShEuShEjYf3oEzlPkiyBaGEeBTCVIVlMPXtmUSLcI9F0z4vS/sFOanOT+GgOhY63SSRSQqPAgP3IZbvSKCD5VvSlLCAN+abn4U1vHZcZL5JwJmHxOvjui5kPesk/GxTk3y21wkEOdd8EHU1IMtM3WXN1+tzXW6ba3M7tu+2fyHjda0PwITPS53bd9eDX4fgN4h0IddJ2mtirwMlKVd7adsYGVEdshrVXUt9PR/W35Q+FWsw25R56owgpBevIzQeWDRfhtCgvxIZw5q+uJr69HDGDt06oRoljZGkbK2Opc7+gb/AYJ7v1ukHDkc4DaDsj0knTcSlP92Zr/4cZU7hU8eSrHNd/XGWZ34WyArXuBdU8F2ILNFyPqVmxDLvgQG+D84cYZ/AaSNgwn7aCPv4HQSSdLD4S4QgIyJMiQxDjO5OdBA5Jnoq5C5rnOT+cX+p+rsI+z/uL0doOh4wQajEOI5CeM4a2+Z9wLk0XzySIKZVl+F+XuQg7CV+e1c6NRGfsX1YhyXfOAoGnMPWbjoZkqacefTMUVgf6/AR6M6HI2Nsw36/VNsi7vgQQPaTQDZqfUGuq8mhvq9IWfhufgPNqbku5+st2K+zYVriGys6n8RMh5wlRYu/nXXgXDY/6H7JdWxSrPJYcMWpO/fYHvIu3Gmf+M1qo3FJaQjBWjTVZLzFUXhckpsyf555rYui+fxcy5rvnls5x3fXkG1epuLFSTWW08eSOSB9oSyJqEPOIPLUpX14IaNNCvz1HFe854Xm3d/cP59wDWWkh1EfosT89e68yoWoyRrNVYFrp9n75/TP5ExSgsbvVSMyGon5j3yB/qMQj9Q/y9o+iPfBmQDpLz0zBEzYzwz69n1xWjDyIfKxQo8xdEv5k4Zx0cx2yEL7oDnwigsJhKAwtP93CHtdiCU9KpKaFkqkBgceYuBWYq2OIiKm2WpOUTAiY6o0ucSdRtt+R+HrCGG3IMnMuEhjsexCMJtTEt+kZTkPac4twLQbSaQbVYQHOdKKJOc5D4nPaBIZTYR5wgM2SzotFpJe1/oOcYMg6s3z4kbnXPN+/zWhqk+xy9Qbl9WY3XPIstDZlxVlod5p/758DB7U4NHZnn01QdyDsEddW9nLC5Jwh4g3Cy/dRCehpkDMyV6bMqbMZMv67rru56XtShNS5/lmf5FnlH/5XfCiFDG2Vb9UiEYS4mQK+vVIghTtqHajHfM6dP46IC8dwzDx28jfSY72EIf9/318ofofEfb/+Xheo1BpYefah+SSe9pskHakhUVi+NOLtfwt6HcAtvwmhuNO6SlsPtgZI2DCfsYNMMxfnxxAhEm9H6QqHuikpddDG+fCzxXN4HOFIKNAPIPCqJd0R5l3RbEgUkPY/4kkRhp26mdymCqSBOpCdAb9foqXFN0vYQlVTejPIIEif0hlrij1+hU5KVOQxSCfYj2RZHiBabLOsMLq6ZtSl7TKclyIDphGhB0RvrCS13VZFxF4tA11icZTCDrWd/bfaRy7SGI4PuRXVW0B7dpxm22ThPQ97ab9fzUd9odxhH2bv9H938fXQaRTdpTzYWXXB6xLh0c5PsZ8WtQLgcfyHo6sWNr1229mvi2fNUfUQiqj48SISbyE1c6vWkff0JywmGf+gQzViC75mRwHny2TCGlLlvVdjX4kqWcUhLsiryPr5rEGdZ77q0nYcdTHwv4XSWKoIexlRIT+wdNeBOgbvldc9u+eZBIltOwlvOf6do7KgJpfePbi5qWzRcCE/WzxH9pvhzMUBzrIDGT94oycSuVQekmW0huKBkNGPkI5kp0vHirqIf1oyVsC/CCGSSDfRBSDjBKzEpFinteEPQiOHsjDQtghIuW+oS7RS7CkY7Gdwc9BBJ0hfxxSuZ/I9EiNLAPc+EONBXaztrJuKtbypsh3kG6to4bIF2t+kUuwHC8N+qw4mAbJ1wM+Pou6OIvqxQJyrn32n3dGeclriXPivBpTIeyNVWc2yysFxH3/VAgL5wrpLeSl1Klnh9Cn5ZoXpqJnh2Rzb5ZtcGgt92rUWi6jQ2jZg+gjlxHBJ1b/hF7UioMxUpvmxG/iZTgPblcv66RHzTCOfN5pRzVMYp1kfZh+J3nv5rXyIvvnO3PVn2PEci6SkPFCVUaf3K8276A0CJTwjj/L6ZToQdxTL+UDQc0ITd67w3Xf7EXBS4OGgAn7oLXYgJwvBKCQGXGckDXcUthGyk2F67uqcI5YSS/PKj29ajpHP1S6jQt+DOcn6XwT2RhDc4nuUoWY0iUc3TBZ2IM36k+QSMHRjR+eQ/tNR0VIO2FBcbjDiRmix1QIKMlwwuFQzobUa1om3jLreSBjCRcvry3i8aVB9HlRqA8Uy3FEPo4icp5fktvUG7JHZ7fO7jlT1nd20I3eb/d6nGl93uU8C7ktv8zOcuf8G1eh2ULqgyDHR/We9WYQ/Xp1Wry1LK4e8zH6ppd6RkqmVYfjseRQ1PuTAPG7eKzEYYTke6yCAyEW03jRipcnXUj+p1VU8nvL+ZfrG+SaF8QmYSeyUkgMb81WRIshg3D4D8RL0NF8BAYZl8OeO799jB4vomxGaMeHIu2E/qRelh8E/Wp5yRyme+ewGHm7/kPAhL3/2mQozgiSEoRdNRZI5AufKpvpp8piSn1JD5hwKJSVNPSW7hH3tDv4bWhoNshlHQXjW6XU/vbxahRSqvMwKaR9WOEDh7C4Cx3medCWGjnMTWl3b6jchLCL6LGtNouNIefLEREipRNECSFayKrWk+WQ47BtIejQOnCEVEatP515jlkvMyvotdj9nHVtm5r4QSCZCvaJaxff7rasy42b+JHteEZkfUZtOl38FhhFqeVOefT8SwjHR4rqQXm8uBUvYrRH87fQfHlo7jss8+AZkiwBz8sK4VCJv14KI078HsJnQNhyP3vqIsBvvoT+xKEfP4jIgipfCOqIyy7Qoo/VzcX95ckInDUCJuxn3QJD9P35sM4Lykdy9+IuSQ7zuVJnf64QjmjWsQCRCKcUP1C6WDHHAzkjXWQoMnS6/5Xm8r9PsrBcHiYQlWHFr0v0kubFsrBhCckE91EWSWJqrTOfsV3HWVTkfANJjGokMhkJJlPQJ9Z5t0IgmfjLbCxFncQ8V9Sfx4Ym7IGcwKZOFHMml/U3/3dejoCt84LUwLtIYkqUGXwXIPEQTqRQzQnJy6KkMK9UqJE3cajQqdft1nwZaO47LPPc32FhF2FnZIH+9csbMxl1SzXyw8lx+lcwVMSYuJmH5epPfh3gh69DKYQE/U4hHilo25HFBGRxP9W/f762vr9OfgY+ghE4OgIm7EfHzHu8AwE6Qf2PBzIPTKwSRcNKIpxInS1HU1Jnoz9Op7MM7xad4zuO28bVYIkuNyQdWID0APmeB8qz1ahbQ9hp/Pq+ilkBwz3GHzTQELpSeIEpG7MNlsficFrirKeMIPXoHIapPqLmug/muB/1p3lfdklPY7vmBnG0dv3hPmXKqv5br+us13JZVW8R+3RRVFuq7Zqa9tRfp+Mp65sTBBVJE2VdL2K0aVrU1V6xaX1kze/ds3mUwZ4Hd66bUUzwgKB/Wfet1CxjDGEUirp77w72dffq7LkP00coQ7uSZOvbMIbkKOZzWdx/6cjldP8K52F/CewVtj7O6SFgwn562LbuyDxE6NjQ+PLI7D50P6oIO1ZirjNsi/NgEHqIfRCt1sH13gsGR4ZqyXC6QrZGSWAYqo1kH8/Wq8V1MvPVQ7aq2/BADrIXf2roakIWD9J3MDPuSaZi1W0eo3uoMtc9SHcu94+/jZWN2cYG7Z0tCAYCexYSk72rylKi2MFSM2WeNmV6131Ne9K2Udguts6ZznxZN4Q1113IeiHsX2gE8wuNXn5xfToyR0+HnIgoSgrx2AZQjtjO6SyeDuNkx/1GvkGlEDY3X/KJKMUrfXkpbEdfe0QovfkHQsCE/QMB3YavkaEnCbtqrJ04i0VIvvPnwjHwi+uzYV3/QhYgrD6e3o0AWu1Mrb5dLWvYHyfTH6Wv/PHFumJOr4mw77SOsO9Hq5CW4jyqu2/PJrw0QlRitEeflHm4iwnMHqjOfKEQ70LEeekv890RkHKavKimBGaY5WDlag+qy70PWYe4o1lPuWHKDvERCsddJR4jj0F5ATroWF6X8pjvarkhoR6fiLCvb70NHyL8iCD39BlFdmXMjMBZIGDCfhaoD+l3QpxK+nXC8fEQQV9MwptriuQRSW/qxDfojz29GwGwJINjFMlhIOw/vdio7omw33u5vtcpSk+SNhJQ6Dk46X+nbiIKJh3Srg/CEs8Gsb65pefPGoF41dIf6iDqUbOc7ds8v0KcOnXzw5bMc883LewL6ms/uzql0iXss5B1HHdVm7C//8bAv+WB+tYH6lspT+XQjI8E0kNCh5KLASMUg8EpvXv/8fypETgNBEzYTwPVlh4Taw9WdmoI+U2FcCSCx42FDL1HrOAM5zgR+vWWwnSoy4aILuph8UpEnZoQZPeVPvu+EnxQliSXaZsk5iDgIC6F1EH2mpOerTHlywzUvblcL7jqGwRoS6asukT9oHZtvozlXu36u5+wX4CwRxSujMRF1Ji5KcpYFCzDnt6NAI7Mz+vEW9RP6ihEjxYVjUgFQg9RL8VovhtLf3J6CJiwnx62rToyD9UYnhVZJ7Y18ZSx9kQoR1l+sLCXMI5zk+O/yl7YKrAOcbEQdkKNvRRRp4awP1CCD5J8PNADBH27CXsCuZ/Q7YfXD9f9iAzGstv13e0UhJ2+VjP0uxdEzD8RYf/kcpewz4vEz4u0z2uU04T93VjyCQ7qyxuSH0pqSN+Khf0HSRDTZ2gt8jeEY7RIO07Q7lPej6c/PR0ETNhPB9dWHhWSqWdHFHSTv5PzUzpBzVRXlRwpQjgS1UP6dQ8rvv8WCcJOUg9Iuwop1yHrP9fJPZblJGXC/n4M/akRGFYEgrDXZB3CTi4LyPrHFGWQJikdVvcLihZDbcL+/jsBDDcI80jkIdXP1PeWELpEj1mV8z/BEUISk8M7Ju3vh9SfngICJuynAGqbD1lGXrGmExeYUI6EGeMBMl5n3aP2A+T9d4kJ+/vx8adGoM0IHETY74qo35WPUCHsCzPnqwURdor72/ffLfS3hHnc2lWYR9WFsH9TJ6vD6g7mzSms7Ppja3sTFc+fJgIm7KeJbsuOjdUcCwSWCIZov1L4RkI5fqlC6uwRDSVmumclnHcv9967w4T9vfD4QyPQagT2E3a06ncvTlZ3KLWF/ZII+0X1uxelZzdhf//tEngqYkLEtpc8hpFNyHqEeVT9Wo6nXclnMvfixO5n2fux9ae9Q8CEvXdYtvpI8O9IfKJ4a9REiPn9LVJlzwVx5+ERkzY0V//tW8WE/bcx8hZGoK0I7CHsWphTrPXbFydUJqvbC5Ph3E9oRwwllzS6acL+23dK0PDaik7eC8j6fx4tV/95uBLRYrblnLWzK0s8TlqaeI6Bqwl7wOE/HwABE/YPAPKwfkXp4IjSgbVhRo6mZNbD4ZQHxWdK5PHZ1ZnqUyXzwOLu6fAImLAfHitvaQTahsA7CbvIOqSdaFwm7Me/K17L+fTHp6tKVqeiDNNkPo2s05tvqlVp3MGf0WSee9SejMCHQMCE/UOgPKTfgYMpMZOpkcNcUrz1S9JLkhYbJ9NbF6eq2xqevakaJ1RPh0fAhP3wWHlLI9A2BEzYT7fFVzZ3q0cKo/uzQug+VI2m/cWKYrJHToxtPfN+Caf/c3UCr9M9Gx/dCCQCJuy+E46NAJ0Wo4PReYmw35J1h9jrt1SuK4zjZZF2nE0vK/76pKLDeDo8Aibsh8fKWxqBtiFgwn66Lb6haDEvFI+dcLovVMh8+vCViqJ0PVRYXfTsxWfLEc9Oty189C4CJuxdLDx3RAQ6TjiysONMStx1kndQQ9xxhJpVzHXqcWU+9XR4BA4k7BHSkVjsisPusI6HB9NbGoEhQ+CdhN0a9p60NImUiMm+UsdmJ3nSD8/WIjY7Nc6pctXqJFLqyZf6IEbgNxAwYf8NgPzxuxFoSmIg5F9Is55x1yHskxl3XXp24q+PyRnV0+ERgLC/0hAsmU5xgIrESRqeJXkSxZlOD4+ltzQCw4bAfsI+rzC6RIghtCNRYq5qVJNwjhcjUoyjxBy1/Xc0dEw89vWtjMv+SMaS756sVd9J1/6dNO0QerTr1rAfFVlvfxIETNhPgp73DQRkYK8mxkYi7vqXirv+leKv39TDAxJ/XjHXx0dHnCjpiPcKhH1ReknKKxF2hmXvibDff7muYsJ+RDi9uREYKgT2E/YLIuwlaRI1ckQSJi3UyZMcJeZozc/o8bZism8pJjvk/JGMJN88Xq2+fbJSfat6c+eNo50dDVJv3QMETNh7AGJbD0E4qxLWCo06IRz/UIdyRBKDtq8ULBGeDo8AhP312nb1WoSdGgs7hP3ei3XV6xVRDJzp9PB4eksjMEwI/IqwS3b46eXp6hNJEj+tCTtSxPmp8Wp+eiz66WG6/tO+FoIpdCSfIu9IYgjx+LVCPFKjcacN6KepPRmBD4GACfuHQHkIv4M+Ct16xF6XqzyhHP9wC8I+F/HXkcR4Oj4CPAiWlKxjaX1b9XYk8vjp+Xr1owj7Tyom7MfH1nsagUFHAJL4Rn+CVKpeEDH/7KrI+pX0IyKkI4SdjNPUNpicrMWRxBCP/euHkPblak1SmV0SLSnJEnp2m6NOhq/3PhwCJuyHw8lbCQFIOg8K4q7zfwp9uizrxF6fnxqtPle89VKuKkqMp+MjAGHH6SkLhH27+vH5mopIu8qiSHwZvcDS7gGM42PtPY3AoCFAP9wh7CKMSF8g7J/j+K9CorpZ9cmzEHYVE/aTtfAzRYn5Xvr1UpbWd0XapXGXpR2dO4xdvXD0wybvJ8Pae78bARP2d2PjT/YhwEMCIqnnQ5D2BVluFjTcinXnktJf37k0Vd3RcOxdDc0Si93T8RFgSHZ5gygFKiLuLySNiSgFRCp4ZsJ+fGS9pxEYfAQOIuyfy+kfwk6hP54RUZ9VBtTZyVET9hM2+Sv1v/dfrFUPNLr5QJLElzKgLGr0c1GjoIvqnyHrOKEWiegJv867G4EDETBhPxAWrzwIgULWGYaFtF9TNr3rcm6KWvPXLij++oVJ1ZOyuDuz6UEYHnYdhJ3kHasi7GTYe6loMd8rOsF3IuzUtrAfFklvZwSGD4GDCDtRuiDt1ESHIVkdpH1GtS3sJ7sHlkTKn77eqJ6oPH29qbjsW9VTlSfyLaKGrDPiWUj7yb7NexuBgxEwYT8YF689AAEIO3q9kiypGUaMZEkMw16UdpKHxbQzmx6A4OFX8UBe29qp1kTWGXrFwvPfJ6sqa1G/QhIjHQx+BDwoLIk5PLbe0ggMOgJB2NUXR3+shYuSxPzu+ozKdNSMcCJVpB+ePo8kZtCv+GzPn36YaF0lzC7Jkx5E1K4Ms4tlncjF9MeOyHO2bTXM327CPsyt2+NrKw5OPCTkbxNayTIM+/HlydBL5hDsWDXhzKYnQp8H8sb2bkQjoGbo9ZtHKxFa7JvHK6FpL2Sd2g/kE8HtnY3AQCFA/5DGkyTtlyWB+epGhtT96uZsSBUnx0cjwzS1+4eTNe+mtOohT1TCOup7Lzaq7+vRTqSKiruQxpMg7n47Ohna3vtdCJiwvwsZr/8VAhD27kOiqv5wc0ahHGejfCrdJKEdiccOWXeipF/Bd6QVPJC3Ig6wYgErDjASGEKKZVmunktDCVEvxQ/kI8HrjY3AQCNQCDv9MeWKCHtG6ZqN0Lo4oZ6PPBgjqkdM2E/Y2iRSgrQTf52Qjj+KpP9HBhTK149W1Q+nJKYYUU74dd7dCByIgAn7gbB45UEIFMJeHhJ/vTNf/eVuli81HNuJWuJhwYPgO9I68fVqR0SdBwWFMI7/erBc/fPn5aifSTuZITU/qsZsYT8Stt7YCAw6AhD2nZqsE1rwqnyJ/nRnrvrz7bmoL8iHCKNJFLFJ23xP1uLIQWOEWZhTfyt54j/uL0X5+4OljuHEhP1kOHvv9yNgwv5+fPxpjQAEkocEzpBSw8T8X2uy/hcRd/STWHnxlq//G7sTIlDi/PKAwOnpn3ow/APSrhrCHi9IAp2HhC3sJwTbuxuBAUKAvjhGO2siCWH/MwYUSLtqnP7pH0qejAG6tL48VZ5/Gc04EyXhT/QP+mNIu2peiMrzL+u+vAyf1IAjYMI+4A142qfPg4GJCqeaYkUf1QJZTUuyJGL/1nTd5BHAejBB1ItlhxCP/6zJOvVTxQXGuQntZIQS68H3+RBGwAgMBgL0xxG1S9YT6mvKe/HnmqxTE3udvjqdIW1f70Wr8izMx+EvHUkMSZT+o7JTJ1BitIN+uyBuQ0ovkPcxCgIm7AUJ179CIDqn6KTSqjCuodXQqI+pHj8nq/ps9Ts5OiGHIfZ66aVKZ/WrA3rFkRDgQRwPCf1ZVpSCf8mSU0g7hD1ekAS28T4SrN7YCAwFAvTP9A/QyCTs80Ha/yQL+1wdyhHC6KglvWnugDrhjljs3z1Zqb6TpZ1CAqWN0Le/rbZUp5U9O2f3z73B30fRs/5v//t/nfvQgBiBJgJBFrUCGQzzZDYlpu/sxEjE+P306kyFsyn1rYuTzV093yME6uexYrHLwh76dZF21U8UC5hG4XPaxpMRMALtQiBJoa5ZM9eVAyP16yLt0rHPKGESb/Imi6dzTzxa3KjuKfM05SeVZWU+XZJRhZHQtc2asKtdwJ928mQEeoGACXsvUBzSY0AEi5VXo3zSRY4q3u9YZDGlvq3MpqVg4fF0egiQPImh168fqaiGsDP8Gg7AqoO0+wF9eg3gIxuBPkAg3s31R2qX1KeHY+lHkbTuDzfnqt8jU1TtPBin21jPNMIJaX/4ar169GojwuySjfqFoncRICDkimqjkCuasJ9uY7To6CbsLWrso14qJPCN/kDW3+oPsX6vk9FU5Pz6hayZJ8MpyZI8nR4CJE/6r+Kv//fxqiIUrES2vc0dhRpTYQhWnD2taSbtp9cIPrIROEME9BNH/RKjavgTTSqEbobSPRcW9i8kTfwCmaLqKSVN8nR6CJDI7rlI+7NlFdWPZUB59Hor6ufLSmqHv5dM6+fCj+D0zsNHbhcCJuztau8jXW0h6pB2spveEEm/c2myuivL+l3VC8qmt0B2U8X8nVNUAk+nhwAayR+ermZ5thqEfW3rTbWqQhY+LO2kH8eY4yHY02sHH9kInBUCGFAg7UgUcfqflTxxbjLliRhOPkGeeGUmaoi8p9NDAOnLokg7+TFeKwPqPWU9vfdiPRIqQd47wRnqoACndyY+cpsQMGFvU2sf8VqRw0DU8XqnQNbJbPrFtZnqcz0cZiZHQyuJrt0WnSOCe8TNSdZx/0VqJu/rwYAkZkkPjSW0kxu7Eas9yTqRIY54cG9uBIxA3yOAASX8iXSm4yLsC8gTVagZ5USeeKeWKRIcwNPpIbCuEU9kivgWrar//U7GlP8+XVO9pn56vZMjw3HZT68N2nhkE/Y2tvohr5kHBKQdOQySi08uT1Vf3piJqDC/U91Nfa1sen5AHBLV422G7AXNJHpJaqLEoJekkPV0W0mWsKwX7eTxvsV7GQEj0K8IlP4YSztZTK9Knnh1bjySJqVMEaniZJTziuTl6fQQoD/GiJJlt/oWqaLKN5Ir/vR8PS3s6pCRxjhKz+m1Q9uObMLethY/wvXyYAinU+3Dw+KzK1NyapJj083ZKIR5pIxR6Jk8nRoCEPLn0ks+V8IktJMQ9sfSTD6SpZ0hWB4cPBj8gDi1JvCBjcCZIlBGPKmRvNxamFCZrG6qvibyfnl2orqsBEqXZs9Hv3ymJzvkXx4ZqNUn0y9T/vNopS7L1Q/P1mOUMwwoEilSezICvUDAhL0XKA7xMSDtBA+kxqnpj6S+FmmnxqEmtHrqkZj3dHoI8IB4jV5ybSdqCPv9l6mZRDuJxj2cnNQMtIknI2AEhguBTKSWgQCmRNgZ8fy4LhD2C/Ilmp8aVz0WGvfhuvr+upocdU6pKPP/VuSufyvcLvX3ksW4B+6v9hqWszFhH5aWPKXriI5Hf3BnJPoAaa/JpEdyDk8fDgGcSlelWaesSDsJYf/h2Vr1PUUPCBxQsa6XyAR+YHy4tvE3GYHTRkD2klqamH5F08qJgT8RvkRkmUYSgxPqjDKcUtBOe/pwCEDW//XzkspyJFKKkWk1Wqk/3Jn4m4YZARP2YW7dY1wbD4YIRaAKS+3YqIqY4PjIR9Vncjb9KuQwc1Ef4/De5ZgIYGEnlNgrRSRYlGYdwv5AevYHik5AbQv7MYH1bkZgQBDYb2G/o2R1BAKghrAvKOwu4XUvKnqXJYoftlG/VcjdbySLof5RRpStWipDvau+O+J3heHrw56Xv224EDBhH672PPHVpARGh9EM+nSym6KXZAj24yt1hBhZ2j8Xeff04RCg43/6Op1Nn0qzDmF/urRVPVGhxgkqHE7t5PThGsXfZAQ+IAJYa98qahc1Tv7IYDIvRp0TQ5FiIO7X5HiKU6qnD4fADwq1+4NGOgm9SzSvCLdbh9zdVN/NgAek3Xr2D9cmw/hNJuzD2KonuCacS0voMIj6vEI3zmuIdU41YcM+luMpxP3jy9Mn+BbvelQENkXIH0iz/nNdCOu4KD37KxVqHJ/ioYA/gUfDjwqvtzcCfY9A6ZupMaY0wzper8M6ltCODuv4YZvzgfyIIOqEdCT76aLC7ZLxFJ+j9e1dEfXsl0uujA97dv62YUHAhH1YWrIH14EcBgt70d0RX/3SzJjKeHVZ5YYiEtzS8Outi1PVTdWeTheBpkWNuL8/Pc847IQNI7veqtatbCp5UkmcpNPBym4rzum2i49uBM4CgU7frC9Ho07/PDsxUs0oq+lVEifVxpRPZFAhL4ZH3D5cKz0m5K7KY8kTH2sklFC7URTVC5+jaAsZUtw/f7g2GcZvMmEfxlY95jWVBwIWHMjivLKXMuR6XQ+DGHqVFYcHA8Ou1J5ODwHaAqt6ifW7LGvNA1luipWd+OtbO2+1DeVNJLYq1hsT9tNrFx/ZCJwVAvQJ+h8joPgXYUWfULx1Yq5fln69WNfvyKBC5mlGSCls5z7hdFuNkLvPJE3EkEIh1C5hd6mxtJ8rAQFsUDndhhjyo5uwD3kDH+XyeCC80Z+ik8R56fbFiXBqwrnpsuL7hlNT7dx0lGN726MhwAvTkjr6JQ2pLq3jbLpdPVzczORJsuTwENhVNisc0YggQ9uFEia0kkf7Lm9tBIxA/yMAWYexU0PASxbNUQUEuCCCfjNismsEVHHZ6bsJ8TivEI8YXrDsejo9BBbrgAD00y9WtjIYgAICEHoX2aKaKMMgm7CfXiO04Mgm7C1o5MNeYhB2kT9IO0TwipJwfKrhVRImfXp1SprJcVluKGjaxw57WG93DASI7fusttpEoiQNreJsipPpE1lwGGblGRyOTBw/5o/xRd7FCBiBgUKgSdxLjgxCOjZHQq+p774SI6FkQ51wnoxTbuFlwu3KiEINef9B8kUSKP2ommR3JV8Jtd+dTrkxhvjwJuxD3LhHvTQIO9ZayDqknQcAsdd/d306aiw109JGoo+keOotAjj7CvoY8sZ6/lB6yIeL69Wj0EVuVi8lg3mphwFlQ1IYW216i7+PZgQGBQH66hwNpa+uqknJYvA1iqIR0BuSL+JndGthKvyOsMI3HR8H5ToH5TzxMaKsqTAy+t8nqyprUWNgKYSdURET9kFp1f47TxP2/muTMzuj/YT9pjr930fc9dnqD7dm5eQ0FnpINJOEFfPUWwSI17ujpy91RIUh8gDDqqqfyJFpVQ6mK3og4GS6o6gw5QFMllkPePe2LXw0I9DPCIijRyKl8oI/pqgx4YQqQ8qMHFGvK7TjXWVBvUucdtXo2EeVT2NMxJ3aU28RIKxu+hQRBGCn+lox2f9DebhSPdLIaMiXxNRtYe8t7m07mgl721r8Pde7n7DfloXmT7fnqj/fno+a7Hp09lhr3Om/B8hjfkSnD1Gn48dS85MScPyoiDAMq+K8BEmH0FNjXYOkO+rAMcH2bkZgwBGgv46IXroOMhxD2iHk1FjYkTN+KjnjJ8qEysgohhaIu40tvW94jCyMilKTdZqMp/+sM58yUhoWdhlWaCdb2HuPf1uOaMLelpY+xHXuJ+x3FXf9r3fnq//5+ELURBygs8Ge607nEIAecZMypLouCzpayO+UiON7le+UjAPC3rGo0+lz7GiLI36JNzcCRmBoEMDSXhxRIwysViCtg7B/oeR2n18j2d10+BxNSedeJI1DA0CfXAjPzuJPQGSvv99fUnld/X+qidFuwt4nDTXgp2HCPuAN2KvTLx1/OR7LDKn+5c589ReRdmosNJ56j0Bgr8O+XtsOhyUiDbxc3QopTJHEENOXTr9EhtCsJyNgBIxAIIA0pkSMioAB0rEXSQz1pRkifI1XCyoXFDyAyV1IwNDzP4yQ/uPBUhYIuyLF7J+M/X5EvHwYBEzYD4PSEG9TiDo1JDDkLgoaS31b+sc/3JrrFKe77v2N0MQfnTrJN3AyfaQQjoQHI9469fKGkm/ofQkJjIdVe98OPqIRGGQEsPCGE6pmCMtLZmrC8BKfnfqmQj3ihEroR/TtQRj1x8Sx962+Jcni1w+XpV9fjvpn9efFNwnZDC9Xxr/3uLfhiCbsbWjl91xjDuXlMCrW2wmSbaB1VE1W099dn61+d4NIMbORDvs9h/JHR0SgS9YZTK1Cs44E5gdJYMhqihaStNbrqrHahByJh2yRxBzx+7y5ETACw4kA/QdSmOjPtcBo6JR8jqbGkcGMKAuqwvPWEhk07RDGENbRnwwnJGd2Vdsi7P99slL99zGRYlYi2lcmwctgApD20ofTp3syAodFwIT9sEgN6XYlygAdPc5KxPMl3fWsLDRYYz5V5/7plZmo+dxT7xDIh2xX+0hUgX9pKPWfD5arbx+vxAO4fBvbum8vaLg2AkbgXQjs7ysgh1/emK3+fGeu+pOkjUT+ipd/KLsJ+7tgPPZ6ggIQKODHZ6sqazFquqIR0hWifHUifKXhxdLGY8Pcyh1N2FvZ7N2L7joqySojQn5BmfEWKIq5fkPDqHcuTYcWktBgYw4H1gWuB3M7iiiA5RyLzNbum7DIfEMoMJH17xXDl86cB6ojwfQAbB/CCLQIAQwwEUEm6qr6XLk0fi/S/pXIOiOm50dHYsQUS7z79d7eGPTrOJoSjvfBS0X4krxxUbHZF5Xx9LUKkpns17Nv7+23+2jDjIAJ+zC37m9cG5YYMmpiZadzJwoMmscr6B7lpFSSbxTto0M5/gagR/yYqDBYXiJLnuqfXmCVyVCOpLSGqEParVk/IrDe3Ai0HAEIe2ras28n4hchHhkx/eTydIygkq2akVQnwevtzUJox44vUp307oWCCBA4AJ8kosiUvt05NHqL/bAfzYR92Fv4PddXCHtmzKtC83h9Pok69TVlOr2m8GDUV+cnwxH1PYfzR0dEgIx4L5S2OpxLVT/E4VTWGOonS1tJ1sXYS+d+xMN7cyNgBFqKQDHCEDGGefrzW5I44nxKfXkOh1QV1WSw9tQ7BNCoP1vaqJ4qw+lTheOlpj8nNC81PkkEEMAQY8LeO9zbcCQT9ja08juusVhhslP/JWL0kizpNlIY1VdF1C+pU6fQsRNW0FPvEICsP3y1Hk5JRIZ5rmgwxQrzUiEeI3avOnWUSJB2T0bACBiBwyDAiKkMvWFlp3+/pFCOZfT0ClFj1L8TVODWxano2w9zTG9zOATAm779pfpzyjMR9gfq33+WMYaIMSTFoz8v/bu79sPh6q0kkf3b//4fhlZPLUSgSdh31ckQCuxjDZ1+LL36JypXRNJL3F5i95qwn+wmAW8iOWDxon6ijvyenJPuKZvpPclhsLgTvpGyEp26wzieDHHvbQTaiUDp24uP0qwyndK/U7CofyxZzMeSyHys6DHXZZgpSdkieoltAye6aSDs5NQo5bnI+0/Ss1PuqdC/l3waljueCOrW7WzC3rom714wnTpEnQ6Gmo78c2kcP1OhxqpOBz8rrSN6R4bvPB0fgbR6Jd5gTsrq7xXC8fsnq5HVFG0j4b9wRG06JhF+zVaY4+PuPY1A2xCgbydYrLqZCPVIQAEcTCfGFLZXvkpkP/38OplQZ8LSHtZe9e/UHs072d1CP7+iTNURGUY1ksfIWi3/JML2YpgphJ3affvJ8G7T3ibsbWrtfddaCDtknXJBhP1LRRD4Uh05BY0jDknTCvVITF935PsAPOJivBhpnLok0cDaUqLCUKN97MRSjsjsUPWMFHPEr/LmRsAItByBJO2AoLjfJYSj2CFJ8YgWU6LGMKJKQIExraf2SOrJbhwI+0YjhwaymG8Uk/0bRf/6VsYZosVA1EsxYT8Z3m3a24S9Ta2971r3E3bCOf7hJplN1ZmrQ7+kNNYkUMIqQ3HHsg/AIy5CyAnfGKEcZUknVu+/H65EITMeU2aazc78iIf35kbACBiBAxEoRhn6ICYyWP9R/TzlU8lixtW/Y4En3CN9kKfjI8BztdPPq79/ubqtPn65+vfPK8p8ulK9klymkHVb2I+Pcxv3NGFvY6vX10zHQoQYLL8MnV4UQYes/1GdOfVF6dbH63i94xpSNWE/2c2yJZK+qsQZJM9Y1VDp/ZcpiYnhUkljmLBu0YnbynUyrL23ETACXQSK7JGaCSlMyGJU3700Wc0Q4lEjqTMq50XePR0fAZ6rxGKnEOLxlQj7v0TWIe3/+nk5ltXFRx9vDfvxcW7jnibsbWz1+prpuosTJMN4lxR7/U+3ZXmhiLTjcBqWgHqo1HaXk90sxF2n86YsKi7vQ0UNgLQ/UMx1avANDWkd8utk3+a9jYARMAKJQAndC2Gn34ek31GAAepbigq2oL4fgw3FcdlPdteALzhneRvJkshe/a+fl4Kwo2lHXgppDyffk32d924RAibsLWrsgy4VawAdDH/RrP/p9rzSVyuFtUg7kWHoVEoIqoP297rDI4AjEnF5iQ7TjM9b4vRC2HHsLZgf/sje0ggYASPwbgQwyGBcJ1Ee/X3Js1Fq8m0QLYaaIAOeToZAMYSBNdFiIOz/fLAUBcIuqh4GGo9anwzntu1twt62Ft93vZDE7DQ+ijCOSdZF2kXYiRrDZ8Vhad+uXjwiAovquH+WoykWdQpZ71j3Sk5IOCIxFbLujvyI4HpzI2AE3okAhplC2tkIf6WLKgt1fHas7ZTbckBlnafeIUBUGMg6chhqwjymoYwgA737Hh9p+BEwYR/+Nv7VFTY7iaZmmrjrfxBRxyGJMj81mnaAIO2/OoxXHAKBTn+sGSwrPzxbrX5QaC/COWJ5WVM0gVVJZajLy5NfkA4BrDcxAkbg0Ag0CSJ90rSifs0QAUw1I6lo2j9TqMfPrmZ0sOiMtB19kqeTIbCskdWvRdYJLIDT6bPlzYjKhgMwzsD1ELd9xE4Gcyv2NmFvRTN3LzI77tSuI3UZG/2oGo+QXueU2fR8hvtSpBjCfhF7nR7bnXYXv6PO8XDMF6RflKJ6q/rPo+UM5aiOm468hHjEQYkpBkqNeWDhP0bACPQGAfohiGEKYiqFcDzXCeVIP/97BRmIUI/q+6/pORA9kfuhnoCPFDJCOip0L+F7n8nCvr2buTaIGMbIR9Gye2S1J5AP7UFM2Ie2aQ++sGJp4cUewj5BMo1IqjEShP3LG7OKxU6ZsZbxYAiPtLbgTf1ITqb/0JDoP+6rqCZFNS9DtEO8FPkBeSRsvbERMAJHQ6BL3FMiw/K0LO1/uTNf/eWuiuqbckKFOHqk72jYvmtrIoN992RFRQnyVJ7Jh2ldSfLWt99WJMvDIRgppPF+F4JeXxAwYS9ItKSOETh1EBBIHBynFWedpEgMjV6dm4jsd19oeJQseIT48nR8BMC4RAqg/hnCDllX+bsI+6Y6604UHnpsT0bACBiBD4BAxGWvJRnk2vhrIewi7bdF2JFKjpzLJEq2+p6sQdZE2JFC/qhMpz9KCvlUFvYM75thfnk2xAuS/vgxcDKsh31vE/Zhb+F911cIOzWd8tzkaDUnYk59VVECSKLxydUsWF48HR8BOuItDX1uK/46Q58PFzdCw/i1ZDFoGTe1vvgQQNw9GQEjYAQ+BAIlkRJ9FEnxyLtRkubdWpiMJEqRTEmjr/RRno6PAOF87z1X6N4Xa9U9lWeSRr6WI+rS+m7UtAUQI4sx1MfHuQ17mrC3oZUb14heDssvhP3/Z+9MvKI41iheT1mHTRg2EcUlaqLG/P9/xjMuiUYTkU0QZJNBIObdX/UUDjznhO5Gj6fn1qH8YOxiTt+eU3X56qt7cbQblRIMigEoA1C7GNUCpBRAtB5vC3AFvsU0g8OkTNhkWZY2G+GFtkRfrHyIESOlLJNlZ9MC8HqIETACBRGAJELW6Rgl3daO6u3pgRhnLvWHASVxmP/Zee1SvbtbcQQoe1mQKtii+sLGXjzLhBfH+u5hWJfwAIdPM8KelUcWfyePrDoCJuxVf8Kn7i9JexE5eDQx1BPGZZaBBjuEfWasXzWMtRj7tVXqVhwBDhZtK5OyvXegbMphWJYG+59r2hZVtoV+INvqSNiVWXEWqzjOHmkEjEA+BCJZ1xpAxM36xkSt2QfCZWmxI+k7XOtR79b/m7DnQ/fk1ZQ+Lmt3dVkJmxVFxAc4eLoqWV8kHg+U2OEcE6Sd6GYE2iFgwt4OmYq+Hgm7BEkiYddEPCUpR4j6CQMNZVgw0GCr1K04AmTQkXJcb/aVzY/KsDRUy66+sR+tq7GmZqI2YS+Os0caASOQDwGIur7igUcSN1fH+sKskjVX1ac199eVwBmT+2ldCR0y8G7FEaD0kYOma+pEjPNYC5ZF3FeUxCGxY8O84vh20kgT9k562rrX1om6V4R9RpMzqgBEJupxEfgJHT5Fk90TdbkPB1uhZFZWYmZF7qaaqDlwtLp9ECMlM5GwK4HlzEo5rD3aCBiBsyOQEjcolEDYU9KmNXEzNZIlbrzTenZcv3Ql55fWd/Zj4oYEDi7XCBBwponETSTsJG60DrAeuBmBdgiYsLdDpqKvf94KDQHCfrWeZVVSZmVMGZUss9LrrdCSnwHq1udxNcXdlMNGIus4msauEhmeBfNz2g4t+XYebgSMgBE4EwJk1yHt+oq7e/XB7lBXaSQdP47ZsVq4Qtf6YPGBM0Ha9iII+XvVrG9+0PyvSIZ9fr2hQ6h74bUiwgQ6ThbXAe+0toXR/yEETNg77GMAScwOHIWowX5dB0znVL94fTzbCr2kukWc7+jdrl0s9enAMANHU5xNXylC2NFe39VBVA6jfmoh7E6slILag42AEciBAEQ9EXbKMUZQC2t2dlevR7WwwRgt75sD2C9ciileOstEpAzmVTzHlJ1n2lcGnnO9ZNdN2L8AoF86RsCE/RiKzvjmNGG/KQlHDhwRKYnB9Y6DRnS2St3yI6C1MDYm5xfLO5kyjCLboQ2ZZVDT2NAk/Y9WTTvc5cfXI4yAESiHAISdeYo5iB2+5MVRk9AAhP1W04uDGB2vy71dR4+m9HGnoUTN/qFiRthfSpP9pRI5fyhyKBWiTre8b0d/VP715k3Y/xWial3QStj7ey5kE7PI+g9TGWEf7OuWw2lXNE2ynFf+Zx/JenMx3JI6DFbUWd8WYT+I9YqoAhweZSbhsWJR/8SY/+08wggYASOQG4HWeYrdPcojY5fzNYphd3G7nslcr1GMcSuOALKN7Kx+EGEnkmFP0r4vtPPKWSeIugl7cYw7ZaQJe6c86eZ9niTs6O9m2rt3pMNLhj3T3pUGr3R4/dd+/g/HceZK+atN1as/W9gOTxdllKT4bvdjLIMRX4/qDDHFZbKeH2SPMAJGoDQCibRD2FszvCjD3JsdlpnScLh3ZUTlkSbsZcBmzcWLA2JORN739+Xd8Fy7rsRE2PFF8ZpbBunqjzVhr/4zPnGHnw0zQmD7887MYMymkFFBfxebalQB6EzibvkQgLCr2CUe5uKA0eOFrfDkzXZ4/GYrYJbhZgSMgBH4nhHg4OmDayPh56sj4YH6mH52K44AhJ0ySEpfiBB2nK5/0+7rM/Vjwq71tpvTp25GoA0CJuxtgKnqy4mwE2s9XeFHbXtiS02EsCPl2KdtUaIJe75PARkrJufUIehPRNifKrv+RJ2fmY6pGSWr5WYEjIAR+B4QiIkG/cMcBkF/MAtZHw73Rdgh8ORuopqVkzi5HxfiAijBoBaDNweEnV3Xpws7Me41S2LIrpuw54a3owaYsHfU4w5RIYaaukjYZTt9j21PbX/eE2mHsON6h7Ndr0g7E7Tb2RFg0UMRIOv/RN3d1ol5UzbUcdFj8dPkbHTPjq2vNAJG4OsgAEmHVOorKseMSiHsvtaE1CmRuSiR8Kxk44KTDTkfA2o8nFlKa8OyNNgfxyTOlnZet4MJe05AO/hyE/YOe/iJrCfCniZlsimX5XCKMkx3F3/pm7Dn/WiguIBJBtmUzOX0QFueql/X9id9U4dQ08EiJLz891BehH29ETAC540AiQYMlNLuK5K+95XAScmccRF2JH57tCaQ0PG8le8JgO/Rp0/h72aijAz7r/Nb4VeVSdKR+CW77gx7Plw78WoT9g576ofNSYPJeUAZdmoUfxZZp17xshxPu44zKRBK54DzfDzIpFCnSE0iHRlH6hSzvhu2JPOYDhYxORvePOj6WiNgBL4GAhmhzAg7CZ0RHTL9qVkqSUyu130qk/TOa/4nAL7uBQdjAAAHuElEQVSsDbFLcGBJztePRNgfvVZXRDkmEXbWBzcj0A4BE/Z2yFT0dYh6yrIPSAkGov7wmgi7DhnNqCSGUg22P50Bzv8BYFuZyXcvGiMdhTUZJT1f2Y067M+lBrAtDV4m5pRlN2HPj7FHGAEjcL4IJMLO2RvWB2Qc71xGjCATJICwI0LAmad+JXlcKpkPf/H1qHevJHuMZNgjYRdZ/+/8puQe0WHPlHpYH9yMQDsETNjbIVPR1yNh16TM5Izl9C8i6g/nIO2XYg0780Wsrxab9NSR70MAppk5hkwyRM4h7BhjZAYZu9E8I5F1/0GUD1tfbQSMwNdBAMLeWhKDUdJt+XLcltTvD+oT0mUnuYPjKWsG64NbPgTAmJJJyPtnwr4Zs+y7SvKwHgCrhR7y4dppV5uwd9gTh7AnFRMm4F/mLqmPiLiLsKskJpuKXa5R5GMBrribYphEXBVh/3Mts58m4nbHhJy6l70iKHuMETAC54kAJDKtCcQhEfZbkzX1geiAPakMO68NqhNNKvOjD8aRrStgnPRImfWUZd/dP4rlkUmQIP9v94hOQcCEvVOedPM+mZD1FSfoQTmaQtQjYRdxRyXGrTgCYIv2Omow9NXt/fD6XUN9L/bjTEqTtJuwF8faI42AETgfBBJhp6SPTDuJnBsTA+HGeE2xFmvYR3QQdVilMiM1FGM8c5VBHsIeD5xy8FR9B8LOL9Q/RrYMstUfa8Je/Wd84g7j1pxeYXuObAm16w85eKqI06lbcQQ4G7AhN1NI+4YOnL4VYX+z3gjzG40YqW+PW58m7MVB9kgjYATOFYH/I+wqe5kTWZ8b7w9z9VqYHOmV22mPem8YlSa7CXs5+N9u7WdmevLoQNZxR+WT2bqcGe6V++0eXWUETNir/HTb3Ft22PE/YVgZdlRisj4cpkZM2NtAdqaXj6TBjjLMukph1iHsWx/DwvtGWBBhX5D2LrbUJuxngtIXGQEj8I0QOE3YqVO/Wu8P18b6Y5xSScyo6tjHBrNuJZNyD2ZV68LTxcxQD1O9LRF2DqSiIsMurZsRaIeACXs7ZCr6eqyT04l0IoeLME3KtNhHYialorf9TW4Lws5kvKbM+pqyKBD2JW1/LomsL0rKC6lHE/Zv8ij8JkbACJwRgdOEvSbCPqvzTLGLtJNhHx/qC3UR93ER9y4kTdwKI4AYwTM5ndJ/k0/H1t6RlNs+RYUedmndjEA7BEzY2yFTsdeZBqiPYzszaYEj3/WTnE5TR77LrTgCONmtiqCz5UlcUVwRaUcVYFnfNw4+CX89AxQB9Bxcr1gca480AkbgfBBgbUj165rCJN94IcyIsCPzS2fndYKu9WFS0YS9HO7swv4uf47Yl0XYPxyGAwF/IDfUA5nupbW63Lt4dBURMGGv4lM9dU+pbh2C2INjnZxMca3DIOPuzHD4UeYYdy8PhXET9lPI5fsRwr6ibPqKsulvIeyQd2VTyLRTz96QCyq+GNkuhwl7PnR9tREwAl8DgUTYY0mGfuiXQdK0suqpTzVJ+5ScsPkeF2y34ghQLvki+nPshD/kz/FeAgX7Whsah3/LeO8zYc9KV4u/j0dWDwET9uo90xN3lMg6h0xxLu3rvtDsF8OoCPttEfXb00PRKKOu7U634ggcKjuyrJr1JXVizLRvH4Q1TdCrivuakJN0lzPsxXH2SCNgBM4Pgc+EPaujxtF0crhHXRl19Wll1ZH8nR7tl5JYf+hW0setOAIbEiV4+XY3vFIn8vMHme3tqWSSmNZqEmwm7cVxruJIE/YqPtWWe8oIeyblyARQk2PdgNzqiGM68X9Lxhi3pjDIGIo/twz1tzkRYDtzSQdMlzb2wqIIOxn2dzsH4Z0mZOJHCLtKYfQViXvOX+/LjYARMAJfBQGy65x3pDSmV4R9YqgnjGt9GFckq35Ftewzo7Uwo8gurVtxBMio/ylDvb9Wd2Nc1/qAtCM+HUT+gGKNYA/WhL04zlUcacJexafack8QdiZjJgHaoA4UDfZdjLGuCfmGHO1uTg6GmyLtEHi34ghA2Bch6yLti+t7sYadyXh95zAQ949aMuyeiYsD7ZFGwAicKwLHhF1rRV/XxcDaUB/qjpEM+xXJO0Lar4zVTNhLIg9hfy0jvb8g7YqsDdsi69tSiyGyVpNcYzfWy0RJsCs23IS9Yg/09O20EnYmgSGZYqReV/bkutzsboiw31AcldauW3EEjgm7tNcXRNzJsLPdub4rwq5J+qPqFJmAnWEvjrFHGgEjcP4IJMLOetGrssm61oL6YHdM4uDPMSuifkVSjybs5bHHVA+iDmmns/sKUd9qknYT9vIYV/U3mLBX9ck27+s0YUfKEf11OluecyLq1+VqN6duwl7uwxAJuzLrkPUFkXYOn25IAWCjhbDHrU6xdqKbETACRuB7QIByGGqniYmwj0HYdc5pWnXrsyLrGWl3hr3s84KwR7KOAzYZdp1xgqwj74gmuwl7WYSrO96EvbrPNt7ZacKOlOMlkXUi9YnXxjOyfk3OdrjZuRVHAMK+AGFvkvYsw34YVQAg7inDzuFfE/biOHukETAC54tAIuwpww5RJ4EDaU8Z9lmVxdBdw14Oewj7fJOsz7/LMuxbe4dhM5J2E/Zy6FZ79P8AAAD//+DRuWIAAEAASURBVOy9+WIUx7LuW6B5BiQhBIjJBtvLXmufl7nPdd/q/nvO2dsDNsY2CCE0onkG7veLrGi1GjGoJ3VVR0IqqoeaIqszv4yM+OLK//P//n8fsiil1cAHte57/aGRr+jfteFe1T6TU2MD2b2pYdWRbG56WO/1l1YP7bixo5P32fzaXvZqdU9yN3uzcZC93T3O3u4dZ+uSR8fvsytX1A76c1UySmggNBAa6AQNvNcA8YFxQrK/72p2Y6Qvu65x4rrkrWuD2dzkSHZXY8Xc5HDW33u1Ey65sNewsXeUza/sZS9Xd1X3stXtw2xj70T12CSjNcPDVY0TjBdRQgOugSsB2F0V5ZS1gP36SALsdMQA9jkAuzrhOYH2CXXQUerXgAF2OmGB9nl1xA7Y6YgB7nwegL1+/caeoYHQQGs0cAawC5AzPmDYqQD2qnEiAHtjbbCp8WC+apwAsDM+pHHiRHA9AHtjGi7v3gHYy9u2dmcfA/a+ZD0xwN5vgN2sJwLtAdgbexgA5G41Qb55e1CxmtAZB2BvTL+xd2ggNNAaDdQCdl+FRd66PmirsL4aG4C9sTYAsL/CqKNVWAw7q9tHBthZhQW4B2BvTL9l3jsAe5lbV/dWC9hvjCbAzpLn9PhAdkdA/e4N1QDsDT8JAPIXKyxzqmrJc3FjP9vcT0udm1ryDMDesIrjAKGB0EALNFAL2Cdy18mJod5s9vpQxXXy/vRIuMQ0qH8A+wKuk+uqkitbh+YyCWBf3wnA3qB6S717APZSN28VYJdvIu4YN0b7zcI+KTk91p8Aew7ax8MlpqGnIQB7Q+qLnUMDoYFL0kAtYL9mLjHJfXIWH3a5TIaFvTmNswVgF1hfWN830A5gXxNQX9s5EmA/MiMbY3X4sDdH32U6SgD2MrXmOffiFnY6ZDoBgPqkrOyTIwLsuYX9zo0hs7IHYD9HgRd4KwD7BZQVXw0NhAY6RgNnALuCTj3gFGlBpxZwKnICyXCJaazZtvaPs9cC64B25LIB9iNzjVnNATukBAHYG9NzGfcOwF7GVq26J++IzwL2/mxKoN0Au9xhAOx3JAOwVymujs0A7HUoLXYJDYQGLl0DPk5g4BkAsMvCTsV18tY1GXS0CgtDDDIAe2PNtQ1gf7tvYH1REsC+Ij/2FQWf4s9OGwDYg02sMT2Xce8A7GVs1ap7gtLRO2N1AWKGAayrSt6Uhf12DtaR40PBElOlugtvAthfyof9BT7sxhKzbzRdBJyGD/uF1Rk7hAZCA23SgI8RDtiN1lGrsMQ8YWH3OKcA7I03CIAdoL4oUgLk0taB/NgTYAe4Q6/pYB0re5TQgGsgALtroqTyDGDXj386912H0vHmhAC7AoqsCrCPBWBv6CkwwC6wTuS/scSIh92ouuDYVUARn9P/emfc0Mli59BAaCA00CQNBGBvkiK/4jAJsB+I9hfQLgv75mG2LOu6W9oDsH+FErv0KwHYS97w1YAdoEig6TRgfTxZ2GEA8BqAvbGHAUAOWDe6LkX/Q+tI0iRPnhSJkxrTb+wdGggNtEYDAdhbo9fzjgpgJ0fHG6zsAu0G2OUWA2BfDgv7eSqL93INBGAv+aNQC9gNqBtgH8hmZGHHP/GWQDvLngHYG3sYAOyJXzfRdaXESYr8z/l1DyPTaWMKjr1DA6GBlmggAHtL1HruQSuAXWAd0A5QXzLAfmTbYWE/V23xpjQQgL3kj4EDdqQSHRtIn5Hv+sxEfzYzPmhAfcYA+1A2Othbcm209vYcsMOvC88ugD1x6ybQHoC9tfqPo4cGQgP1aeA8wO4UwBhzqvN1RNBpfTr2vXYOTswdZknjw5JA+5JcYqhvAO6SJE7Cd92ZYny/kKGBAOwlfwYcsL9Tj4z/9K0JgXRZ1s26ru0ZqjrkGVnaA7A39jAA2KHqwsq+sCbryeZBzq0rjt3dowzAHtH/jek49g4NhAaarwEH7EhYYqD9JeAUGmDGjDuTiSkGNrEA7I3pH8C+vCnLOoBdYwTjxBsA+8ZhtqhtAn97NFAEYG9Mz2XcOwB7GVu16p4A7O/eZ2KKUS+gQhIMAPsswP0agacJrCMDsFcpro5NB+yAdYA7FnaSYXhSjMM86DQ64jqUG7uEBkIDLdOAG3YYJgZ6Bdg9XweAHQs79L8C7QHYG2+CXQA7zDAC58s5YF8UWH+t8YIqA7tZ2HuuJtn4GeMIZdFAAPaytOQn7uOdeuD3MpsA2uURk91W5wtonwW0SwLUvY6ES8wntPh1bwPYPSEGWexgAQCskwxjTcFEByfvrCMOwP51+oxvhQZCA+3RgAN25GBvTzaZ0/+SZI84J8/VAf1vWNgba5Pdw5Ns1QC7eNclFwXSF6giKXityqTJwLoGih6WxaOEBnINBGAv+aOAK0wC7brRHLAD2qluYZ8GtMufPQB7Yw+DAXYFEb3OM9hhYQeskwyDGoC9Mf3G3qGB0EBrNFAL2C1fRw7asbAD1G/Lyg4FcAD2xtpgT4B9Rf7qgPVVSQPsGjcA7K9UzcIu6zpgHdeYKKEB10AAdtdESWUtYL9D53s9AXYs7GQ7BbBPB2Bv+Ak4xsIOVRegXZWgIrLXpSx2AuzHYWFvWMlxgNBAaKDpGjgD2Pt6cvrfRAFMjBNAHfpfZJ9cZqLUrwEAO0B9dfsUsAPUWZUNwF6/XrthzwDsJW/ljwC7wLqD9gTYE2ifEmgfGQiWmEYeBwA7vLoAdui6CCTCkuL8ugHYG9Fu7BsaCA20SgO1gP1mngkbgw4xT1D/Wr4OuccEYG+sFRywr8mYkyzsCai/CsDemGK7YO8A7CVv5PMA+11AuyqAfUqW9Sl1ysgA7I09DMcKFDCgLss6/utG22WAPfHr7oeFvTEFx96hgdBASzRQDdiHZGG/qTGBnB1GAaxxwvJ1ILGw42AdpW4NGGAXWF/T2ABoJ9DUwToyXGLqVm3pdwzAXvImpiMm4BQ/drzhAOq4xGBld8COFSUs7I0/CAB2QDqR/86vW6HskrV9/yh3icn9Exs/YxwhNBAaCA00rgGPc2K8GOrvSVZ1LOtaeYUCGNrfxCg2GIC9QXWfsbALsC+a77qs7Ov4sAdgb1C9pd49AHupmzfROQLY6YgJOPeAU0A7nXHyX5cfe/iwN/wkANgTVZfcYADtqgQULQqsI/cE2AkkMpYY/YlwooZVHgcIDYQGGtQAhL8wicHBDnAfFmDHmONMYuTqSExiKd4pLOyNKdwB+6q5xOQsMYD2cIlpTLFdsHcA9pI3cmWpU73xFYHFWXGvO7VjAuyJiz0Ae+MPwgmAnWAiKLskAezQdBldF4D9UBb23Lp+NQB74wqPI4QGQgMNa8ABu1vZhwd6bIzw1VgAu63CyqiD7A2XmIZ0XgHssMTgEmNjRLDENKTULtk5AHvJG9oB+wezsAuws8xp1pO01Okc7MigdWzsYQCwWyCROmH8E0kzzRKnW07oqM3CLrAOXVdY2BvTd+wdGggNNK4BADuxTpavAwu7yAeIc7orKse78lnHJWYSt8kxSdUA7I3p3HnYjSnGedjNLSYZd8KHvTH9lnnvAOxlbl3dWy1gtyAiQLs6YCwnUHalOhSZTht8Fk7efcjWdw6tvhXv+pI643llPX2ppU4kHXUA9gaVHLuHBkIDTdVALWCHfGBOWU3vCbAjZ2RZvy7WmBujA1Z7e8LU0EgDkOl0hVVYrcAicZd87ZlOBdxpj8TBHplOG9FzGfcNwF7GVq26p1rAflMWEqL/WdrEcjKrYCIi/7G6jw31Ve0ZmxfVAFaqt0qUtLF7JJnoHF+s7mUvBNaRAdgvqtH4fmggNNBqDZwH2O9PDWf3BdaRMMZcF1i/NtIv2R/JfBpskB0BdmKcljf3Tb4RWF/Ua5da5MgNOwHYG1R16XYPwF66Jj17Q9WAnajTaXW402SwE3A3wC6wTjIMMtkFYD+ru4u+ArBvCqxv7h2bhH/9HwH1v1d2TdJRh4X9olqN74cGQgOt1EAtYB8d7M0eCKg/nB4xCWCfEFifGO4zGdk3G2sNxgFjEZNlfUmgHaC+pLGCvB24UX7Qv6tOTiAZJTTgGgjA7pooqQSwM2NHZvKaJuX0pED7FMBdHfEdAfU7SjmNHFeHHKV+DQDYt/ePsy0B9i1Jljz/WtlT3c3+Xt7Ltg+OA7DXr97YMzQQGmiBBhyw038ReDo22Jc9ujmcPRJgR0JIMK7VV8YHjDoB2BtrBMaINwLr5Oogbwdg3ZLrbaV8HcSbAdjB6sgooQHXQAB210RJpfpgAfZE2cVv/8ZIn/wQBdplMZmWa8zdyWEFFwmwS2JBiVK/BhjwdgTKd/ZPTNIJP1/azZ4vq0pu5YCdAS+CTuvXc+wZGggNNE8D1YD9RH0Y4PzbmZHsm5sjJgHso0O9inHqszinAOyN6R7ATjZs6mtVxokVgfUVkRWsKPYJ25qGCGN1Q0YJDbgGArC7Jkoq+fG7lR1akusAdgFzJBlO5wTUrU6NBGBv8BmAZQE/dYKKkFA7Pnuzk/0psP5saccs7w7WA7A3qOzYPTQQGmiKBhgjAOoYHAywa3x4cmvU6mNJVmJHRPUIewwBqVDSRqlfA6y+vhYRwev1PZMA9lXFPlHXcsDu1vUwsNev5zLuGYC9jK1adU8VwK736GavqTNOtdf82O/JV/GewPrc9LDe76/aMzYvqgEmRnCt7wuskyQJwP6HAPsfi9sG3PFtD8B+Ua3G90MDoYFWasABO2CdOiEL+3e3R7PvZ8ckxxTzNGDZT4cE2smCGm4ajbUGLpOvBNYX1lQF3Bkn1hT7tLZzLIYxWdh1eMZqd4tp7Gyxd5k0EIC9TK15zr3UAnYLHNLyJqB9Uv7s9wXW78lXETYAWACi1K8BAPuBgPq+6sHxOyVQOsqeCqz//lpVMgB7/bqNPUMDoYHWaOAjwK6x4QcB9R/uqN4eN9fJgb6ebFB1oO9qAPYGm4Fx4JXAOnVeleRJ6wLrb3cF2FUJOg3A3qCSS7p7APaSNqzf1keA3YKHemVFSRb2+7KsA9rvC7QHYHet1ScB7IfH71XfZYcn7wXYD7PfBNafUhe2s429o7Cw16fa2Cs0EBpokQYcsLtLzDW5S/7rznj2r7vj2Y+SEBX0917Na48FQ7boUrrisAD2+dVdA+sG2DVOvNV7b3dPDLQHYO+Kx6CumwzAXpfairNTLWC3aH+BdQA7FvYHWNdVkQHYG2tXdH108k71vdVVcbH/+mo7+21hK/sVwK5lz3CJaUzHsXdoIDTQXA3Qb8EO437s17XS+qPA+k8AdlWym/b1XFW9YllOw6+6Mf0D2F8C2EX5i1yV3/qGAfZjyZOwsDem3lLvHYC91M0LQ0wedKr7ZJltTEB9nCquXTpigLpVMQLQUUepXwPo+vjd++xEFUkQ0S/zW9kvrwTYVd8GYK9fubFnaCA00BINqNuygFOndbyhceCnuYns36o/zSXAHoaG5qkew83LHKyfAvYTc5kMwN48PZfxSAHYy9iqVff0EWAXUAe0jwHYRe/4UED9wc1RkwHYqxRXx6YNfAD2nHEB30TAOqD9ZwC7ADwMC2T2RjKBihIaCA2EBi5TA/RbuPO9f58ktL8JrAu035uwcQJiGIIggyGm8ZYCsL9Qbg6ruYV9U1TAW7Kub4pBhvZgbIig08Z1XbYjBGAvW4vW3E8tYCeLHWB9dLAnB+wJrD8SaCftdJT6NWADn8A6gx/WKiL+fzYL+6bJdXXUV3X4Kwx8gdbrV3TsGRoIDTRVA/RdjBUUADuWdazsP92d0Os+67NwhQmGmKSjRv6y0vqPcnNYXdkxKsctUQFvCbRvSwZgb0S75d43AHu52/eMSwy3OioeXcA6ko740cyostmpStJRR2lMA4B1Bj6SVQHQHbBjZV8TgKcEVm9Mx7F3aCA00FwNJL/0lF2TldcfBdbxX6ey8srnrAmm7zX33N12NFZa/1reUfZrZcBWfg7Ghe2Dd9mO6IB3ArB32+NwofsNwH4hdRXvy4BHA5H5pQPUSYJBxVfxGyXGAKx/E4C9aY1rhir9wZLyy6tkXUempBhwAJxas5p20jhQaCA0EBqoQwMYEHB1MZcXvSC2yRhiBNaRkBGEkaEOxX5iF1Zenwuo/6WK5PWu8ndQAe0UaxPNjmKC9AkldunbAdhL3vC1gH1YiS9GVIerAPu3Au3f3BozF5mSq6Ott4ev4q8wxMh/HaYYfNrl4l4J8KJtokNua5PEyUIDoYEqDXgfBAtMr4JrYIKZEmD/XnSO34uLHUnOjijN0wAA/c832wbWnyuxngF25e4g6d6uJCUAe/P0XaYjBWAvU2uecy+1gH1IyS8A7UP9V22pk9TT3yqjHRLLSpTmaQD6rqevtyxx0lMD7EfZEQwyRvuYLO1mudIfk807dRwpNBAaCA18UgO+CogknoaESIO9KTHS9PhA9nh2NHsiI85jjQ0k24vSPA2w0vp8aVugfccqgJ3M2F45E+NBBJ02T+dlOVIA9rK05Cfuoxawk61uUJ3zkCpLnU/UIT9R50zHjGUlSvM0QArqP2RJeaYsp88WdywF9YESK5EFFYmrEgGodM5haW+e3uNIoYHQwOc1wLgAWCfWBmCIiySrrhhzAOy4SuImSSV3R5TmaWBNK62A9WcG2LfFHnZsYH1f4wKgnRKAvXn6LtORArCXqTXPuZdawD6gjHVWBdyvK6MdgP07LX1SA7Cfo8AG3toSRRdLnvgpUleU0Q4/RV/6NMCu44clpQElx66hgdDAhTVQPS70CLA71S85OgDsD8nPkVP+wioWpXkaALAD1t2QQ6zTvgw4+wLrgHZKAPbm6btMRwrAXqbWPOdeqi0pfIyvImmm8VXEN9F8Fe/IV/H2uHXU5xwi3qpTA0T8w7X7T865u7x5aDy7cO5S34v6keXooHmsU8GxW2ggNFCXBtT1mHUdSVIkjDdWNSbcnBjI7k2OZHNTw9nc5HA2EoC9Lh1/aidimX5/vW31D8m3e3KVlJvkoUD7oSQlVl4/pb3ufj8Ae8nbn2VP1j5NapPOuVcViW8iLAD/UmDRD5I3ZVmJ0jwN7Crif2FtL3u1vm9yafNAFF7HRuMFlRdc7YmdIVnZm3fmOFJoIDQQGvi0BljdA6xjNOiREWd6rL9SZyYGs9vXh7LZG0Mmh8UsFqV5GmClFRIC6tOF7WxDrpOWHVttcfIujdRY2DGzm2zeqeNIBddAAPaCN+DXXL51ATliF05PFl1l8ME30bh2c85dOuoozdMAS5xvNvazJdU3bw8yAPsbddZLsrS/USUjKsvRtAkTqCihgdBAaKAdGsBYoP/ZOwF3Vltvqe+flWV99tpgxjgwI3lTkjokv/YozdPAssYBy4At9rBfRfe7qQynaQKVss3amRinm3fKOFJJNBCAvSQNWc9t4Jv4k1JPexrqW+qkozRPAwSXrgqgr20dGKXjm42D7JWA+8LbfVndD7JjWVNk3DLQHoC9eXqPI4UGQgOf1wCAHbAOzSyAfU7W9Lt5nb02YIxhsIZRBxTvFKV5GmAc+Hl+M/sf1Z9fblp20+YdPY5UZg0EYC9z655zb/i0v5eDDBLA/u8csCOxsqRluEjYcI7qLvwWfolvdw4z+Nipi+qo/1ndy16s7qvumd9itYvShU8QO4QGQgOhgTo0AGBnhQ9JTNOD6eHswdSIgk2Hzco+IQYxYpyQfB6lMQ0w3hqRr+QbWdj/R0AdwI7cVqwTLGFXNfgio4QGPqWBAOyf0kxJ38eq8l5WFZbgRnPA/h+5xADYZ68NWYdhnUf0HA0/AccyX22LKSbVk2xRlvU/lY76OXVp1wC7xxMgo4QGQgOhgXZowME6EkD+WPSN394ayb6VvK2V1tHBvmxEjDGMERAVRGlMA4y3BtoF2BflIglQ/+8csENOYFlm89XWxs4Ue5dZAwHYy9y659xbdUdNZ/wfAXUA+3/uXctmrw+mmb7AOsGQASHPUeAF3iKAaP/oRNy6J9m+6BxfC7D/Lj72VLeNFQCgTobBAOwXUGx8NTQQGmhIA4wD9E9IkiZZVlMym6reUcCp5euwBHs9EV/TkKYT4QPBvQ7aF+UW+d8vNwyw/7eAO4A9DDcNKrlLdg/A3iUN7beJ37R11upARhT9D2D/99y4yVl11LhoEAiJDCO7a60+yXKz0XWdvMuORNmF7/qvYgWAHQB5oKDUAOz16Tb2Cg2EBurXgI8B9FGAc8gHYAz7UYxhd24MmlXd6H9lfcf6G6V+DWBZR88pZuCDrbQC1P9nfkvAfVO5ORJgZywgniBKaOBTGgjA/inNlPT9assKdF0/Caz/pI6aCmDH2ssSKDI66sYeAiwqNkGSLzvuMVjYfxFQ/1XsALAEwCKTJkjBEtOYpmPv0EBo4CIaEH7MmUkyY4ExtjBAuwD7ba209jIGYLyJceAiaj33u4wDrGYwBiBxjfxZ/b9VgfY9B+zSNTqPEhr4lAYCsH9KMyV9v9qyMtzfqw56zDjYkfiwY1UhE2q/lkkDsDf2EFQsKwoawLrCUujP6qB/EZUXgJ2Mp/TPkTipMT3H3qGB0MDFNSDMboWVVreuI3GNpO/HmIAMA/vFdVu9B4CdFVaSIrHiig+7rbRqDEDiMomubbU1AHu16mK7RgMB2GsUUvaXAHZbnpMcEmA/9V0czW4JsA8KqA/Kd5FlUjqRKI1p4IM6a4A7gyMWdgA7lF7UXQF20zCgvbHTxN6hgdBAaOCrNeBAHGMBsUzVgB16X0A6UUwB1r9apZ/8IuMtFL+4QB4IuJOb4+nrHdVtq8Q52UprDto/eaD4oOs1EIC9yx4BOo8E2tNS6JPZ0ezJrdHssSRJM7C6Dw/0qPYGYG/yswH/Lu4wv+LDLiv79n5KmAEXMhZ4SgD3Jis9DhcaCA2YBqyHSd1M1tebXB/xmSaB3ncEnModBgNOJNBr7gPDmIvby54A+74k9L5/iHzgjzeqksk1MksuSGEka67yS3a0AOwla9Av3c5ZwH41+wY6r5lE54VlBWtLqn3mx/6l48XnX68BUlI/W9zOnllHva0Md8fJ8iKrCxYYClat/P/XHzi+GRoIDYQGPqOBtMqXVvv4mhlltJKKO8y1kT6jc2Qs+EbGmyklS4rSPA3gt757cJztCKzvihEGw80z0fr+ubST/amxAKu75k0VK3vzzhxHKpsGArCXrUW/cD/VgB33l0c3lSxD9ZESZgDYx5UsA4sLMvh3v6DMC368vnOU/SMO9n9WUl3Tazjat9SJY22nxFL0BZUaXw8NhAa+qAEZeeWaB7VgSuBDUiSvU6P92b3pkeze1HB2X8mTrut1lOZp4DQfB/38sQH2v/J8HMgA7M3TddmPFIC97C1cc3/VgB3+3QfWSZPlLgH2a2S4k8UFGRnuapTX4Ess6gtre9nC+r7qXrYsizugfW3n2CSHZ0XU/UsbPF3sHhoIDYQGTAMEPuJ6h8QrZnqsP7spS/r0eH82Mz5gDGG3byjLqZjCJgTmozRPA8cKNKXv39w7MomFHaPN38p2/c/KXgLsedKkiBtrnt7LeKQA7GVs1c/cE4Ddqnpt2GDmJodSVWd969pAdmN0IJuUheWGOvMA7J9RZB0fYUVfVlpqr6SoXtw4tFTV+DXiv07CKgftdZwidgkNhAZCAx9pIPX5CbQD2UmOdEcrqlA4ktl0anwwm54AwCe3yI8OEG/UrQGYYTZ2j7K3Ms4gAewvZLh5ubpv8lAuMVcDsNet327aMQB7N7W27pWOm2VRJICcJBl36bzVcc/QcQuoT8niMjU2aBnwukw9Lb1dAo/eqsPGNYbOm0RKL9dUZWlBAtixsHjn3dKLiYOHBkIDXaMBA+zq8yEcwMLOiuoDuUEi79wYyq7byiqrq/3Gy941imnDjQLY17cP1e9rRXX7KFuSoWZeq6zz6vOR0D2SrBBDTVjY29AgBT5FAPYCN149l169NApghxlmVpYVJID9piwsN/X65gSAvaeeU8Q+n9DAoQJLt81fXQFIsra/lJXlOb6MeQCSA3ZLWELvHSU0EBoIDTRBAwB2z8EBYH+sANPHsIPdku/65LARDYwY4UBfrKw2Qd/Vh6DfXxVgX5ML5KoqK6uvlZMDg82CJIA98d4nd8jqfWM7NFCtgQDs1drogm0Au/pu82XsVza7GcC5LOr4MQLYCTydmRgyCR97lOZpgOCjUz7ed+a/CBfvb0qegaSQYTYSaDRP53Gk0EBoIKuAdRhLAOxkNCVZHvLhzWG5R/bYimq/JH1QlOZpAMC+vHmYrWwld0gs7LhC4ga5qG0s8AD2cIVsns7LeqQA7GVt2U/clwN24XbrmAk+giVgShL+3dtyj7mtJVICkIYCsH9Ci/W9jZWLzpkgpCOBdwKPqgH7e30OS4wFnXIKbcfQWZ+uY6/QQGggJWwDoQPSger0+8TJ/ABgF+c6EteYXhlv4GRHhltGc58cEiaRLAnf9Teyqi8JvEM4sKSKPNYkKvX7YWFvrubLd7QA7OVr08/eEdZ1p/fCknJdjADXxQpDBbDPaXl0Tn6NSJInRWmeBpgsYeE6ef8+eyf5Qr7rv8uy/ru42QHuAHlf/WBgpQDY6cyjhAZCA6GBi2iAPiTvRsx6CxCn4gpJoqTvZlUloXP0z5AYDKI0TwMkRoIVDHaw15IAdtjBVuXPjgSwS+3q55OVvXlnjiOVTQMB2MvWol+4HwfsdOZ0zuNDvZWK//oDcbI/ECcvkqQaUZqnAXSeVjhwS/qQzYsl4A+Bda/w8Sbr+wd14u9zsJ7Sg8cQ2rx2iCOFBsquAYC6AXb9YRtGMK+snJLZ+vGtMZN3tZrqYBEZeL25TwdkAxALzCtmaX511wD7W9E8buweZ0iMN+jc26C5Z4+jlUkDAdjL1JpfcS8OGunEsaSMDJDtLtUZAXay3T1SMBKSjKdRWqeBV7K4WOZTgXYy3u0eKnU16avl8wh4pxN395gYRFvXDnHk0EDZNGBgXTeFYYDtYctqmvp5+nXLappnNsUNMkrrNLArwO4J8/5e3jE3mC2RDkDzS9I8XCUxyFhfH5aZ1jVECY4cgL0EjXiRW/COHLcYOgiynQ6KDQYJO8wTLZM+psr6Mibre5TWaYDgo5dKnPFCVhcsMFA+buydqCrJhjLi0T7Ef0VH3ro2iCOHBsqoAfp5wLqMtyZxfbxBfg3RNk6N9mV35fLodVqEA1Fap4EdgfLnSzvZcxllni9tG2DHOLOnuisDTYpd0sqGLiEMM61rhzIcOQB7GVrxAveAZZ01UiSdA4FGsMUgoXL8Ht/G2+PZ92IQGB+KjHcXUO2FvwofuwcjLRGQJACPf+MbVWjACA6Dn1fNY6D9wieIHUIDoYGu1ICBdWU2fSfQDiA0QgExgM3miZKm1dfDDgZYh3s9Sus0sC3ji7s9Igk0JVmS1TxuyQzr+mOydZcSRy64BgKwF7wB67l8B+0Adqy3nqiHzvvHu2IPuDuhOh4pqutR7gX2oSPHqk4SJcA7vOye/W5h/SDr0SRKrqcpIIzGihIaCA2EBr5CAwD1xL0u0C4z+9zUUPZIsUkPiVFSkOmELO7UcdWIVfoKhTbwlS31878tbFUqgJ02MV58SVZDQOrRwzeg5C7ZNQB7lzT019wmgP2nuQmr/5akQ4+O5Gs0V993oPtiuXT38DjbZdlUSZSeadn02Zvd7B+5yBAU3Kte3Bkc6jtL7BUaCA10mwYA6wm0Jw72bwTUYYT53twdR42ylzwbBKDCGhOl+Rpwwxjujb/Mb2Y/v9qU3BIf+6FWuBNQN7De/FPHEUuqgQDsJW3Yr70tOgzvPKYA7LKu/zQ3nv0owH5NgN0t8MgozdUAnOyA9v2jE0uo9JcA+58C63/K3/Fv+bZjevFOv3LmsMRUVBEboYHQwKkGzvQV6iecKpCu+9HNlNn0SU4oAEjvV9wSsg+fuyhN1QAuSWLvtfiBTcUk/ZKD9V9eCbDL3TFG06aqu2sOFoC9a5r6/Bu1jkU9PXSPJFD6EbAud5gfBdzhZk/WXSXTkHtGdDLn67Ded+Fkh74RKkckgJ3AJAA7SZXg5/XvGJOARl7aIOZO9Wo89gsNlFcDyfjCPP+DJUDq1/KcAXOBcqh6v4UVBhYwWduTu91VS55HHx+leRpg4oTLyzvybWhgfSv6RoD6r4B2ucasiX899ePBu948rXfHkQKwd0c7n3uXdCwEJKXl0yybBLCbDztpq8fFKtBn1peUBe9qAMVztVj/m5XJktqAbai/YBOA4hHADrUjNI9IMqN6Jw9gjyG2fr3HnqGBsmmAvtwAu/6wDee60/WSAO++/NaxsuPDfl/g3a3vwUDV/CeBdsAAc4IxRnV95zj7VUD9V0B7DtgToYBWQdQQ0Zc3vw3KesQA7GVt2a+4LzoWD04CtEP79b0YYn4QQ8wP8ncEwPeL8nFAS6cDvT0B2L9Cp418BWrHxNe7Y1lQjac35+rdE3BnkLWBVl18WNkb0XTsGxoolwYMrAuqqxs34A5Yv0YGa7k14toIhSMZTal3lCgpSus0QFscnrzLjmCCkVyXRf03ZbL+bUH19ZYRDHhcEixg0Ze3ri3KduQA7GVr0QvcTy1gh94LH8cnyoKHnBwbyIbV8Q/392ZDkuHHfgHl1vFVeNnfvD3IFjf2RfeYKB5hFKDiB4k1BsAenXwdyo1dQgMl1gB9eWXFTi+uqy+/pbwat0TleOvagNE6kska6t7gXW/tg0A7WAI8S4R3Yi4wv5PRWiunvy/uKMPpUYVIIPry1rZF2Y4egL1sLXqB+6kF7LDCfKNl029mRiRHMoJQx5QVb1R87CRRCsB+AeXW8VU6cvwdoXpcV2DSi7V9S6j0QpZ3ApXMKiNzDBLgHiU0EBoIDaAB78vNxVHgfUZ99/3pYfmuU0csHmliuD9ROUZ+jZY+NAB2Y//S6ujOwbHl1PhzCTKBRCiA8SUs7C1tgtIePAB7aZv2yzfmnbz5sGstdUwdORy9qZMftsQadPJY3gHzdDJRWqcBs8rAGqNU1tuiecQqg0UGCS97r/Tfm3Ozx+Spde0QRw4NFE0DuMIksJ5iku7cGLIkeCkR3phxrXtG6wG5OUZpnQZoB0D51v5RtiUJjSOsX5AKIOFlD8DeOv2X+cgB2Mvcul+4t7OAPTNr+t3JwWxOnf1dVZZPJ0cH5BrTb+4xAdi/oNAGPz5ljPlgdI9P5ffodX4dmsfTE1SmTtqobJ9+HFuhgdBAyTVg3YH+EGZK6OKVPCMyk/m5yaHEuw73umKSiEFKk30xfoXhpaVPhjHD7ByarzpJ8Zbl6viS1dJ1VUlik2DSNNAePuwtbYuyHTwAe9la9AL3Q4fvS6hIApXweZwVUHe/R1JaA9ypdPhRWqcBOnpoHKEDOxTV419ijHmuZVQsMwvq7A+OE2MMku/SGlfU4cf427o2iSOHBjpRA/Td0DeqG7Dap76ZjKWJGaY3u319SIwww8YKAzNMvxCiMZOos4jVuda2KBlMVwTSqctbKRZpUTFJi4pPei25K9/2YIlpbRuU9egB2Mvasl9xX9bpq3PxTn+w/2o2LWv6tIJNpyQB73T8t2VtR0LvGKV1GrCgsTzZBtb2V2t72bz81+dllVl8u59taHl1Q8upm3sp0RIDL2A9qMFa1yZx5NBAJ2qgenWU/puMpfTZ5NKYUv+d+u7T/ht3Op/cI6O0TgPQOdJfv1ZFQiCwIqaYlS1VxSLtH71P/baa4Qrt0rpLiSOXTAMB2EvWoBe9HTp7t9RA3wgNGAmToAKbvT6Y3Zscyebk106NjHgX1e7Fv89AzCI3FnRjioEtRvWNrDXGIrN5KHmY7chKE8uqF9dv7BEaKIMG6Cew5HodFykAroxW5Q4zLUYYADxMX1SzqgMQy3DzHX4PGFvM0GLGll2zrL+VscUIBSQPRfeIocUnUB1+O3F5HaSBAOwd1BiXcSl0/AB2cCKAfHSwJzHDiB3mtgD7Q0u2kbLj9SkZR5T2aABr+7r8H9/KIoMkcGlB1ppXCj5FbsoP0gdfl7xR2W7PZcZZQgOhgTZpIJ/LW1/NpJ6SHOMyM7KQHAnSACQgfVwkAuMyvADmw6repkbSachc/TcBpss7JrG0QyKwc/DOJICefpo2icWO9rVLGc4UgL0MrdjAPRhgt/0/yGJ7NRuUlT3VHiXYGMoeGy/7WPZ4dszSXDdwqtj1AhqgXaAEgx5sR24w66J7xGrzUm4yVLLnYYU3v3f5vPN9On8WWGMQuICi46uhgYJogN84E3mgOr9xDCz4pvf1XrEkd/enyGKaAPs1sXuRO2NYrjJDyqMRfUL7GvlIgP3Zm+3sTzF8IYk/2pdV/QAGMElilFJPndqxfVcWZyq6BgKwF70Fm3D9DAQUOnV8HXuMOvCqsuMNZf+6Q+bTVHGZidIeDdAkRwoupfNnCXVboP3vld3sH6viZZfFncBUPiObHq5NbrVhuTVKaCA0UC4NWIyLfucQBBC3kgJMe7IRAXKSIQHW7wHaZWEf1QopK6KAemR0Ce17FuiXny5sWSW76SsxfEEmcKyKfzt9NSUmUUkP8ffrNRCA/et11RXfBLzTnyDvTQ1l/56byP59byL7j2rw97b3EUgTqWRR25PP+nOxxhhzjDLm4dMO24DVoxOztFeCUGMkaG9DxdlCAy3WAH1yYvRiVU2GFRlViDe6Ntxr8UYEmWJhB7DfE3AnCNXCGYXUA6y3uHFqDo8R5ef5zUqd14oo7ccfkzXfj5ehga/VQAD2r9VUF3wPgFix4ujF3ORw9pMA+09z4wbcGQQMFMrQbkFMXaCTTrlFqBxZWk11zwJPLSOq/NtxlznSIPFRicH6I5XEG6GBImkgTdoBegnqOeAjCdJNWdWtKrgU2l1A+4zVIfGux2poO9vZxs2c4YsEeL+8ArBvSW4Z2xc2lHBXbGeLlPNcAdjL2a513RWDwzv9wS+aZbs7onL88e549i9VJEuwUDvC+RsUj3WpuO6dCFRaFzXYGgBdSTlwiTFuXzHIwO+7Jys7rpE+4eJEZlkL0F63zmPH0MBlaoD+GKDuoD1xd4vKVVgclxf6ZxLcEWuESwx+6xM5w1f0z+1tOVxd3OWFVc9f5RLzq8A6EiNL9epnLIC2t23KdLYA7GVqzQbvBZCeghgTaId7/QdlyftB2fLwZWeQwI+9X1nzwp+9QWVfcHfaBcsNdU91VewxL+TPDhsBfu1bYo3BT/JEqB1JMRYCk/Yy/oQGQgMF0gBAnQl4+jUTZHol+aTLaDIhd5hHSohEUiTqpPjXsboPaBUU0oBYAW1vQ+MGc6RYIiREAb+93srwX/9N2aphifGspokPv73XFmcrjwYCsJenLRu+EwYH4/U14PfBlli/FzvMd6S3loQebEjZ9HCNoUZprwYYwN3ihqX9j8XtVDUo8JoAVQtSlaRgYWfgDouOqSP+hAYKpQFfLYN2l1+zs3chSY70ZHZUNTF43RBgj3J5GnBjyr5WOreU2O6p+ubf1S8jyacBUCfuABmTqctrp6KfOQB70Vuwiddfa2FnmfUbWW+w5HwzMyKu3/5sDG5fAXdklPZqIAH2BNq3ZVG3TKgKaHqlTKhY3C0TqhJzbMqnHYv8RyXcYz5SSbwRGugkDRg21wUxMfegUa4PoHfN3F36jXN9Sn3z3I1hY/K6KzmmPjnK5WkAFi/65G1R8b6V8eS5Vj6pfy3tZstyX8TCThsi9T9KaKAuDQRgr0tt5dyJwcJ92AF8WG3uKfD0nugdkZMKbroxOmDvXw+LTtsfAoPg+oOE03dNvuwkVcK6vizWGPNplz87Eku7JcTSl7HUuXsMZvcYL9redHHC0MAXNZAm5Mlnnd94j5bG8FcH5BFEeuvaUDaroNJbSmh3U5lMcYOhj6bGiucX1dvSL0AAAFBHrsl48lI5M17IkIKkfzaXGAB7rHi2tB3KfvAA7GVv4QvcHwMG4A7QTgDjNflJ3ro2YIMEA8WMmAhgI8DyjozSfg0wkFMIcjo4eq9EHMmvnWXXv5RZD4sOcl+fMelyKjhAuoP2cJExFcaf0EBHacD7X37j9MPGoW4B/uJcF9f6g9xf/eH0iLHBDMlnHaCO7zruFlEuTwOQAKxuHYgM4EDGk8Pstfrj1zKeIDe04mkTLyZgAdgvr5FKcOYA7CVoxGbdgg8UPnCMKch0StYb/CWRs7Ls3Nby622xEhCQGuVyNUA7uU87VvXf8WmX3yS+kwQ+HQnUu197NWAPK/vltlucPTRQqwH63urfM9tD/WSdTkGk43JB/FZZp8k4jbwlgwkT76AKrNXk5bxeVGCpV4wnK7Kyr2xp5VNyW32xA3WTl3OJcdYSaCAAewkasVm3kAaN0yVZrDcT8o2EkWBCA8YcrjGW/poEHcPNOm0cp04NpAGenT+Yawy+7PPKqodkaXYTf3ZVfNtxj8Gt3d1kkpU9BaSGba7OBojdQgMNaMBBuk279YIVMPybk59z7rMuv/XromvE7cUNJdA4Xtf7Ca6zXwMXEbs2RQPzcn15ubprLjAL6oM3FHjqMUWwetFENsHSn2iupqi8Kw8SgL0rm/3TN11t5YG6cVigfVjLscPiYCfl9Tey7nwzk+qnjxKftEMDDPg4tCN3D0/Mh3JdQB2/9iX5tGPpocLTbnSPQuzvxACEy5Nbetzy047rjXOEBkIDpxqgr8X1hd8vsld+E1A39stfHXcY81fHZz13R7SgUwX+46o4LLYuA376EwDwVKeXtWUZqC0T9W72QsCdzNS7Aur0y1A9GlhXS8Xk6rJaqBznDcBejnZs6l0wgDCK9DB4qJovpQYR2GKM4vH2uMmmnjQOVrcGaC982hkYDhVsSlZUrOz4sv+d+7Sba4zAOpIEH7i8kogFwI5VL0poIDTQXg2w4gVQT3EmmQWWQtnIyuaQ5AP5qpvfuiRWdYA8OTCQ9M3xs21ve33ubLghprqlfnfX3BGP877W8mKosaK9PqfB+OxrNBCA/Wu01KXfwRqQLLAJ1GFZJ+spSZR+UDWrgXVEYTm47EcE0I7FjpkWEtcYAlCfv9nJnsvyw7KscwUfCNjXFhtMrC1rP4nXoYHQQLM0kP9Ezapee0xWMUdlOR8d7MmIH3o4PWpJkQDtAPYonaMB+liPH2L7NzKb5tlN6W/d/dBWUKzRO+fa40qKq4EA7MVtu7Zf+SMBdjKfAti/l5UdZoIKXVWYadveHrUnTIMI734QL/uRBUGZS8zGvnzZldBDXMH4tMMX7MGoWORhk0mTM/wsw3JXq9d4HRpohgbAbaexJKd0jclyTvbSXst1gcsLOS9mclcY2Lmg1I3SORqgz/SKBf2pMpsC2MluintMlNBAKzQQgL0VWi3JMQGAtmSr+2GbFNg/KOsp9XsBd1xlzN8y97ksyW0X9jbMkGN/MmOJ2RRA3yLwVBJuYJIrrQnIrxtzwbtsW/6VMBjgSuMuMsETXNjmjwvvcA3QhybKXOJI5AIjtxcs6WOyqo/Jqj4pNi4oc0mKNK1tmGEsUZ2A/Ii+E6VzNHAsF0RcXpKL4fvsqYD6b3KLof4tlxgzgOhyI0aoc9qsDFcSgL0MrdiiewCsq08yS8KJLArw/34PWLc6mlOOiXZMPpcA9yidowGsPhZoKsngkoJP97M3CkB9s7mvZB4C8QpOXVXdVYCUpc7WKkliqOic+4grCQ2URQO4SWCVpS+ljsgFBrpcEiBNjpLzIiVGmhVlLtV+k5pJ98owwu8ySudoAKBO8jrihahPX++oblv9e2W3ktWUYRHQHiU00AwNBGBvhhZLegwD7Ab8FNSoAYaMp4/FEvOtXGO+vTUiX0v8LWX9GRRrgUB7lM7VAJlQYY5ZEmsM2wD1FVnbcZ3BVcZXU5z20Qz1+oP04SbGnc5t37iyztEAvyVK5beTx4bwOzKXM17rxzQuylws6VNyd5lWJRmdu8FEYjpTYcf+IR6IXBc7B8fZruQzxQv9qXihZ6ov1/YqBhDcRgOwd2wzFu7CArAXrsnad8EAdhlnk6+etqEZg9rx/uSweNjhAu7Prss6dE2S5dsonasB42MX5eMGVW4ypNFeVwY+aCD5jEFnRy4yWNuxHp0B7rotDHx4twdo79w2jiu7fA0A1glGlH3DSgLpCaD3y1JOYCmVzKUT4lJP1vXEs47vOn0pldwXUTpXA9sycpDBlHwX9KkvxMP+jyqSDKesiLBCoiYPwN65zVi4KwvAXrgma98FM/iYz6Uk1GNYggDtXm9ODGQ3xwezaVmGSOwRpXM1gEWIJVzk3tGJgXSAOpVBx6ztSq9Nim1Au8Uu0O56CADpWIkA7WEt6tw2jiu7fA1U/27oP6t/NwB1c4FRPzo5OqA+MwF0DB9wrJPvAkpHXAyRUTpXA9ZnbtJfKqup+szXWrl8rWyngHWynNLuyb0waHM7txWLd2UB2IvXZm274mprEdtYfaY0yLhVCKqxOzeGLQNfLOG2rVnqOhFAgjZEkjxpW0u5O2KLQZJoCcvQS6v7ZoFnooa/rQF2WdaV00WBqWkQqusCYqfQQBdowJhD9Nt5r5VJLO0O3PjtwAJzV30mdU6VINNx9akTymSKdPcJfTUmxh3+rADSFwHo6/smAekYPZBvZXl34wbtT3tGCQ00QwMB2JuhxZIeQ/jOQJ65R2ibIKlxWA3ke4kLjCX2UCDqfVXSZlOibzI1dPQfQPi+rOj7srSTkW9z78gsQ1iHFjQI4TKDWwyUj0dikCF41SnMkB+XRAUZA9PHmol3yqcB/XwExSkf/xYcoJOUDJcImGAGlOwIicsLWUtntSJ569qAXvcr/ocYoFTZN0oxNABYx8jxQgGm1E0ZP2zFUq4y+LYTowBoDzfCYrRnUa4yAHtRWuqSrtMHJ0C7Dz5k42PZlgDUx7NjJu9NjSSwbp3UJV1snParNECbHp28ywG5XGQE2vFlXxdzDEu90ECaT7sGHiQptvdy/3YSMLF/dQFnxOBUrZHYLqsGUn+YfNQ/+h3opi1LKX7q/fJXl4sLxo1RBeVD34gV/boq7i/IYVE10o8O9MkNRjXwenGemnkFlj5b3FGg6bYFm1YS0xlrzHsbCysBxsW5rbjSDtdAAPYOb6DLvjzDZjlAM2AmZOZWJM96inw0kwC72VoDtF92s332/DQnbjHvcss51nTLgqrBZv/ovRIrEVB1lAKq8uBUgLwHqdYa2QHrPBOpfvbU8WFooNAa4NlnhSpV3UreN3JT9I/VgBxgfsN81RVUarzqAugC5kMAdAF6glCNsjGnbtTuUQqigb/Etf7rKxIlKWGSJCxq3p+yCpnWHNMzUZBbisssgAYCsBegkTrlEumInEMY9pj/uj+R/a/710w+kaWdAcuXAGPw6ZRW+/x1GN7I//g2bDEron5cJqhK8o3qIkFVeo2sdYshuCr5t4fv7ee1HZ8WXQMAdWPOMnmK1rG28zuYUdKjWwrGn1E1KW513GBmJLGyp2XI1E+aLqzPLLpWuu/6/1jczv7vi83s/7zYMInRwvrBYIXpvoehjXccgL2Nyi76qc4C9g/Zj7KsY11Hws1enfkU/80iFAbaisVMExL9t9cf8u3KPeQDq1uR8VFl25c903bl24XewNpu9I9Y2WVhJ8GSJVmCt13bh3KnOT7R5E3IhaRMWOuThSkFqqJT/VdJga5M5KogioGWYjwdXHeUbtCAPa/pof3o2a0YIfTQ8jsnODSBs5TUiH6vT+/1y1cd5pdJsb6YFHNWtYU9mF+K+yTZ2Gf9nGJ6JOFc/0WW9Z9fbWa/zG8pKD9/JvSM8GxECQ20QgMB2Fuh1ZIek07LQbv6rOwJPuyqT2ZHswfiZyd99rCsSPhmDhQk8ylgnQ4Y4GnZQQGguk+2WeL0YsBcLxisWcY2KeoUH7iRdNplKLjImM86/uuytm9LbiuoakuSJEv4vPO5yTxw1bcPFKTq7gIO3NFKWn1B+mJxeq8M+op7KLYGeE4pCA+wr352YUgCqOunb/7mJImjDpmvOv0dNIxJYkXHb92ktgkoTQnm+iIbtGm5mH+Oq9wGocf9Wy4xv8vK/rv82H9XhtMA7MVs16JddQD2orXYJV6vU/0J0xo/+0OB9AfTw9lDscRAUzaRJ/yApoxBrAgFfnnYUA7lv+2sKIB3OmgkA7hbz4GafZqIEHzbL9kvX1QsawnAC8SXBLAzYTnVgfST6wYwThrurZy/HXaZTVGYbUhCZUYF1KNT/beJDyAItQDUhXsScM9Bu0SU0MCla8DBuYF1PbBM09nmGebZrZ6UA8QtwRHBo6okP6K/g/IW5iz6BvzUMViwTX+BrzoyLK+X3tR1XwAgHQpcM1zIaAEFLn7sz1X/UpbTAOx1qzZ2vIAGArBfQFnd/tVq/01A2Z3r4mG/Pigu9sHstnw0p+S/aVUBVmMdnPnUBmj9AUzi1mEBl+qQkQBSqAyNRUWyGrAD3I0pR9Y1BmUYHgDufVoKT4Nybj12QMoDA1jlX4HBqVnMhWKS/GDBqGviG/a6vHWULYuXmApod/cYJPpzqzo6cF2gjiLrhKaNUg4NWH+gW0kyuXHRN/hvn9W0NDG/oqDS/mx6XFV9HHWSJEgmByzzM8CNfsKt8uXQUNwFbFnkq6C+3T3MXol//eXafjavCngPwB7PSDs0EIC9HVouyTmwOCV3hzSokfmUQYvsfTcF1uFivy0QjyS9dicWrr/WpYPMntUuHYB4q7KyM3BXA00sZdW++gbYZUEzi7s+w7LWL8uaWdgMzPOZLPHaJjAzAfhO1MynrwkgU93uO7Iw4RpjVdZ2eNu9bsl1htWJI7kU4VqTXI3c3Sj5vVcAvb5j/1ByTTkL5tNsJ/3VF5Maa/aIl92sAXuE8ucoidRHfU4n/rt2n3RWyCrubvnKGRNxftu+quYW9gkZJEiEBFUjlnXqqCrHNMCujbPP8OeuJD7rdA3Asf5GAfdLG/tJKgB/SVlOl5CqrMRUJmuVjqrT7yqur2gaCMBetBa7xOt1CxTAne1xS6CkQUs8w9cVbOWJlB7cHMmmBOQ7seDugWV4VQGUSOgKAewwo+wcyLqugEq+k9w6cgSgG3ErccWSoh66R2a0/l6sb/mgroGdAR2f1bGhnmxUvvwj0o379mOl41/RAKe3u0mphFUIlojTyoR82bWdJjyS+SrFYS599cJ4iqVnX8XYz91rUkZIPU/807EZ61zX9oLXVQ+SfxZgqEopsZlbx5NVHHXwy/Xn1tST/5QRPDv5L9Es4YlqMbmynPKo45eefNOhYExUjOm9ig97/jnfY7WN49ix/fjVD65dRPwpqgYIup9f3c2zQe9ZEL4ZKcwl8Dh/ptJkLfqmorZy5193APbOb6OOukIGQQoAyzP4YU0m0ApqR69QmXViIZiUpBevVJFLoiy0oEqBdSRWYSu6URvc/SbywfcM4FbP3G/L5Vjdr2jAvppNarXB6w1ts9KAbz8SKx2HMbBQsMG8ut2Z0DgzjK1E6LUH7GJZTwGpBKUyCcozAOZ+70nXeSCrPuM4yWc4AawEpnJQJR2Zvk1n6Y/pT1/y73nzhOxeDfA7NXCe/2Z9258r14w/w/bs6EEipqJHv1sPEHWJP7pXJt8E0dukWxJre7LEJ1YQs8gzeddx8FGvPK8F+327jkKer4FljRMww/y5RLKknRR8XzFavNNOqeV5tqKEBlqlgQDsrdJsFxy32lcTK9O/7oxnP0D1KIlrjA+MbhXtBJXgovGXOl0ChZAL8kUksyeppQmYJPA0BUeeDwodHAij2qTFfNcNtF8xi1w1DzOrDA7WkeiIQZ0BH4n+qgFoJ+in0WsAzFczzOA2AzUkKxn4t2OV4r3NPQF53GfUHujyoxWN/ELQNzMnk/l7SWf5i/Tx2S/4RzWDZ81L/1bIDtFAdRufuaRPfaAGpU3tY/1xtc0NAABAAElEQVSp/lra9ndyGJ1/v7rfYnVsQsYGKu4tBJJeJxOpfq/XNeHG1QWwDtsLwD0CR8+0TKlfEMNgkz/d5eLb/eyp2GCevt7Kni5sG3sWfZ0ZKujAooQG2qCBAOxtUHLpT6GBkOXg72+PZd/Jyo68Iz92rE9YnhkUcSXphAJAfLGyq7pn8rU6YjJ4GsuJwCRMKFyqVf2pvWq65tSJa0v/ubc+ucUA3Ie0dD4zPpjdJHGKfPqx0qGDZH3TkrsA+4jYcwwASLr/ezoG04TiF3zdcZeBWQbXGVxlsLJXak4Huavv8BkTJKz0iZUnUWmaj7ss76cDIr7w6TVjIwNp8qlP27RH9ZjpVq7qtvP3koarPznVub2rP+d/evq92KpPA2om+82Y/OgQCRzlX/noU3u/akczBuhNMwaowYgP8d8soJrfVKJePbV+p4lyet8/5zfov0d+m7ixJRrGJGG7om8byIPMAftRyq8B+hdfNUQyTiQaR1E5CrgfKCM030l9Ufn1EXfYGRoIwN4Z7VDIq6iAJ109Ax+87M7NDmA/9e3stcGzE24ScOjuMK8U4Y/lhGRAVuXXXgHsGvQBAbXjM+CQYg4z2j6lbbti3MwE31LJdDgsbuZ9gVb8tfHdZtDHXQZXmUn5/AMUko6UslxgvgxQAP0wKaKeCIwfSR7m/upIo87U+xVpwF50kTnI533APkw9JGiiPdL+aZ9qFxxzzdEJsc5rTLViOtQfJG1nr/W3uh3Te+n71X99Jaj6u9Wfx3ZjGuDZoJkAObUlvZ9+V+d8nKzn+f7sCzinvZAeLOrGAVz0mDybb7p+V/RN1ZXfobE9udTnHiTunyWQrv0A/vrcJtXajmejtuXK+Zq+xehs1RfR/yxonPhDnOtkOP1DLjG8Z/0Iz2E5VRB31YEaCMDegY1SlEsyCyhgSc6iWLO+nRnJ66jRPcKagLWKwEsGzE4oWEsA6Ytv98xqYpH/RkmYqAkJjgSoY6XT+AzUO3PZCWqcAg5zickBAYFpWNcdtDPIryiwdUXHX9FkgABVXIWgwkSy/O46GpWOygIGzPqtZ8It4Twn+p+CeasANkA7WeGVoElWeE/GtFtJxkTipmShNyYftQ0xBlSAvVvdschTKbQWerRK67Gdv5c+51V6zzb8T+V7CQT62yGbpwGaiGfCWio1V+XgvEwWywTaKx9og88A8VbzD9TdCKyn3ylAHcDtIBtLufujE1vDpNgmxvp92rYmyri3pMlyclM7/c2nYzIRqLit6TxB01jdIuXfxuDg/RES10mA+rO80vfYGJE/J+XXSNxhJ2ggAHsntEJBr8GBEiAYt48Hk8PZfSVTuj+V6B3dDxRfUAbTTiiAxxXRca2IigsJd/gbBRQtbSAPjS0GYFBd1CcbwjNZ/YG2mYgAzAHjAIBbE4OyrlMHbBKzsH5gnT0WGkAAwbh8B4mlPQW3EZgq9xmhAqeYYzDohmKAPQfrZFXFTSbJBNbZhr3HPzMLfA7aCXA1dxrJY7XreZbbK1VtebrJd5N2HQTW7svH3dEC7XvKTJ/MoGp1W6No1z1f9VUP9vH2YxLN78NjQfjtmcuKgfariaXJmJpgsKoC7DlwN7DugF39kp2H1k7/OVWULtcA1nWoHD05HP3333KjTHXX3GXc5YrnMEpooB0aCMDeDi2X9ByAX6saSbF23RJIvXVNFUCq7RklUwKYzqji/tEJBasuQaYpW2dKhIGV/Y0A+6KAO520uWDIHQMJoKM/9uX32ntwsI6E7g0OehJK3VYyKazvr98emCWfDh8/bfOXtQC2HlnYk3sMwP2GgtxGBpXyXHpyV5nac5XxtVnLbdk56RsAj97dBz5lV00ZVnkfYF4B6bKCHZ+krKy43vjzaAGs+l6y9Cfrvlv9TapRoZMkc6+50/hzzLHzbYkE2APENeWxo3+oABxN7t0X3MGyW7DNqq0fnFkvq2TlN5i/55NbwJK7pQHc+c0lV5j0e2QS7XkRyIdgrjHkSRBQxyrPvrQ0kItriRIaQANY1ZdlwFk2rnXGh4Ns0eqh9en0I6zy+HMaWgsNtEMDAdjboeWSnoNOC3cYJIDW2BVylgXcQu5NjagOZ3OqsC10QtGlyp/8xFwx8Jsm0c8iyTAErOmQ4ds1FhNYY1QBgdYp551z7T0A1M13VmABn3Xu955WGpDQPALYccEhaInASxmDE1CURCfTnnxKEuDOagQrE52aeKr2/ht9jX7NLx0ruR4mC/QSmkb6a5e8B8hmH4A24N1dZJApcDWXem0rQDmQrz5uej8H/nZ+HUvfr7becw637gaQa7SVk5+5+43zuzBgrsOajvXbAsyn31L6PfnKFQHdvO8JjXrs95b/5tgW4HYfdo5pAJ5j6f3kruaW+NPVKz8W3yWXghVdg/5HCQ2YBhgDiHUiiyn0v5bFeedYBAWJ7YoxL7lkJWNVqC000A4NBGBvh5ZLeg5hGnNDQAJqsGZ5UhGCKx+LMeZbBaJSAaGdUsyqqg4XKyvgPfm0J2BN9rqVrSPzOV+W/zlALwGCZPWrHdQB686GA6PEo5uj2cPpkeyhkkfxOk0E8uBW+bFvaBKQsoKeGHf9rTxAFVaZWdxlZJ1nVeKmVim6oTCBwqvZpP6k1+m5YltNZM9Y+jx9F73wGuB9hEUesJ1b5s1Cr4kY0kG8gXoBd0B5JQNrDtAd8GO9twRQ2hfJsWlrBuUA7Gi8sQLoTgxJiSkJQC28nPSrQ5tLC5ZvWcEB9B78aSBf7yGTdTxnVwKQ5xZzfp++AubtxbF9MoD9nDa0qnPVvt/YncXeZdQANLTGuy6fdeSqxgJL/pb3D/Q//owho4QG2qGBAOzt0HJJz2EgSvfm/r9mIdNACojFxeOJ0TyOGnAHwFdSNzPAdohOAGr4sq8SGJqDdYA6gaLLsMaog8aawj2mrJwJVHL56rMrYB7QwITlrlxi7srCDksOkxeOQ2fP8RkEnO8dyeeWZEn+60h8383HPQfsp/pM1sEOUVnHXAZWcAfcx7gwVQF3AHyyuKfvYKX312yzX2UAlt88S+Dw8HsSLT6PAbnxpuY3wg8FsF3JjJwHglYHbBtLSw7YE0hPAB3gbkCdfsVAepJs++8Dyzr9iQPzxq86jtBtGuA5NVc66+eVDVsrrc/ECPM7zDCiccSyTqBp6kMwI+QTP5P2Mv6EBlqugQDsLVdxeU/gg7FJ3SYAx0E5DChPZkXzKCv7Y1nYSSKUBln5mWqwxcrVCQXwhj87S6DIDXGyr6lzXleHTae9LWBNwKMHPZo7Bp26blpCS+qnfozcl/mjC3xPjup+9SHH3ebYqlA7WqcPeFTnz/cB7SOqWOMNvEtPk3KPYX8YLsbkNoPrDJOBKGc1wETKXF2kT3d/qYByAW7aymkg03ZypznRzAvfd28X2pi4Btr+rZ4BOPkB/wmwJyvw2TPHq6/RAL8PTW/td4LV/BoJiXKXuTGxIpGMyFikFLfBbyEBcHeBqZJyWyGoveLKot+Vu7/gImPtBGRP/7/m0uI7oYEzGsAgwyTdQTlGFhhhjMZRoJ1VUfqbBOrTrjaCxTN3Ro/xorUaCMDeWv2W/ugMypRcmCWabUAmQN0rPu1wjVOhP+yUREoAuRTgmAIboRck8JQOGoYAgPuqLO1mJZcE4GNpd+DOErwHzGFlr71HPzYSvfTpOxZ8B+hQZ29L+AL9SCyQE9IbzDFMeKaVhGlawbtI3otyVgM8ez6IegCpuztZ+6idKqsjfFdtzUSL92hHy8Cq9mXlY4021jY0nLQ3wa7MKQGDtE2Ui2sAXQOEJMzNhQnplE1mz8ZrELcBYEfPAHEq2/yuLCFS5TXvqz38df4ds6/r/Wili7dR7JE0QN9AzgxWVKn4rDuFIxKDC8+XG5r8WYuuIZ6gdmogAHs7tV3icwGesHKaJVMS69lj8bIbYJfE3SNZ1JJljUG5U4q5uwAudEH4RBMcivUVuSTmmHklWCLwCInl1e5TFnIkt0En7rdjIFLHMaCSH7MCWgRKsJpDNYfku1h1OCaSiQyWdizuWB4J1p2Te82cgnenNeGJcr4G0GMqCRyyffqef8Kb9om9gSXtDL2nGCGg94TaE4m7jIFGtW8A9qTDi/61yZR0jmQlaVqrRzfH+/PEYjn9qdy/YJNiEpt6BH5QZ8G3vZ8+PP0OF1PzvYteX3w/NOAaYNzCWLNzcGySfv/Z0m4C7ZJ8hkHGV3YCqLvmQrZTAwHY26ntEp8LLORgHYkLx31jSxkyCWCvsKDIosbydycWLK+4ruzLDQaJ5dWAHNSPAnP4OOPvvAs3uAJWAYYOzh2g+ARAalCxP/Z3VGAc16ApubxQAYKJvSS5bqA31yH4BLB+d3LIJPozH17pDdlJE55ObMfzrsmZYt4JrBOUmug8oWzbt1gDXKDW5Q7DqopnvGVgDsB+nja//B6/B34f/A7wS8cdxt1iSDBG8jCriveAitHAECtPPvv98iniG6GBpmigesWN3z+A/YWxxOybZCxwsI7M549NOXccJDTwtRoIwP61morvfVYDwFJzRwB0MkALVBoXu4AmSYQ8WRCc7LdkUWMA78QCYMbajaUdCUDHp3lD7jHm367OfE1uEwB5AJ77SGOxZd+KjVc6QCcG6E1+yMYFWG7r/j3T6akOUvePawaDBZUlWAJX4XRHAtixuluV2wz6jXIxDbDU7cveWMzgxoduk+RWuDylWAWSNIklRhM3wHoEMl5Mx9XfTs9+Au1Y0KtZpFgxIjh7Ts82clR+7AP9iR2mU5KsVd9LbJdbA5APMHFfwjBjxhkl05OBBuCOoYZVUFwYAeu4ZAVgL/fz0Kl3F4C9U1umgNdlFmb8uzVSY0HHDxuLGhLADjf5fVEeIjs1iJJ7cEu3gXd15IA8LCxYXaGAfKU01Qtyj1lY37OO/ECdOR0+yXvoyLHIAvYobnVnMoOv7sPp4ewBtI/SAS5CKdAuscC8EOfv38u72V+qpMKG5pEKyAewE4x6g6BUHYcES1EupgF3c0ISo1Dt6oT/+ju1n7e9misNymrHGJwvpmf/NhNWZq1Ifg+AHat6MSXXmLQCl7IjE6NhAagKRkVGCQ20UwP073Cuv1jZNcmqqtHvmrHm2GJeUjxFrLi1s13iXGc1EID9rD7iVQMaAOS4ewhWCHyyh2Q1Q0JX+FisMd/eEmuMZKdkPv3S7QI2qi2FdOp/vtk2bt7nCkbC1xmLLBI3C7PACJDg8YMdxhP9IPHhhTUH9pzvpAcmM0xcUu3Nfn61mf3vfzay/6P6m6jE4Ga31QlJMsjOytrutVMSUX1Jf530OUGmlvhEEos6E6R/GKRVWdXAR9UCgiXDDaa5LcfENTH5JMmk0/IVaALLJJbXJAub6KKkYc3VcBytEQ2wuvZMbDD07Uis7MlQkww2GFyYdFbHKzVyvtg3NFCPBgKw16O12OdcDSRgm0A7HRvMD/1aR0TCEuNJlL6dGTW6QqNqM5DUue4dAPZkJUzOLssbh8mVQtZ1spjixoLLDBL3GZ+wOMhnEgNY4TVWRAsixS9drgAAlLHczQUJ5++vC1vZL6+2sj+Xdmxlwv1+p0Tz6P7sSPb1ICiyNTKYRDmrgTNtpxdksn2jFRKT2iZJVko/nmITTJ822TpdITl7xHhVrwZ4/m31QhsAdyac5jLHZFQucwSeeg4CXOZ8WSMe63o1Hvt9SQM8j7i+ISEYMFYYca8j6RdYMYUmlmRr9OuMaTyP0dd+SbPxeas0EIC9VZrtwuOeAqQ03mJlx+8PSbDlt2KL+UZg/RtJwCu+qimjYU9Hd4LV9wVXewLpAuqyyrJ0ip/jkoD86k7KjEoAk/u08xgAVihkepwk6FTWRNxbyP56bVhUjtIFbkP/rOyJmQArz65Zfqt9fvnOA1ki75tb0bDp0yZEZIHUhAgdRzmrAfRuAcB6+4MG5b+13I2OkaQdh389JUo6MWpPrOqosdql6ewR41W9GqAtKu5hesFvPyVSIs+AGJHkx46rmD3jyhIMNApwVK+2Y78vaYAu2eOUiFWCyreaxpGEd/a8qt/QfyvWw+qPyS+dID4PDbRAAwHYW6DUbj6k9W15B5cLA6w3RvuybzQQP8orjDH4cFsd6OtowE57+r0cyVcd1xd41fe1Pb+afB5xlVlU0BJ+7u7vDnA34JH38ABsaBuH+3tNXs8znDo3NUGQL+Qb/3JV/vHa9gAnfCfx60V3pkNoMmWZHJIfu4F6Sb4b5awGfGXDgqEFEp/KzejpgqokoB2fdaPoZFBWxXJW3V5njxavGtWATaD0S0IywbT4Dc3oSYj0UM/298qM/P2dcZPpcVZrWJs0eubYPzRwVgM8g/ti+dqTOyMSI0wC7InKEUIBnkF6Vbes84LXUUIDl6WBAOyXpfmSn5cOseK/LTCEBRnr2QNZiJFY3M1ndRi/1b5C+gxzj38v71igKBKu9m3RPZrVVtbbg5NTLm+AoCdYcj93rOuwZUznNI8rUEjKUo/VfnlLQZAAyVyPZIoErLM6gSQYlSyolglVuu1UmszLfMxtyVsKNGCuZe3/md9U3TKJy5H5rGtUxm+dSVGU9mmAyZTmS8lNRm2Eu9y/701Y/c/cRGWyCmiKeIL2tUu3nImVty1W2BSATiWm5bn41p8r4B+Jm6PHs9BPRPfQLU9GZ99nAPbObp/CXh1gtnoJHNo2AidhO6nQPebsJ7xXRJcO7hEqMOfzxjWGpVSyZa4IcAPcq4uDD5P6g4sMmU0tw6nA++beifGAJxrJY7Pqcw685xNNJpSYpxSZxAXclO7QHxlWo5zVADSOBAMbb76Cyv5QjMAflm48Ta6YOFG18BGg8KzqWv7qDGDXQ46r13dY2BWUjWTlCLeZ5DbXuTEuLVdUnKAlGmBFjWymljxNkr6bmCSrim+h78ad0/oIofUA7C1phjjoBTUQgP2CCouvf70GsA57ECac40bzKGswFnX4xaF3vKcsnkg6xiIWfB9TTfzp1VSBMI+YW4ZuDOBN4TbdRxoQDtAekm4AJrASGONMzjrDIIFlHom1h0A9glMB+IB1KDKTT/tIUOEl9Z75C5f9hpa64c8n3oBEKDDCUJlk8czRFkme2TVetFgDFcCuHwYrISRQeqSVN1xjkONaeeN5J3dB0Dy2uDG68PA8c6yI4sqIhK4XQ4mxSEni9kjfQH9dcYnpQj3FLXeWBgKwd1Z7lOpqDKOahViAUz0fbh0Ad8ApQWbQO0Jz+FgUhwDSIhZLsqSgJdgEsMo8gxZMVlyjBpPVxvynNTgwQFDo/NMgkIC7DQq5hdddOMjIybYBSX25YulhO6+4FFX7/BKUGuWsBkhwheVsGUYYSRKgpKy1SnyFj2qud9xh9D9KGzVQC9iZgJJQ7K4lChs0l7mpcUm9T3B2lNBAMzVAH2t9tVbdkIB24o9YlUOevJe/lplL6LObeeY4Vmigfg0EYK9fd7HnBTRAp5csFgmwzsmq/sNtBZjdGct+UKAZAZkAWVxj+F4RC1aZ3xXQ+IeowZAsr6YAVSVWEqAHhHOPDtqxugNcwPLIaosOwBydYIVH8tonB9CNsVqB3lIdM1DjYB4dFlODzW11rOgMxK9kRYMVBuvZOtZ21a2D40xkmDYYo/eCPnLNVVgbj+bPPL8Jnn2eZ/IU3FRCJSQW99uiPiXvAG5fUUIDjWrA+lrhcCR96VNR6JLv4jdJLO162z7jc7ajhAY6TQMB2DutRUp8PQkUJXBE9s5qXnYSKeEekqzwxfTHZhAAIFoV0wusMZVl1p1jGyQA7G7Z9QHCZcp6mtgzAOnmEiD3F2S/ViZ2ZcGHL5gKkLfU7nC6a7UCK6Qx0EiPyKJOehp9/G2czQfbV+LKt8yxCjD9R8FkO/JjZxVkx5gh3tmkhmcylrwb1frF9/dn3oE7bi8TetaJ6ZhQPAfuXtA83pfLHMA9SmigUQ3QP8PuRVZqS5TESmheySydSoD1RvUc+7dOAwHYW6fbOHKNBhikCaAET93UcneFNUbWdksihI+2Bm2YT4pYWGaFbQBXjFUxviwrMc8rDQQMBgvrBzZIYAVPoF1IUYowa45uFuDCZAV/dudfNwYZ6emmEstABbkunnf84t03HqukcbkrJuC6aDJvCLRfV4IlKDM5TzeW9Ixx5x+Mc/2PfMXjmVY9WOWgMnBDuUlhLSKs66aKtv6hD/D4FraZgPLc+/PPZB5XuW/lNgdojxIaaFQDpwYPrbAp9ugvTeL/Ii+DJK5yNnnP+4Pu7D0b1XDs32oNBGBvtYbj+KYBt6hB9Qg4JRX5Xfms3pH1DL9VfFVJKkQFcBaxAL7h9U2sJO8MvMNMkqw42xokTsy67q4rAHamL+gD/cAag6VxVJLA0mRBHzYLOsF3b+Ri46w0WIjw+8cqjwS44z4wS8ZI6bUbaR6lwnwpO1nJoG78RTSOvypzLBlkLYmS6TpNGnnGYmC+vF8a7cVvgMKqE7EE/tvA1etfd1Ml2VqU0ECjGiAAneBzONfXZVR5Sc4Lq3ti9jqyWCHcCSOmpVFNx/6t0kAA9lZpNo57RgMA0gTWE/8yy98EmsFBjiQd+ayAJqBzRu4ylKJZP7nHlOU0BaFiCf/d/Nl3TPKacmpZTMAyvZcAO4mkHLA/vDmaPRJYIWESgBywvii/7DdiNID5JFmLtcQri/E1sWoQF+AgH2u9Dz7IbihMmPCJNr9oSSZKvwisA9qRqAErWvisd+bT4AAe+aPAulVxsj+WtT21XYpviRWRzmy/Trwqf6a4NlY8l/IAdJcpEP3QXBdl+0gTRj1g8Yx1YmvGNQVgj2egLRoAzL7HnozUn2Etf1d8tAVSAZtO8YhPtgMrH6jbcpENnoR7eyd2AcueKfcY6B5t2VVJlZBrsuIQhJoyob4zyzqndDideKdh0bkqa3vvqY+/XANwj1kVX7C53GjggeVkQ8d/qwp4x5XIaTLvS38Afxh5Bnp7TDZ4a4XY/URuLuanmru9/CULO0Flnt2UiQvPkwf3FuKmuuQi+e2w7uGrTT8QjC4+diztJAsjG2qf3GZYOepWd68ueRSadpv+TCWZZQuKL3IaR+KM6J/pQze08smKpfcLMaFvWhPEgZqsgQDsTVZoHO7TGqjuQHHjcDBJgCX8yxaEmluUzTosdMXgTAdalAKNIxMSgMeOmEjmFXwKQwkDBEmVbICAH1wDBZZgVhEAkQQ+9kkn5uaiNwjA/U6Ul08EWr4Tmw7JpthnU8u5DDSA9wVZi2CiWZDFHYBfiQlQsB40j8la32uyKPpr5DoB67gj7RuP/Un294rSjOfJkp692dWzlMC6y0bOFfs2VwP8Xvx3w2/oiXzXef6/k6RvSAHpKZESwD1KaOBLGmC84ZlyidHkT1E4/qmVN7YJQDUqRwWhsjLKKGMB6PTHXzp4fB4auAQNBGC/BKV38ynVh6aiDSxqvKY+0bK3+a3KogZItbTxAFg5txbJomb3l/8hy6YtvbIMS0ZU8YAbH7hl1jvMCFJ1312z/koPzE0cvLsfL5JEU1iBrIrpZFlBUn8yACmN9jPVwXzSY8lnBNgn5WqEm8w1BaQS0NsNhZWLnTzVOOnGSZD0fHkvX+UAsLuPdALu3aCTotwjwIo4YHNp0va3mrh/K8s67jBMRJmQMgFFDiiPQ5TQwJc0YBPAnMaRbVbazEXu1aa5KGIsoVTAOX3vlw4an4cGLlEDAdgvUfndfGrrTAVsfYB+KJAJaCeZEkFmuMwMa3BGFnWAxoKD3zqBTjC8GC+4GGPmqQp2wiKcVhA+BpBMWNx/HQvjjLioE6c7tGTvzL3mHwHSVPfNMk/imTuKBbgtOSOLvLPMICvn0XGLtGJxkd8ILBAWWKZViA3pHD1bZtM8sOw0qPFjfV/kPPHd5mugFrA/kIscfcJDgfV7oi4l8ymrRgRf0y9ECQ18SQP0r+Z+qIk8WaSxrBNTBBHAc7kpen+gLrG0feKXdBSfF0sDAdiL1V6ludrTJXC5j8gKQsDpHJzisMao3sjpCWGMKSrNI8usxpu+D3f6sQF23DSSX/ueAW+zqMuuU+v1g8V9RkAboE7iGMAKx8NPm6yqHHdZlnrq0lbK2nndLer67qwCd2HgMRAvidsR/r9I/IHLWLCq43a0Kh9/fP2Tu9Cp21CatGBljwG609rfAXuSH6wPsL5AfQKrS6wY0SfAIgWTUpTQwJc0QM4FZ4VhIo+R5CV+7KqvRbPr+TAwYADao4QGOl0DAdg7vYVKen3uV+jAHWAOY8yUBmSkZzpEMkgXseCL67zfR7LwwPBCFtQ/cksPvtafKgB4lv8BJ0gCUm1VQsdEctyUREluIHKVQZ8kVwKQU5n0YJ2kkoAmcVzLB7jAKxaf0pW/z6DMKgZsOs4CsWTuR3DiH9qgXB146vuFvHwN2LOtZzjFgGQWs3FLk05iN25pwgpzFBNXn7xe/hXHFXS6BsiHsagYn9eK8VlUXdHrFRk3kATtO1BH1hpMOv3e4vq6UwMB2Luz3S/9rgGY1awQZOeEznBU4BQOcncHQUL1WNTCfaY7zWzw+EX+k/hRwg0O4DaKR75h3/vcXaZBBUMQgwtfd3BjbkUC8rDTUI9VYYrBxei72ZHsO8kRJaNCt/gBl9WlAPcjAnwXlOEUSfIqBmbquph0fOk7BujPPWeX8xnPfwLtKWB7ShP4KSbwTOS10kS209s3hs3aTpKwKKGBL2kAkA5TlK1oSm6x0mlxQO8UC6RMx+pH6RPwZQ/A/iVtxuedoIEA7J3QCl14DQBOA+36wzaZDqEzxF8dv3W4xx+Jh/yhAs9YEoc9BVcOfLuxkhax4K7xTCwFMJcgYXuBpcBpHrknBo/8f9KP3nNQz11/isWA95P1GJkSUyWXGtxqBuRSk3yAca3BxcgTLpWJJg/mnBeru9kLuR0h3+6IVUduMpuibUO67q7GAM2j1lHlFLCn551g6et6VsnmS5I1KF8T9etwYVfcOkrhJbwYJnwE8mPAwHWQDNMO1p8LsFs/q5XJQ/W5rFB+rj8toXrilkqggQDsJWjEot6CAXYuXhs9ORgHmOPSYQFnAu0wROCLjUsIbh24dAAyi1jIsDevQNHEBbxrFuC3svxC14hMA0jyr3YrOrMZJjRe/Ds+2JiFSH+Y8DDRGdIqxXB/r+kQmsh+6aqv94plj8XtCPBDEqYhfYdVDazt6LsMBeacv+C8F2sOljVA+s4B1jTYdZL7EXo14F6GGy7RPThgd0legfFBJpe9BtwfqC8g+JpkYljco4QGajUASCcw/+AIUP4ue+WAPc+DcXzCCuT77F0O6jGre39ae6x4HRroRA0EYO/EVumSazIgWoNG6UCxFMMScV++10gAOwP3WD6AF5U1hqDIZVE7Aiypb1Txa1/cEIOMtikwF3gwFK9rdQTgpCAJomTFAYmvO0D8uiyTNySxIBF0hdsN8qbiAG7K0k5WWVwN3OJeJtYN/NeJEUirGNt2786zzEBevXqRtBh/O0UDDtR53tk2lihNQJlU4iL3rZKHkacBBil826OEBmo1AEiHKSrF9hwbYP8bWtc80F+GdwPo7Jd3o7ZR2a49YLwODXSYBgKwd1iDdOvlJHrHRPOIDmCMuSc/bCjdAOyAUHxXsRIX1QebJdmU+EjJj2RRxwIELePfK4mekfsGfMswbpLXnyr4YVcSLcmKDlCHGYYKoDF/bh3fKSRxiyF4jyA+tgnkpU4JwDMRYgRL9ibJAo1g1RMagsuevt7KM5tuKYnSO7OoHcuixlJ5lM7VACCdFsKtgW1WjFKm3qs2Gf2OBGJ5IjEC0aOEBmo1QP8KnSvB58YKU9O/0q2Za2Vu6KjdP16HBjpdAwHYO72FuuT6LOCMxCmM1irGIY5VWICSeku0jwDRWfGMY3Gr+CMXCF3CC7wrekcsQFiCANPPcd9QAiR8LLEAaSwx9oJP3VauHgP0DmiQuLrg68/kBh52zuG0j0hL7a6D407E9809RvpF4teOyxExBMhegSW/DlY7Og2/2xOiPzwzieoySQC7xwc8ExPPgQZwrZLb95gQRulcDdA6PNser9GnZaYUt3LFrOyeVM2SiOkZjxIaQAP2zOR+g1tawUwsUVWJ6tT3LZGwTpJ+7GsNIqHd0EAnaiAAeye2ShdeEx2vWdd072yPycVj1NxgkqvHffmy35d7DBSFgEw6XqzMRWL8wMfSAp60dIuEDxiKx2c51SOsL58raXBK38AVZqj/qvn14z7ABGdOKxKsTNyV5PgEteIfj2QwgyUBiSWqsmJBcJ9WLwDtXvGDJ8NsskYpRLODELtpSH+Q6JN7oQLOAeyJ4z75seMW5AM6Mkpna6D6+eaZ89/2kCaRP86NZz/NTWQ/3h2357yz7ySurh0a4CdtEzz6A9U1Jad7wWolQeeq67K0pz4Pt8BjfZvxIj1XyCihgaJpIAB70VqspNdreIqO1+7vgwHGHmOGSf7ZT1gOVxZUlsVJJmSWEvW6AFes7UUoTEicgpHAJ7JwmgvH621z4yAgCszug1DtPSVAk1wGsJgbDSYTGwFseKqZ0OD3D6MGxyC7nwPafzSQkbQJn0785nGhgYUDOSnAbv7t8F3LXQYWGedz7zNre+fot6IDKedIkxLiArY1EWFAhnMZdhjcjBi4sb6H33rtU9TZr6v7Abe28yz+59411Qmr9/ScRwkN0BfYyqw22CYO6Hf1pVZlBKFvwBUuucSpL7BujPHCPABDgaGBwmkgAHvhmqw7Ljj5tKcsqIOyJLMU/r38WH+4M2ZJlRjEB3p7DFgC3otYYIv5bWHL6tOFbQWKyucaf2uhdiql+s4qYF7v49oyOthjKxFjkrfkKsTqAxXQzkSGY7yDFUHyv+e3sv9+uZn9z/ymUnTvZhNavfCKOw1+wfDd374xKCq9/uQ/bG4yPTY5qlg8uabaga8yAFY2zlw391Fb0t3pXdtI1J75yrZ9lQGYD9M9s5UGZVymyIzLQE0g6Va+gkBsAMveULktyNK+oEyG3DePhl+7HTj+FEIDlYmtngOe9f+6P5H9r/vXTPJ82yNYiDuJi2yVBugDEiAn+/MHW2H7Rf0pOS7IdcGqGwH8BPIXdYxole7iuMXUQAD2YrZb6a+6GpgBznGJeSDLMVZkfNnhaYbpBJ5mPi9iwYXjuVxi8F+nmm+7AiX3NNBQASXuq882IBYci+WRAchoLnO/c/z8sTxalUsMOjHMa4r5oEnBdvZrXmFNGJEbzYgs80jcjwjoNZYZSRhnqo+Nb3u/JkceCGjMNAJRSZ66Jjm7jYGp/I8Ju4b0J11TuhG2zUKWA3C2AWq4Bjlgw+/fKxbzIw3MhyaTe9GeKBsJLt0/OlGg2bEF23qyJI5ngF2aTJOMqguJzY7WgLW/PQ+ngP2/sLALtNMH0J6snkS7dnQztvTijtU3uJsf1nRWDv9WPBAribjG0W+Y22QO2lt6MXHw0EAbNBCAvQ1KjlNcXAMG5ITosLACDJ2SEGCKS0wKQJWUVRgf7iIWqB3n5ccON/v8mnwulegHPvb13GqcfPRPfXkBuKBwJEAUH3OAO+4xZIS8q2C8u/Jhn5OE+pLPvBKE+YcSNuEzjysO4DutUqQgVPjtE0hPkm3jddfqxoi42gHxY7kkaJV9AfH92qZ9PKkVbkz8y/9/BKiEwdJEwqSAua8oCIRbllYNsm41Y8AFkMOhbsA8n8jsiWeZCQ0Wdvuu7ZP82W2yk4N4rPLV11LEZ6Rbr/ksYL9iQN1dYgDs7t8enPrd+oRk5u63pD4UqlzkkgA7bjFv8te4wtBPpqqNKKGBgmsgAHvBG7Cslw9Qx5KMhKnEglBzFxACLC0Lap4NFY72IhaoF5c29q3CbgCbAYMNdWX70MA2wER43ACK36NUkqPeirAVhztih7mj1QfcW+CvTqA6getqPmLYaYzvPT+2xwB8sDEt0UVifQewY4EnGPVGHpyKhFYTQD8kCdBPyZnSeXBfMOsnmF0btcMk126+yda+mfmZA8yxlh1hOc8DcgkYZUn7NHD2NIBsSww4VAJrKX6OdNz0zDDh8+Kf++uQna+BM4Bdib/+o4DTf8uP/d+SBtjz34QD986/o7jCZmuAFUkCTP+RNR1JJunNPLAeyzvPEGCdfggZJTRQdA0EYC96C5b0+pMlNoEvYF+/Bm0DoAKEk0r881hJVL5VACoSn2u3JCcLbzGUwjLuuoD5utgNAO/za/vZS4Fp5IICKM3lRCNNLWDn7tCPuQ1pQzjXJjQzmsjcnOjPkGQ7dUs4Ep9ueN+pTAysVA1iCd5eMes3/O5uXR+WpZ7JElSaEwpGRQLUDbAD2nUeAlN9coDV34A6AyVQuuocdk6dCDDN+QDYWMgdsAPasZoD1kmCAmAn6RN6YnAmuBSgzntbymDK92zKki6+YkljcOZ5iFJcDdQCdoC6V9y+aN80meV5K+59xpV/vQb4mVe7y23sHcmlMFHi4lq4qn6USTzJ0ugbwiXu63Ub3yyGBgKwF6Oduu4qAaSGw9jQiFwB5Bqo8Vt/gE+7BVkOi4NcABWLsIAkkoG8CAU3D2c4AZTif/mXWFyeS+K28lnArhs04Cv1IKG+M1pGAWr368faDYBGul83EwOoHiluWec76M6s6ljNdayBfIKE64ypMzWGNYpxuut9gDrHNjafnAbSgTLOKJ8qZgnXhzRtGoBTYCzbWNnN2q4BlyVtt5oj+fwAH3YD9GlQBuDbAC1w7xz+nz7zp64o3u80DZwB7Ho+oXQEsP8kekcH7Dxr/Eb8Oe60e4jraa4G6Of28xifffWd0DbCfgWFI/0l7oQwbSWXOnUudDDqvOgPCjIkNFdhcbTSaSAAe+matDw3RH9LQRgI0x8k/tT4a5MkiGRBuMhUB00yiBehYFk2wJn7Y+Nn/jSnJftTCZU+B9i5P/QjpnGTWMU9+RHgHRDNxMWq3Afw7fbBDoCLhnwQw60FHRIfgES/NkHSF7iGPQV04prilfbguG5J921LsqQDc118J0m2akr+Oe8CxK2YSOw47tfOAG3Bsbo+JmKDmiDwNa/cx6nLzLEB+Q8C9fpvk5h04PhbRA2cB9gB6wB3sh/3VE0Qef6ilF8DPBOexZQAc9wGYYXylUNW4fjtp0n+qT7i8TjVRWwVWwMB2Ivdfl1x9WA6wJsDMYApfOG4fliV3zZBqFAbkhEVq28RCvdkwEQ3hoTF5eecehHg/iXAzj0CXvnjg5KDaN62wgDmmygyLxXArh2hh3RKyIdauYB9xwvfwzeUJE9UAmSZaMj4nazj+SErR+b9Sltpu3J2P6Jk5cunAWGaX1isAvtymUhsYzfHk4sPkwn8592qjwsOPPOWxZCAM7n5MLHAumZ0lljnq04Zm8XSQOV3oUZkBeinu0qaZIBdFnaxIPGeJ/cKwF6stq33amGJWrZYHwJNPeYnBZkSbErOiWQ8UF9C7xHzuHpVHft1qAYCsHdow8RlnWoA4GWuEwJx+GsD1jzpD4l/YI1JDCnDxpJiDCnqrbH4uovG6dE6Z4v7ApyCYJG/K9kH/MHwCP+hbe7ZJyl8buOP/pw3DvE5ELX6++k9zpFoIBnMmMv4oMaZAfj4qBMLYHEBkmSStc/yvwyGyV1nxyTWenxF3TWFW7DKNeriDEzpRLjOoH+mT7zPuQDiBqrVkIAyB+huFbN747v6x3FoV1hvqIB32pb2xy+fARrO9dfy98fShm8710RCJSTXZMez+4g/RdJALWAnwynVXGIMsKfni5WlAOxFatmLXav3+0j6HMuzsL5nkn7JWLXkGrMuizuGBD0O9jzYat/FThXfDg10vAYCsHd8E8UFogGAnYNRLGsEReImgcsElI9zGsSp+LdCQ3gacNnZlI8OqoG8gOLEyZ6YD3ZlMYZj3AEynj4OfGuBaALMCfg7eEZvBoQlATXsXw3W+ZwCy87jWymTLKCdoF5jkQFsa79VLT3jI/oy9xWFgWFHPqQ7CvzclaRwTgoA3XzpFWeAJPjV3Gv0PhIrmd2T9sMifiCKRvdDT4lOTuMV8J+3WAW1KZKJWbVfPueGyz4N4vvmm59oHZPOeF5MT+gtXV78LYgGPgXY/6UEavzGeQ4A60jAWZRyagAQfqSEcshdTchfEphPX6S6tHVQ6R/pU0gSh1GAxyEmceV8Hrr9rgKwd/sTUJD7T8A2AVI6ZXMX0YCNxO8aqjevAEVAuwVSynrcycWBLogX8PlKbidUQChBVWviZidQdFvgNFExng+6uUd0ZFIHs83K6wRY0RvQRqLyOV/Bwv5kdlQ1gfYp6bMv9xEGEHH+V2bV0nVpwOS6sGy9lV/7xl4C7A6ZsH7Pyi0JasnbkiRjMpCtIFYkVjL8UN8S/CppPugKuN3UcTYlmYw5IxC++N/MjKiOmpyVy5NZ7GWyRxdMGriedG26Lh3TKB81oSCY19xqqu7ZlBN/CqGBWsAOUMfCngD7kD1L7h7FMxGlnBogMJ+VNCRZjf9SkCmJkaCpXZYhwSzwrNQJrNP/0bfRyyGjhAbKpoEA7GVr0ZLfDwCTjtndKXCRwSL8MLfC4oM9KZeOcflhT8hdptofu9NVgyV7Vcu8+Iwvy3pkrh5y90ACks3FRyORgdavHJDQF6X26+jQ3FH0WQLsY9l3t0ez7wTamQDhemLJlSQ3de434otf1HW80aSCgXJ568iCvla3j6qOn7KvPr41kn2bu9gQW2BZUuXCwvFIgmT+pzqeSbvXIx1PyU9U+Q4xCkP6PsGvaRKRJhIEGdud2KCcGd2jTXA0mXgl4I7efCKB5P6SO04M4NZIBfpzBrALkP/LwPqYAfY5/dbh/mdyCGgPwF6ghr3gpW5pEr8toG4UuJqQE4z/TFmhkSvqe9Iqi4wBekbiObigcuPrhdNAAPbCNVlcMGDTAgtlWYHKb1z84LcFDGdVb1+Di3www0o8PTZgEqDrLiFYmTu1YEGCW3gT67VAMllQbQk4B6On151guNnLc/B6+tnXbaFDjoLLDFzq96eGzNUAdwMmPP05YMe1CPaFVYFhqwLrWLLddxQru11Hflr42d0fHom13dhr9D4Wc9xYSBIF8F8kaZSCRR2sMwlgAAa0c17caR5C3Xlz2CQuMenO08m4LiYSlnRKkmuyVOV6H8m9Va8qfJ1m4ludoIFPAfYfcImR65uDdWQAtU5oseZcA/2SGRK0gUsbRow1qvof+gmSvsEKM6+8EtDT0l/0m2tU6uObcxVxlNBAZ2ogAHtntktc1Wc04J06HTqAHSBI8Cn841Ssukb5KIvsnRvOKEEQY2cP7iz7un83AZTOL/wP/poCuUxS4CaHa1j/zVeT+Uc9/prokIIA9ExplWJKExxWK7C4A5gHelOAJ0vSidIRN5ZjA907spQDvrGYW9GBOBbg3NxYlIUWSVs4Pz4A3AH7IoAdaz0TAVnKoGjDYgb4Mp53Sa6BSRiuMAB/2pjr5jzIffnAwy/PBILkUwD4ffnEwx6Dbzzfs+lZnZMau6/4cykaCMB+KWq/9JNW2l0dHMHpuAZ6nAoT8zUZMtZxE5Skr3QmLWQH22IuXa9xAeXQQAD2crRj190FYN0DKumsAZ3uxgFYfyjAiHUWCfDjcyp+1J1aCMgkaVDK+Plefpo7SqQkf035bL7WwAXvOBVAysDmqwb1MiIAaEG1gOTTzKXiO+9PujKXGOnsWMmKANoMkEgCwJg42PXqmh1Ecyx0DUUkrklUrOK4towM9pkkKBSg/vrtnskVWdU9qdOqBmIANtfDvcESA0jHDx45qrgEd+PhnGRDtayn+KwfiCVCuvGVF6QjdgPtndrocV3naqAC3NSM/L7dJSYs7OeqqzRvnqg/ScnTyID8zgLxE0PVrlnW6f8sC3L+W9ejkRsuqtf5SqOOuJHQwBkNBGA/o454UUQNgM1sgBeKIwgJtw58sb+/Lb9sScAoyYGw/gIoi1CwLj1f2k6sMUqoxDIwFuRtgWYkgxqBl4BbZCPWJanPJj+GcfVCcZ/mluKTHHR6JNDOOQHrAOBqVxPAswNp9rkPW4+S2xAEDF/+mFyWvALYsZgtyu8cuSarOpRsqR4Z+Pf24Z5YPYERaIhJhCZbXCPnQjJhgL7RWWbcBSYN4gHTXY9FlAHYi9hqjV8z/QuA3H7X6ivIR/Gb6lPlqHixulsVx1PfymLjVxhHCA1cngYCsF+e7uPMTdIAgBHXGIAlQO6U5lF+2QKP5i5jVlqCUftywHkKOpt0GU09DIAFQItlHclyMK4fbo0G+HLfmJERCZ4mK1M94D35jQKGE2CHJQb/UKzcnOdYHzh/OmetBexcA4CZFQzPmgpvOtZxXGKGRMGJSwwD8To+qXJhwTcVX3Os5LC6IDmOF+6JCYBb+rG08jnXyLnQkVvjAO9cJ/fOtQHaoxRXAwHYi9t2F71yfrc5r5UxweCbbhlNJY1O1mkcFe9ik3H9adRIcdFrjO+HBjpBAwHYO6EV4hoa0oB3+AnIZQpC7bXkPwRP3hgdyGkGky80YN5cSazTT+CuoZO3aGcAtDGeCKQzeBF8tSjQDlMLEp9yfNkNROvG0QGDGYC1Xp92Bk2OwzHMco+OVHnP6NO0IVxsxfAw59MrfWx/kHgcjcn9BT94+N3hyndfeAJZWfKGT5lVAtxr8I93CznL3fnROKKKJgz5NTBx4L7cDYqToiMDdrnkOrl2pi3IKMXVQAD24rbdRa6c36z3O/y2iWlJfVxipTLmLAwVWomjz+N3bf1c/MYvoub4bkk0EIC9JA3Z7beROn5pQRtmlc1dYAblAoMf+6Obo9kjBUHiqtEjVOlAsB5w2w5dcz8AWffXZLAiCJUAVCQDmflz5i4hfJ97wZ0F69NFi3Y/xcoMinppVvT8UAymPiGyY+v96rP4/pzagkbNOl+l5yrwD2jHIs5kowLMdHC2awvHc2u+nTD/in+zGsD7vnXcvu8askM0UHku1NDhw94hjdKCy6DfSi5urJBmxoxF8jiL3VEMDxN6CySXpC8EsdPvxG+8BY0Rh+x4DQRg7/gmigu8qAYYBAB07ubxnXzZ8Wf//s6YMZfgCw1/MxJwWYRCwOef+LTLn52KlX1XgxhWaphaADgG2DWaIS9rQEPvFbClARhAXV24LndZ8etkAPbt6u+y7QM6R6k5VGXg9uPV7huvi6uByjOkhg/AXtx2/NKV084EiDOJf6cJ/J8C6+a3vrCV/S7f9SihgdDAqQYCsJ/qIrZKooFawD4nqzqBqHPyZ7+rbTKhQv84MYR/dY+B2053o8C6RAIl92snSRC+nvC1I405RgOes6TQlIDjq4K17QbvDML6X5kwnXms7JoSaDfwbtf5aauZt2Ut8PdjuvW93ffo5w/ZGg0EYG+NXjvhqOk3ndzvsKCTFMnyJ0gSXP+SVUTVeVUrTPI74cLjGkIDl6yBAOyX3ABx+uZrwEGeW9jxZYdnfNISKfUnXm/4va8PWUCqW3cd/DX/iho/Ii4kcKB7MBY+nSvKhorPJ5IBz5aP5QeOpHBfLCAg21kA6+aqgjznxKdAnQ8TWGdEPu8qbf9PHCftbYc4d18+j1JMDQRgL2a7femq+T1730D/TJ+2pOzOlvzMsjyneB0MErj9VfrkT/QPXzpffB4aKJMGArCXqTXjXkwDtYDdOcaHRQ0IveAjS+qDT/todks84fh9A2oduHeiGhnc4BmHZQXqM4A7SUUWjElmz5IPAdo3VUnnTSFg1H3123lPZ0G2vao5fQ7SefcrB2I/5pkD5Qj/PKB/5nvxonAaCMBeuCb7qgumb6YvsyqXOcA6eSbgWqfSd+HiZ0nkZHjgt+2gvc12h6+6n/hSaKCdGgjA3k5tx7naogEH7FhysPY6IFccpCVXejI7mj0RP/tj1btKsgQVoXOOA3KLUFhGBrC/WtvTMvKerOyHeQbAY8sGCKuLD3TcUgU2+4beK8adFqE14hqbrYEA7M3WaGccj3ZNideS4QEXv2eLO9kzxeU8e7NtGYq97XHvo+/yfiwAe2e0YVzF5WkgAPvl6f7/b+9MuOM2riwMWRT3RQtlyfKSiZOcOWN7/v8fmdgzZ5JM4kiWZK0UKW6i5Lnfe3jdzQ4lcWm20N0XUrEANBoNfFVAXTy8euVfviQCoUn1p8KFDd7w6WyKSP/qZvqz35VrDP7s1xUvnJzBlUrJdlnQ4vYSIc8k1IlnTnx2/NkjFKReM+8eHkXjVyETg0YwSeicW3ChQbykcvBuTeC8BEq0qVuGO52eF2JHvhf3Y45FM9yPiHhV6ZEs7Gl0kPFBBghGeS7rO3m6z+VNyvepjhSoD+OTEbBg/2To/cOXSQArO1OvscjFcBPJ+OzEaJ+PQX7uyZf93o1FpaWIHY6EzYai/VIHM6xUFc+cmOZbe8RrbzuhtnmJd4Q8HOLNg/4wny5Amdty1cECnvFDsmCfngpQ9x7uxgyO9ijGksg4608wNqg/TgwIp3nKPe7Z+kNeIt33qOmpDz6T8xOwYD8/O39zAggM3vwj0oju/EuKzb7IcPeypt+QaP/T3dXmjyT5tCPiU6ynaO/qKWJ9qkGTajCi6pC6JYFOJ65fSESWUU6MY5pCtYfR6QvXH0R75l09Sx/XrBKwYJ+ekg9DAXcf3XswHvz18evmbxFrfSdGbyZkLSFqydkm7786/zSsTw8In4kJXJCABfsFAfrr3SeQDUYKVQQ8IjWSWoZ1ucEg2EO0y6f9tiLJpD/7lcgRtZMw7avBo8PWtl43k/OqGbH+INJeivsI+6h4x6j2mtpZxHxwGvioNjkx/wCWD3x0bFcf/KkPfnhsN/0FN/B9FhM+Z8E+4QXYHj6GBd4GHh5ljhsfAyPF4EjKcY15o/tSpndhUR90YZwOCj4LExgNAQv20XD0XjpMAO2HGA0bs/JwB5FoR4uvyNL+JfHZw699qbm9sSBf9vRnv75yLTqkdvjUeodGo7inQZR2JdzJcYeJ18wM662E7yh+7wh7Rkg9PHrbNqSMOnp8xNHS8yG8B9T3wGywyx8fXHt8zfuedbIsKI2Tplxb27DFse20UMt1fHUE+XsZgeZ9v33SL3pd9whYsHevTM5zRL1wtBLmL3cVslF9bugsH8YE5Qz81itr3Xh617Au6rquz/O7/o4JTCMBC/ZpLFWf078QKAGI2BsUeljTic+OXzvpcwl24rOHX7s6pOI6MwkTjV5EXwhr1rsQ7jUKKvm2wj3uYIHfV2JevqQkfEoR+TSsuNiUeB9+HU1Dmg3ocVehkxrVj1nIKAvKIVyUhuCWGGd1lhm2/5rPjWMb/SlRnseWx8Xx8EBWn+U3/HfSCPREnMrZI51OWun1jxcDQbrm4bO+1/y6pWhWcot5LiMC6UDGg3q7h6Gg7ie+fvsMPWcCRcCCvUg4nwkCJfbIEYy4xizjz74wF/kdCfY/yJcdn3by1cW5ieASIlh/5Koe54XgiVFPww2GAUoUQUYN5Iudg8jD+t42nMRup+EkxjuJ7zINNp7YrVMY5wcsnzSxNrbTn972Axsm9zzGOOaBzwZnQ6Zr4972NOt5WLGObfO38kj4LRWlfhPf/BTtg/vz/GQRsGCfrPJ639FiFMD95S8K20iOYMdAECms6+39gh1w/b5vR15vAibQWLC7EswcgRKKCHYE3jUFaMfSTjz2WxoRlYGVvv18tfm98g35uC+ok2rFaS/rcdehldBF8nK+EUZNAn1Lr6UrmswLvabGdQaf9xDriHalNxLssMH/lO8yT95b1sn31gOCbdp1zBUjRPRJE99lIotN2oa6vjfYcNc+QpZru3BnYvsQ5v2HArZD5B3qTcEb+csSHq6m2kctO+8+AQv27pfRSUfItY27XQzwpnvJS91jGBDpb7/uKL2OiDC8zYu3gTIm1D1Yl6+u6ZP26HUmYAJFwIK9SDifMJlecgAAJ2VJREFUGQIhNgfOFit7jQi6vjSX7jBtqEfcZYjPviF/dmK1X6VVyf8De+jebGhi/YlcfyMSgyxau7J4pasMLjGKzsA6WbwGLeyIXSLPZBSa9HGvZRrbElN8zjw8EfMY5mmAP2QmyzZ5UGjTAbgvxD9TWZQoZ56yYTk6CWueh6o5PWDNKWddWxzxm5wjAmFLDyHkHJM20eHkdt0rJR/R+whUHVMVs0vM+yB1cD0DtmEIiIhV9KNRJ9OIVMWIzEqMxkzZxts/bhjtxH3Bgr1oODeBkwlYsJ/MxWunnAC6sqZqKLDa4h5DaMdIEul35Mf+xfUl+bUrl4jHGs+/9n/topN57xQ1k5bn1rLVur5k9IZcFxaxtiMq4j2sZGFxTzFPp1XWk+Pnnhay/K40fIhjGuKywgMkf793FMEIdojo9DNPIY4AR7Tng1MK8pxPgQ7zOb0BmddGCwrFyRsPBrhCtLc7pTgiZBxRcRAGJI6nJ/6rkPMb/ttxAhbsHS+g9xweD/Fce/irkxNe9rmEe/msYxyIh3p9/6R78Ht269UmYAIiYMHuajDTBJCTNCAYe2hAEI9EjllZuCrxPtd8qegx38qX/Q935CYjv3ZEI9ovZDsqcUImzk22cP6EkB5cfquFEu9Y1+koRkSZXVnfK39NrGQtk4gyMyjgB33lS7zrZ4Ir+eCEWOctRVnM5z7DFQmLebomMRItVnTS/NyVZmEuBfqC1iPSl+lrsJg52wxOhLLMIc7TZxbxwCZloR/c1vPdJmDB3u3yed/Rcf/4C2Eb5bNO/uDZnt7gcd/IWOtck9w/482XZiboFvq+U/Z6ExgbAQv2saH2D3WVQFmFEe0IvEGR+Pn6QvOVwj5+vamknE6oWOGXJeiXlGeDo4Znglsezp+GtCLFYF1HtJdFvQT8nqzrsV6Ncgn86qSKUB+0sPMQlKL9eKnDCbGeIrqs6hLwiHatx2p+rc0R8TwgRf8CCfYQ7WKOcCd6D5/z4FHlh0Xvfx7uNP/9y7by7TgnyrMeEI4fiZe6TMCCvculw8M4x5fX+P6hQsq29wY6mf78dDfTs9fRybTvbvdW94gS6/kg3e2z9NGZQLcIWLB3qzx8NJ+AAI0PTQ85QhIhWOKRTqeb8mO/vT7fbEq8M0+ic+rm6kJa2yVCJ83iPoiZ806BlP7pJd6xlvU6iCHSJeoR6j1/dj3hMM+DDqKZ0VTJmfhbr75jRfuH5xoYZ6dRzUucC3fkOd+3vpdbzKCYr87B5Ij/eEjQAZDfl2BHrFcqC7sF+2AJTMa8BXt3y4lLvO6XzD9X5ClcXog8Rf5Yb7p+Vbx1IsIQe53rkLdw5NwTuG4n+X7Z3ZLxkU07AQv2aS9hn99HCYTEjEaIhkQJARmisgkr+orcMLCsk3CR+UbW9m9aq7v0Zmxb23/0xzq4AecfFnHNpPBOF6FBMRwCSo1treuLdJpuvt9vxOsUWTc8wZZpsNGueVjGvP7kfN/fHb7ynglreXVGZfchBvTQwIPFfb1+/0mC/acHSr+8is94GCj3m/hh/5kIAhbs3S0mruu4T2iG+8CDZ7vNfQ2CdF85b7noWErkKXI6gg+Ke67ZuAVwrXf3FH1kJtBJAhbsnSwWH9SnIkCDEuKzbYxK7EUUGam/PyjU47/fW1Nab/79i7UUkWElRlC6CRpnuSHqovNr66LzswTDTw9eNT9KsP94X4Jdn1uwj7NERvdbFuyjYznqPREJhn4v+fDeqN/Idia5oxHCkWvyQA/Q5G9lVS9jRuWjPh7vzwRmhYAF+6yUtM/z1ARCsGMXknov143yuyZaTFnXy6e9rO/4tvctw5Pt135qWJ9wQwv2Twj/kn/agv2SAZ9h99wHsajzFg6LOh3Ra6Rk8vvP+xb2h4oKk2+9cIPBxY43kP03ZzZpnAG8NzWBIQIW7ENAvGgCNFBMbda6b6R4v6FQj8Rm31ToR/zYP19fbG5rdFQ6p94kTrtMumWVx6Lk6fIIWLBfHttPvWcL9k9dAv3fR6z3ykMW8xcagA0f9SckxVl/to3/euYMylZuddo0RH64ueG17tthH6rnTOAcBCzYzwHNX5l+AiHWS7HrdGt2UTHAiQ5DIlLM7zZXmn+TT/vvbi+3cdorTGEO7DP9pD7dGVqwfzr2l/3LPYGoCw93tO++Wm+++3Kt+Y8v1+MNV0UOIucB2dPlEaAs6FzO+Av0FXmosQ5+VgQYosH8Qwk/deKr7ykn3OvwvTOOTEXkUrq8MvKeZ4OABftslLPP8pwEsLbTANXr4LQWtR1N1Qnyj4rR/ifFZ//j3TWJ9+Uc1EdingF+eoMs6fu2Lp2zAD7wNQv2D8CZ8I/eJ9i/k2AnxOpguE8L9tEXdt738uaHSGfshQOJcUI00lfkr4qxXvHWo6y0Kb7tuMyUWyAC3fe90ZeN9zi7BCzYZ7fsfeanIIBYR7FXpAMWw1KklojG6J5GP70nv3byuxoV9brCQF6X28z15XkNvjTXc49BVLjxgt7oJgv20bHs2p6OCXa5mSHUvw8ruyzsm4w4rDdZsq6TW7CPtvTCBUbW9AzF+C4GS9vafaMQjZkI1/jwZY5iirU9/dvxc0/DBvc53e3iRhn3ytEenvdmAjNLwIJ9ZoveJ35aAsM+7fRGRcjTIZU47SSE+g35tX8h0U5CvN+QTzuiYl6CA2HhKDKnJX667SzYT8dpErcaFuyI9b5gX07B7uvqUooW9mFNJ/qSrOrP5Zf+WJ1JGUn4kcQ64p2wjdtt6MYKCVtvI0uk20BxKcXjnc4wAQv2GS58n/rpCYSlXZuneM8IMqwLSx/CQcJ8WRb1b+XL/nuFfvz97ZXmjkQ7o3IuyO+d3JbA0/M+zZYW7KehNJnbvE+w//B1+rAzIm6Miqtrz527R1vG+KuHX/qB4qgfHkmsHzR/l696pCe7ESXmXUSAwQUm74V1BHWfLNFe652bgAlcnIAF+8UZeg8zRKCsSOXTTgNV83SA+1ZinUS8dkJA4hZDooMqn2NlR2CQu1G7WMWxYL8Yvy5/e1iw/4CF/euNsLIzcNk1XT8p2i3YL1qOcQ8L//P0Qce63regv4lOpv8noU76uxLhGjE+xGjQyj2ZgAmMh4AF+3g4+1emhEAKdE6mb2VPEf+bGrDPmjsK8XhnYzHSpsI+pj97usysaKRUOqOW1d2WwYtVCgv2i/Hr8rct2MdXOljJ6UxanUqJrU7oxuc7SsqfKnzjYyVCOeK/Ttkg2NHqfms4vnLyL5mABbvrgAmckQACnSmzvnBHgNcgSuT4tt+OWO0LkV+XT/ua1q8uXWvWlNzYJcfz/rVgPy+57n/Pgn18ZQTrnf03zc7eUQyIVHHWS6DT2XRH7jEI+ddK2rwXCcYG9vGVk3/JBCzYXQdM4JwEWt1eyj32Eh2t9Id8eX6u+fLGQnNPvuxEkonBlVY1wJIGXqKDKv7vns5PwIL9/Oy6/k0L9vGVED7rWNNftOnJ9n7zi6K/PFAify2xjkivzqV1ZHGvqwXnJmACl07Agv3SEfsHZoUAAh6hQTg08gX5rOMic5ekkVBvK20q3VpbbDYl2hcVr51Y7dl57jOHfTxjRbFgPyOwCdrcgv3yCos3hMRWj6RIMAx2FKOVatRShDsjmD6W68ujV/uRE4Md28JVKXT3vbm8cvGeTeBjBCzYP0bIn5vAGQggNPS/eatWkU5ZhHvcWEr3mBuKz35TFvZbcpO5pXxdn+Eig3vMqraRZHfs4jOyPpTgeEP4OSUGdPnpwavmxwfbzY/3X8WDk56HwvXI7kdnANuBTS3YR18IGBTw48NnPTuVHjWv5O6ypfCMYV2XvzruMC8VxpF1W7tHkSPso6O8riX3uxl9uXiPJnBaAhbspyXl7UzgFAQQ6/Xq+IqsUljZ5+cU2lH5mkR5ivb55qb82bGyY3W/LQv87fXF9Au1aD8F5dzEFvZTo5q4DS3YR1tkJdbV40YjkjaynGM931cn0v2wqNegSMRYx1edB+ADHoRlXUfg4/5CXCu7wYy2XLw3EzgLAQv2s9DytiZwCgL9xjGtWYh4Gr0lRYghaswNBllSjl/715srzde3lmO4dazA1SiqffT0EQIW7B8BNMEfW7CPtvC4J+kWRGyrcNf7+6+vm388ea0wja+bB8/3ZHGXtZ0ksY6LzKBFPcX6aI/HezMBEzg7AQv2szPzN0zgVARoIMufHRcZOpmGC8zi1cgJ//jFjaXm3s2lyJfk074oS/yiBloi/CMNZTactmydBBxRx+v6covBJebH+3KHwS3GLjEnIZuYdRbsFysq7j0YCUjMI8IJ3Ui+e/g2RPp9XS+IdUYxfa11rw9IR60r2ZVwJcOtz1b1i5WFv20CoyJgwT4qkt6PCQwR6DeafZ92xDhx2MmxtuPTflMRY24pEfYRn/cbygkJGQOTxIiO2XgO7X7mF9+VYKcD3dFvzT8lQP4soY5Y/7NE+9FbxYvWQw9vLuzDPlnVxYL9YuUFP+o/EWAwGoTLS+uj/kI+6s/UwfTp9mHkfBYuMMRilxsMxoXoYNoaDCzYL1YW/rYJjIqABfuoSHo/JnACAbWV6dOuz2j4EOElILGo10ioK7K638Xifh1rew68FP7vEvaMkOoQkP8KF+thRrtIYfKzhk9HsFeyYP9XZpOyxoL9YiVVb57wQUeEP5IV/ZcXe81D5Q+VlzUdi/q+rOvS9vJtT3cZzdKTRverHBzpYkfib5uACYyKgAX7qEh6PybwEQJlcadBRGxixUK8z8kMTP5vGnL993dWm28/X9H8SoR9RNSTEO2ejhOAYVkR36gn3c9P91Ks/3Or+S9cYmxhPw5sgpYs2C9WWFjM9yTESQjy/5Ov+l8f7zR/e/w65rl2ZHzvuc3geodIj5wZTyZgAp0jYMHeuSLxAU0rAYQ6EWTS6p4Wd1w2iG1MQ5k+7RpkSVb2OxpsKUM+KuyjQj9iib8m0Y5wJ9nFI8VGX7D/JsHeWtgt2Cf+ErJgP1sRwguRXv05sJxvqwPptjqSkj96uReDIGFlx9qu21D6t8c9Ke9Fug2FVd16/WzsvbUJjIuABfu4SPt3TEAEaCiJ1EAujd5rIGksicuO7/rGcvqwVzQZfNrxbV+VcI+kuO22uFuwT/MFZcF+ttJFqO8odjohGUn4pRNTHX/1F5qP2Oq7irGueWKvD96H+KW4Fzls49mge2sTGDMBC/YxA/fPzTYBrOzS6/xv/USTBw1mjXiKJR3/9dvr881tYrVroCVittMx9aZyOqkuy+I+69Nxlxhb2KepPliwn600d2VRZ5TS5+pM+kz5U+VP1Kn0Cfmrw/BjZ4CxSPjCaEK0R64/YVXHgJCr/NcETKCDBCzYO1goPqTZJEA0h0jyvaYtvasBlfpJHVHlJnO35y5zrbXQ08i2zeyMNbgW7NN7nViwn1y2fZGdT/3cJ1i3vf8mwjPi+kKYxkcaEOnR1kEvcYegr0xEnuJ1nicTMIGJI2DBPnFF5gOeVgIhUtT4ktMQ91xi5A7DQEu3Wus6+brcYuiMurygpJwoMvjC49tOPgtNsgX7tF4JeQ3U9YDQ/OGr9eb7rzea75V/o87Z11THeSPFZ/T/mPaJ+8HbNkTjWz3QEwUmOpUqrvre4TsNevSmZ13Hyl6uMJVDiHsDfWbc/2Xaa4vPb1oJWLBPa8n6vCaOAJ1REaFYzJDsIcgR5a0wR6SvKZHj045rTKUQ7XKjQbiTZkDDBCt3Op24an6qA7aF/TgmOqsTnjHDNGrwIw1yhI86vun4qG+1vukI920lwjYi6BkkaU+inkd47gk83Ei3ezIBE5hAAhbsE1hoPuTpJIAVDdM6Yh3RXtZyGlksiRHiUYMukWNxv6dRUr/UKKmkDYn4hXaEVAZlIobytE+2sE9vCVuwHy9b6vqeRPju4ZHE+lEIdKK9EFf90UtZ1CXYK4QjeY2wzPeIr87tIN67RX58314yAROYDAIW7JNRTj7KGSSQLgE0uKHjZTm/0lrQr8Qoqd/cWm5+J/eAbxSz/eYqLjJzYY1fkpsMvqphTWvzwDdljbUF+/ReFO8T7LjG4BKT/tjT5xJTD+2UbIlt8jdyg9mRn3pEgVGoxuevD5r7z/eaB8/3I8fCzjaHcpVh1F8Eerm/2AVmeq8Tn9lsEbBgn63y9tlOEIFosNWCkzPR8NZIqauKErO5TgSZhcgJB7kqob7Sxmwv33ZEPAKeYZdy5MJ8NR47nPA/cLFLzIQX4nsOvx5WCWjCg+oP+K9/vS5f9g09pC7pWkixHm+hpuRtEpc5dTrGahAXLOp7WNRxbdE8ri6viKuuHIFONBgS0WGIu861ADes69Lr7QN75u/B7NUmYAITRMCCfYIKy4c6WwRowHGPwbedqfxPESnEYSe040or0mOQJYn1taW5Zl35dcVuj/jt8nPHfaaETeW5x8n+a8E+2eX3oaM/SbD/p0T7DxLtWNipx5W4LqZhoj5z3pXTYfSlxHj6qh82WxLr4asegyG9CREffuoS81jWcX3hXsH3mUq0TwmeaShin4MJXIiABfuF8PnLJnC5BKLpbQU7LTCNMA1wdSLDak7Cor4hsU5n1I3luRg19W6EgcxQkLgQIHDmZJkkn4bJgn0aSvHkczgm2OeuNIj1Sgj2iIikek9d5nqYhimt4+/SSi5rOSEa8VMnPVaYRgY92trNQZGwuHNbwBrPTPV7iVtF/Eki08JmGsrX52ACFyVgwX5Rgv6+CXwCAljSsoHPV+B0NMWyjmhfV/p8Y7H54kaKdfL5uasxGBOWeVJZJ6+qRUf8TOJkwT6JpXa6Y36vYP8GlxgJ9rbeUn8nVZRiEX/bWtU5X0YrJUU0mKO3zcMXiPW9yH+VYMcdBiv7K41kuv/mXS+mOtfyhF7Cp6sM3soETCAIWLC7IpjABBLAsEZjn41++vlG+EdFkCGKzHW5wZRbDC4xq61ve/i5y5WGbRZj27kQ8Hk3SAv+pOCwYJ+Ukjr7cU6rYB+0gCPO8VHfJ/SiEn7oO7KcRy5RHjHUI3Rjhm8M9xf82ZXoYEqn0nrTMKkPLWevGf6GCcwuAQv22S17n/kEE6Dhj85pmkG8y9OlmW9jsNNJL8V4infm+4MwzYeYp5PqerjPzIc7TTrZpLvNpGCxYJ+Ukjr7cU6tYOd6DRy/hQ/61u5h8ypcXeSvHjHV8VnP2Ool5BHqzCPSGTAp/dXzWsWyHm5xZ0fsb5iACUwYAQv2CSswH64JFIFo+LP1z1U03u2H6dveNuZa+bmiyXy+Pq9EZJn55rZcZjbXF5vbWmYgJix05Rdf++96bsHe9RI6//FNt2DPcRYY5OjJq4Pm6av95olcXp5sHza/avnXV8o1WikP4jyUVw7ND13z56ftb5qACUwCAQv2SSglH6MJfIQADXk17DWPoGUd+S1Fi9lUuiWxHvMS8LdIEuwMusQw7xnnvR3yXaa7q21H1a5a8CzYP1IpJvjjaRDsXHtHGkThrSzjhFo8IkZ6WMlzfkuC/ZkE+jOJ86dKEaZRov1pG64RP30epCvnYbz3ID7BZetDNwETOB8BC/bzcfO3TKBzBBAIKdaJGdEK+Mh/Cx92Qj+uLl5tyLGqrynhFrO2eC3DQyrSzDKDLymPUVVbH/deVJmwwnfntC3Yu1MWoz6SaRDsnAPuLHvyTa9Y6oxU+jr81BVXXQMh4Q6T8dWVy299Z5/15Ec9V5d8+9WKdYFm2ZMJmMDsEbBgn70y9xlPKQFEeusg2xPutSr82xUej5woMfi1L17Ljqcr6oRKx9Tyc8e/PX3c50PQY3kPhxkLdnB6GgOBaRDsWNSJm74ln3R81QnLWP7p5HQuxTd9/036qEeUGKzwGqkUP/XS5cfecHXsGhxDVfBPmIAJtAQs2F0VTGDKCZTVXQa/dJuRnM9QcBnHmugy+Lbf2VDCx12JUVQ31xbDZWZBAj+tfN0KoWcL+/RW3GkQ7AjwJ/JPf7p1EDn+6Y9JWmYeqzvnST0mrz4k7kg6vfXaZ2YCFyFgwX4Rev6uCUwIAUQBgh1hgOtMCPCw1l1pFhTD/ZZGRr25ei3822OEVC0TFvK6/N6XZIm/NmCdx+KOzzuDMV1THpZA9qWdxvyYmHBORM1gSHbyn5/uNn++/6qXWM/LgYo5P6bD8s+MgMAxwa5C/KEdOGl4pNM5qVvq3bimevjlFRbzWNGr/uGn/kYivaK54A7DKKUvGK20HbEUP/XnO/Jd1/oDxVLHeY3rsa7Jiqk+LaO3jqtc/DsmMAsELNhnoZR9jjNPAEFQoh2RUNY8pA7iu+Kzr8jHHReZZaXI2+VVLec28nOPz9tc1nliQSOasAyOU2gQgx6hnum3nmD/EdH+4FUIKQv2yaz6w4L9+682JNrXm++/Wm8Y6RShXg+NY61zupB48I2Qqpqp2Oj4qTNfcdTDTx1fdK1/rZyU8/1464h9RH8I9vaarGtojM8gk1lBfNQmMIMELNhnsNB9yrNHAGGAOiiLXl8QpNCuKDFYzXMeC7oix8iyvq5Oqfi438TPXQnLOz7u5HRaxSqIgCo3m3HRRdSFWJdVE5/ff2Jhf7DdINhJWDwt2MdVGqP9nRDsKj+9JFE9vBJC/fsv15vvEOy3llUvK6rRZ2MdqbfcV6hbHON2xFDvx1LHN/05cdSVCNtIvcTqjnsMdTWt8RklRl/XFH96FvZ4R6UH3/G9MxhtuXlvJmACl0fAgv3y2HrPJjARBLDw9UdNLQsiFvkU+Nclyu+2Pu7kxHAPP3f5vG8qNGQI+9biiWgf14RgCiHUCqKfn+02P8my/mMr2i3Yx1USo/+dY4JddQqh/t2Xa0rrzdcS7HScRrSTj7vORXhG1T3y5xWSUT7pxFTHR/2RfNRJDIQ0qLy5NK7yJkoz5P2H5tHz8x5NwASmj4AF+/SVqc/IBM5EABsf7iUI9EG3mXhVr3WrCgNZEWSwsJd1vaLJ4AO/MHdVSbnm8WtPC2haQRFUlUbpb4zlkkgbpF2Fyrv/fK/530c7zV+U/vfxTsS/TnGUfuxnguKNPymBEOzUR1VKxgP4053V5o93V5s/KX11cylCj+KyRaKujWrC1aX3sKDfLn/09E1/1xyozuF7fnD0NnKs6DVSKXla2HO0UtxjmOoRFoGO+w7CPdzIRnXQ3o8JmMBMELBgn4li9kmawIcJINQR6Ih23GaYWGZCiBObnWgyCCRitGesds236/mMdSuRt/7vbTx3rKDzEvSjtoYSDo+QeS/Vge+lwub98mK/+YfcYiohvBBIen4Yq299UvPfixBI15N8gORh73fyW69078Zic305O0Vv6AGS8KSjmqgzEV5Rgpw8fNQjbjoPhW08dfmq84BIlBc+j6TPetu2n+/r+0wl2JlHrJdwZ9mTCZiACZyWgAX7aUl5OxOYYgKhzVuxXvN1ulgDo5Ofcqydc5/JDSHy9HdnIKa1JSV1UMXf/Tp+7q2PO58ttSJ/SYMy4Y88qgkBhRtCpv3m0cv95qESwv0X5VhnOXZE0jg7Jo7q/GZ5P/Wmp8rw3vXFBqH+hfK7SrfX0y0L1yw6QY9qwsd8T4MblQhnEKN8IOTBUNZ0DXa0rcGNGNiIz9i+N5qp5t9qZFNcsViP+EetD9Z4+6iPqqS8HxOYPQIW7LNX5j5jEzgTgbS8l297m2sPuA8g7jc0YuqGBPvGMulas6lQkLfk2765JiuoLKErEu241axIzOO+gIDByph5yplczvk4uPbzeHiIFfqjheo0y/oduSM8lDh/+GIvErGtGdadYd6faoh3RB9C3RbNAjg5ef+NT5YhdYn+EtQtxgz44sZSmxZjxN6oOVFn2orTnirrow4NVKSqQ2xSdZg6zibhZiVRjiAnsgtvbqhLz6hTqlsxENLekTqUHjVbqn9MiPCoY8xrph4QWefJBEzABEZFwIJ9VCS9HxOYUgIpZiRzpGgwGh4XPI3cZNJdJlxiNL8uAZ8W92sh1CMMpFxlcJ/BfSFcZOSnMq8IND1fdwl5fN/7YidFEEjr9xFx4a4gH2JyxFNa1RHs+xHzGiEVSaKL77G/ElRTWjxTeVr9MkcEN/HmZl0PhSTGCbgXgh2r+1JEKsqRfLPvxHCZx770p6z2FVmo8sN2ZFHqFG5We627C29w0pIuq3rUK0YnTVeYcokBPseX2jzFei736+9UFpBPygRMYOwELNjHjtw/aAKTRQDLI+bHEuqxzKp2Jn3UrzSIJuYR5dERtc3xeV9UZ1TWM09Md0R+CP2eT3z6xlfnVHKs4/xEWUGJyhGWTwkprJ8vNAANLjCPttIdBqFenQERXjmlcEpB1a5y1nkCWe4cZlayXp1SXwhEe7rHLEWOgI8+FqpLPBzidkV5Y+0mR6gPdiRNX/PyOafTMrHRiaGe66g7+3ooZLvoYKplctYTpjEeGiXyEfw1Vf0qsc4P17raxrkJmIAJXISABftF6Pm7JjAjBEI2pXaKM87Z/JtuJ2VdbAWylAuWToQ3Ip6Oq+Sr8nMP/3a5zhB5hjjuWOQrn9M2+MgjuvguDwXpHpHWdfyJicRB/rQXQg/BftDsSVCxfQj8PLRQTRZOk1lJowjbcgwhjABXYdLBGV92RDu+7bjKUH9wx1pX/wkeHNM1JbdHrJev+ZGs6BXZpfIXelPzsk078k9HkBMNhpzvxlslVayqW7VMvcwpHwx6lHWMrnM9Gp4xARMYEQEL9hGB9G5MYFYJ9ISMADCfIkdWzVbPXJP4roR1PQdgmo+8BmHaaAdjKhcZYrvT0TXdGFI0HUqQP4+h3Q9iqHd8i+lw+qty/NcJwUef1rLSz2p5TON59yzkqlM8+N2RH/tdjQNwR+mW/NqpR9cjl2CXFZ6HRR4kSXQKRbCXC0z4oeuBj5wHvxzoKHOs7BnKMUM6wpI6xX6oVzwwEEQyrPea92QCJmAC4yJgwT4u0v4dE5hSAiHYdW7lutK3QOYJI3SksULwLMkthg6oWNrTNUZuDFpO/3fcGVKoE4Xmqiztv4WFM/2PEVI7ROmQ6wsdTonSUZ0At7TurVwUQqQ5jOPU1bR4cJMHCjl1hA7O9aZmTW9oolOzHgbp4MzDYVnYEe5hYVc9ilx1pOL279KxFD91Uhv5hbc0uX1+D5DsI/eXlvMQ61qPePdkAiZgAuMiYME+LtL+HROYUgJhSNef1qDec0nBwxdNg+ApIY3YKveYyrGqYzUllXW8RoRE/JeVHSGFLzGW9gMl/IzL35h5tsvfS0volOKeydPioZDypY5Rl+gTUX0jFqrPBLH+tZ46xDZpDc+3NNSdGs03fdDfRUSYQfcX3GDoJyGDfFvnsk6nRT1FO/BDp+tP5DNZGj5pEzCBT0HAgv1TUPdvmsCUEgjRHn/6Ah5hU9ZIckmpWK55lE+5GCC0QqxrHfMp1gcEFKJNCSFfvuoh5NrfBCv79TR9BBDtvSnqTL8uZbz97DdRYr2s4nxvsB6xTN1B/fc6Ug/M8xvtx/FzverEb/YOwDMmYAImMF4CFuzj5e1fM4GZJpBCKAV3Ce0SR4ioElmRi1RZ2KWnQmSFsNc8ovyYq4JWWEzNRtWiLjCgUlrMNZ/Ke+DkU7hTR6gTWXcqzzrG+vhcMwj8qEvamnWeTMAETKCLBCzYu1gqPiYTmFICJbz7Ih0hpbX5PwRWiHIJJ7RTf7t0h2AdnzOF4FJeFtVY6T9TT6DqUO9hjhVDU9aNFOBZh47XMSoXj3hVhyLXn6xZQzvzogmYgAl0gIAFewcKwYdgArNEoER4SPVWbJXmKsGEgGole0+015pilWIrv5Hb1yfOp51AifB+XTp+xoP1iG2Yqo4xP/h5Snf9rZVs4MkETMAEOkbAgr1jBeLDMYFZItATUb0Znb2EU2mn3uqaqQ9ys1lC5XM9gUBUi6obg58P1JPe6sHt2s9P2qy3vWdMwARMoEMELNg7VBg+FBMwARMwARMwARMwARMYJmDBPkzEyyZgAiZgAiZgAiZgAibQIQIW7B0qDB+KCZiACZiACZiACZiACQwTsGAfJuJlEzABEzABEzABEzABE+gQAQv2DhWGD8UETMAETMAETMAETMAEhglYsA8T8bIJmIAJmIAJmIAJmIAJdIiABXuHCsOHYgImYAImYAImYAImYALDBCzYh4l42QRMwARMwARMwARMwAQ6RMCCvUOF4UMxARMwARMwARMwARMwgWECFuzDRLxsAiZgAiZgAiZgAiZgAh0iYMHeocLwoZiACZiACZiACZiACZjAMAEL9mEiXjYBEzABEzABEzABEzCBDhGwYO9QYfhQTMAETMAETMAETMAETGCYgAX7MBEvm4AJmIAJmIAJmIAJmECHCFiwd6gwfCgmYAImYAImYAImYAImMEzAgn2YiJdNwARMwARMwARMwARMoEMELNg7VBg+FBMwARMwARMwARMwARMYJmDBPkzEyyZgAiZgAiZgAiZgAibQIQIW7B0qDB+KCZiACZiACZiACZiACQwTsGAfJuJlEzABEzABEzABEzABE+gQAQv2DhWGD8UETMAETMAETMAETMAEhglYsA8T8bIJmIAJmIAJmIAJmIAJdIiABXuHCsOHYgImYAImYAImYAImYALDBCzYh4l42QRMwARMwARMwARMwAQ6RMCCvUOF4UMxARMwARMwARMwARMwgWECFuzDRLxsAiZgAiZgAiZgAiZgAh0iYMHeocLwoZiACZiACZiACZiACZjAMAEL9mEiXjYBEzABEzABEzABEzCBDhGwYO9QYfhQTMAETMAETMAETMAETGCYgAX7MBEvm4AJmIAJmIAJmIAJmECHCFiwd6gwfCgmYAImYAImYAImYAImMEzAgn2YiJdNwARMwARMwARMwARMoEMELNg7VBg+FBMwARMwARMwARMwARMYJmDBPkzEyyZgAiZgAiZgAiZgAibQIQIW7B0qDB+KCZiACZiACZiACZiACQwTsGAfJuJlEzABEzABEzABEzABE+gQAQv2DhWGD8UETMAETMAETMAETMAEhglYsA8T8bIJmIAJmIAJmIAJmIAJdIiABXuHCsOHYgImYAImYAImYAImYALDBCzYh4l42QRMwARMwARMwARMwAQ6RMCCvUOF4UMxARMwARMwARMwARMwgWECFuzDRLxsAiZgAiZgAiZgAiZgAh0iYMHeocLwoZiACZiACZiACZiACZjAMAEL9mEiXjYBEzABEzABEzABEzCBDhGwYO9QYfhQTMAETMAETMAETMAETGCYgAX7MBEvm4AJmIAJmIAJmIAJmECHCFiwd6gwfCgmYAImYAImYAImYAImMEzAgn2YiJdNwARMwARMwARMwARMoEMELNg7VBg+FBMwARMwARMwARMwARMYJmDBPkzEyyZgAiZgAiZgAiZgAibQIQIW7B0qDB+KCZiACZiACZiACZiACQwTsGAfJuJlEzABEzABEzABEzABE+gQAQv2DhWGD8UETMAETMAETMAETMAEhgn8PzbgiO3FZxI7AAAAAElFTkSuQmCC;" vertex="1" parent="1">
          <mxGeometry x="338" y="334.47" width="87.15" height="71.07" as="geometry" />
        </mxCell>
        <mxCell id="QvtD-cSKNG_eyLVK3MQW-12" style="edgeStyle=orthogonalEdgeStyle;rounded=0;orthogonalLoop=1;jettySize=auto;html=1;entryX=0.174;entryY=0.435;entryDx=0;entryDy=0;entryPerimeter=0;" edge="1" parent="1" source="QvtD-cSKNG_eyLVK3MQW-9" target="8MI-fdnTwuqkwcKfI6M6-2">
          <mxGeometry relative="1" as="geometry" />
        </mxCell>
        <mxCell id="QvtD-cSKNG_eyLVK3MQW-15" style="edgeStyle=orthogonalEdgeStyle;rounded=0;orthogonalLoop=1;jettySize=auto;html=1;endArrow=none;endFill=0;startArrow=classic;startFill=1;" edge="1" parent="1" source="8MI-fdnTwuqkwcKfI6M6-1">
          <mxGeometry relative="1" as="geometry">
            <mxPoint x="570" y="370" as="targetPoint" />
          </mxGeometry>
        </mxCell>
      </root>
    </mxGraphModel>
  </diagram>
</mxfile>
